<?xml version="1.0" encoding="UTF-8"?>
<svg xmlns="http://www.w3.org/2000/svg" xmlns:xlink="http://www.w3.org/1999/xlink" width="350pt" height="277pt" viewBox="0 0 350 277" version="1.1">
<defs>
<filter id="alpha" filterUnits="objectBoundingBox" x="0%" y="0%" width="100%" height="100%">
  <feColorMatrix type="matrix" in="SourceGraphic" values="0 0 0 0 1 0 0 0 0 1 0 0 0 0 1 0 0 0 1 0"/>
</filter>
<mask id="mask0">
  <g filter="url(#alpha)">
<rect x="0" y="0" width="350" height="277" style="fill:rgb(0%,0%,0%);fill-opacity:0.2;stroke:none;"/>
  </g>
</mask>
<clipPath id="clip1">
  <rect x="0" y="0" width="350" height="277"/>
</clipPath>
<g id="surface5" clip-path="url(#clip1)">
<path style=" stroke:none;fill-rule:nonzero;fill:rgb(0%,0%,0%);fill-opacity:1;" d="M 332.914062 36.28125 C 345.570312 65.902344 334.90625 100.339844 307.726562 117.613281 C 280.546875 134.886719 244.859375 129.90625 223.4375 105.851562 C 233.667969 129.796875 257.0625 145.441406 283.085938 145.746094 C 309.113281 146.050781 332.867188 130.957031 343.652344 107.257812 C 354.441406 83.558594 350.230469 55.722656 332.914062 36.28125 Z M 332.914062 36.28125 "/>
</g>
</defs>
<g id="surface1">
<path style=" stroke:none;fill-rule:nonzero;fill:rgb(24.705882%,23.921569%,33.72549%);fill-opacity:1;" d="M 32.492188 242.425781 L 28.675781 270.96875 L 36.308594 270.96875 Z M 32.492188 242.425781 "/>
<path style=" stroke:none;fill-rule:nonzero;fill:rgb(24.705882%,23.921569%,33.72549%);fill-opacity:1;" d="M 28.472656 244.835938 L 24.65625 273.382812 L 32.292969 273.382812 Z M 28.472656 244.835938 "/>
<path style=" stroke:none;fill-rule:nonzero;fill:rgb(24.705882%,23.921569%,33.72549%);fill-opacity:1;" d="M 23.652344 244.835938 L 19.835938 273.382812 L 27.46875 273.382812 Z M 23.652344 244.835938 "/>
<path style=" stroke:none;fill-rule:nonzero;fill:rgb(24.705882%,23.921569%,33.72549%);fill-opacity:1;" d="M 262.34375 233.582031 L 258.527344 262.125 L 266.160156 262.125 Z M 262.34375 233.582031 "/>
<path style=" stroke:none;fill-rule:nonzero;fill:rgb(24.705882%,23.921569%,33.72549%);fill-opacity:1;" d="M 267.566406 233.582031 L 263.75 262.125 L 271.382812 262.125 Z M 267.566406 233.582031 "/>
<path style=" stroke:none;fill-rule:nonzero;fill:rgb(24.705882%,23.921569%,33.72549%);fill-opacity:1;" d="M 271.585938 239.609375 L 267.769531 268.15625 L 275.402344 268.15625 Z M 271.585938 239.609375 "/>
<path style=" stroke:none;fill-rule:nonzero;fill:rgb(24.705882%,23.921569%,33.72549%);fill-opacity:1;" d="M 276.808594 239.609375 L 272.992188 268.15625 L 280.625 268.15625 Z M 276.808594 239.609375 "/>
<path style=" stroke:none;fill-rule:nonzero;fill:rgb(24.705882%,23.921569%,33.72549%);fill-opacity:1;" d="M 299.3125 244.035156 L 295.496094 272.578125 L 303.128906 272.578125 Z M 299.3125 244.035156 "/>
<path style=" stroke:none;fill-rule:nonzero;fill:rgb(24.705882%,23.921569%,33.72549%);fill-opacity:1;" d="M 304.535156 244.035156 L 300.71875 272.578125 L 308.351562 272.578125 Z M 304.535156 244.035156 "/>
<path style=" stroke:none;fill-rule:nonzero;fill:rgb(24.705882%,23.921569%,33.72549%);fill-opacity:1;" d="M 311.78125 274.1875 L 305.328125 274.1875 L 305.542969 272.578125 L 306.902344 262.421875 L 306.945312 262.074219 L 308.554688 250.0625 L 310.3125 263.230469 L 311.167969 269.59375 Z M 311.78125 274.1875 "/>
<path style=" stroke:none;fill-rule:nonzero;fill:rgb(24.705882%,23.921569%,33.72549%);fill-opacity:1;" d="M 317.003906 274.1875 L 310.550781 274.1875 L 311.167969 269.59375 L 311.964844 263.628906 L 313.777344 250.0625 L 315.714844 264.554688 L 315.714844 264.558594 L 316.28125 268.789062 Z M 317.003906 274.1875 "/>
<path style=" stroke:none;fill-rule:nonzero;fill:rgb(24.705882%,23.921569%,33.72549%);fill-opacity:1;" d="M 322.441406 274.1875 L 315.5625 274.1875 L 316.28125 268.789062 L 316.8125 264.832031 L 319 248.457031 L 321.347656 265.992188 L 321.613281 267.988281 Z M 322.441406 274.1875 "/>
<path style=" stroke:none;fill-rule:nonzero;fill:rgb(24.705882%,23.921569%,33.72549%);fill-opacity:1;" d="M 327.664062 274.1875 L 320.785156 274.1875 L 321.613281 267.988281 L 321.863281 266.125 L 324.226562 248.457031 L 326.636719 266.496094 L 326.765625 267.4375 Z M 327.664062 274.1875 "/>
<path style=" stroke:none;fill-rule:nonzero;fill:rgb(24.705882%,23.921569%,33.72549%);fill-opacity:1;" d="M 330.878906 274.1875 L 325.609375 274.1875 L 326.519531 267.371094 L 326.636719 266.496094 L 328.246094 254.484375 L 330.097656 268.351562 L 330.855469 274.015625 Z M 330.878906 274.1875 "/>
<path style=" stroke:none;fill-rule:nonzero;fill:rgb(24.705882%,23.921569%,33.72549%);fill-opacity:1;" d="M 336.105469 274.1875 L 330.832031 274.1875 L 330.855469 274.015625 L 331.558594 268.757812 L 333.46875 254.484375 L 335.53125 269.886719 Z M 336.105469 274.1875 "/>
<path style=" stroke:none;fill-rule:nonzero;fill:rgb(100%,39.607843%,51.764706%);fill-opacity:1;" d="M 76.894531 38.394531 C 76.894531 59.597656 59.714844 76.789062 38.519531 76.789062 C 17.324219 76.789062 0.144531 59.597656 0.144531 38.394531 C 0.144531 17.191406 17.324219 0 38.519531 0 C 59.714844 0 76.894531 17.191406 76.894531 38.394531 Z M 76.894531 38.394531 "/>
<path style=" stroke:none;fill-rule:nonzero;fill:rgb(90.196078%,90.196078%,90.196078%);fill-opacity:1;" d="M 349.742188 276.597656 L 0.144531 276.597656 C 0.144531 276.597656 71.125 249.3125 175.671875 249.621094 C 176.257812 249.621094 176.84375 249.625 177.429688 249.628906 C 179.515625 249.640625 181.613281 249.664062 183.722656 249.699219 C 185.375 249.726562 187.035156 249.761719 188.699219 249.800781 C 189.417969 249.820312 190.136719 249.839844 190.859375 249.859375 C 191.148438 249.867188 191.433594 249.875 191.71875 249.882812 C 192.382812 249.902344 193.050781 249.921875 193.722656 249.949219 C 194.980469 249.988281 196.242188 250.035156 197.507812 250.082031 C 198.617188 250.128906 199.730469 250.175781 200.851562 250.230469 C 201.277344 250.246094 201.710938 250.265625 202.140625 250.289062 C 204.167969 250.382812 206.207031 250.488281 208.25 250.609375 C 208.726562 250.640625 209.199219 250.667969 209.679688 250.695312 C 210.332031 250.730469 210.992188 250.777344 211.648438 250.816406 C 212.515625 250.871094 213.382812 250.929688 214.25 250.988281 C 215.378906 251.066406 216.503906 251.144531 217.632812 251.230469 C 219.996094 251.402344 222.375 251.59375 224.761719 251.800781 C 226.539062 251.949219 228.320312 252.113281 230.109375 252.28125 C 230.867188 252.355469 231.628906 252.429688 232.394531 252.507812 C 233.5625 252.621094 234.734375 252.738281 235.910156 252.867188 C 236.65625 252.945312 237.410156 253.027344 238.15625 253.105469 C 239.058594 253.203125 239.960938 253.304688 240.863281 253.410156 C 241.765625 253.511719 242.671875 253.617188 243.578125 253.726562 C 244.484375 253.835938 245.394531 253.945312 246.300781 254.054688 C 247.214844 254.167969 248.121094 254.28125 249.035156 254.402344 C 249.933594 254.515625 250.835938 254.636719 251.738281 254.753906 C 255.589844 255.265625 259.464844 255.824219 263.371094 256.425781 C 264.117188 256.535156 264.875 256.652344 265.625 256.773438 C 266.402344 256.894531 267.179688 257.019531 267.960938 257.148438 C 269.046875 257.320312 270.132812 257.5 271.226562 257.6875 C 272.164062 257.84375 273.101562 258 274.039062 258.164062 C 274.886719 258.308594 275.742188 258.457031 276.597656 258.609375 C 276.683594 258.628906 276.773438 258.644531 276.859375 258.660156 C 277.800781 258.824219 278.746094 258.996094 279.6875 259.167969 C 280.628906 259.34375 281.578125 259.519531 282.523438 259.695312 C 283.472656 259.875 284.417969 260.054688 285.367188 260.238281 C 286.320312 260.425781 287.269531 260.609375 288.222656 260.796875 C 288.964844 260.945312 289.703125 261.09375 290.449219 261.246094 C 290.816406 261.320312 291.1875 261.394531 291.554688 261.46875 C 292.351562 261.632812 293.148438 261.800781 293.953125 261.96875 C 294.90625 262.167969 295.867188 262.371094 296.824219 262.574219 C 296.933594 262.597656 297.039062 262.625 297.144531 262.644531 C 298.632812 262.964844 300.121094 263.292969 301.609375 263.625 C 301.8125 263.667969 302.015625 263.71875 302.222656 263.761719 C 303 263.933594 303.78125 264.109375 304.558594 264.292969 C 305.339844 264.472656 306.117188 264.648438 306.902344 264.835938 C 306.933594 264.839844 306.96875 264.847656 307 264.855469 C 308.105469 265.113281 309.203125 265.375 310.3125 265.644531 C 310.863281 265.769531 311.414062 265.902344 311.964844 266.039062 C 312.722656 266.222656 313.472656 266.40625 314.226562 266.59375 C 314.722656 266.71875 315.214844 266.84375 315.714844 266.96875 C 316.082031 267.054688 316.445312 267.144531 316.8125 267.242188 C 317.582031 267.433594 318.355469 267.628906 319.128906 267.828125 C 319.851562 268.015625 320.570312 268.199219 321.289062 268.386719 C 321.308594 268.390625 321.328125 268.398438 321.347656 268.40625 C 321.519531 268.449219 321.691406 268.492188 321.863281 268.539062 C 322.390625 268.675781 322.914062 268.816406 323.445312 268.957031 C 323.988281 269.101562 324.535156 269.246094 325.082031 269.394531 C 325.558594 269.523438 326.042969 269.652344 326.519531 269.785156 C 326.535156 269.785156 326.546875 269.785156 326.558594 269.792969 C 326.628906 269.808594 326.695312 269.828125 326.765625 269.847656 C 327.320312 269.996094 327.875 270.144531 328.429688 270.300781 C 328.984375 270.453125 329.539062 270.609375 330.097656 270.765625 C 330.152344 270.777344 330.210938 270.792969 330.265625 270.808594 C 330.695312 270.925781 331.125 271.046875 331.554688 271.171875 C 332.199219 271.359375 331.554688 271.167969 331.558594 271.171875 C 331.804688 271.234375 332.050781 271.308594 332.292969 271.375 C 332.949219 271.558594 333.605469 271.746094 334.257812 271.933594 C 334.679688 272.054688 335.109375 272.175781 335.53125 272.300781 C 336.707031 272.640625 337.886719 272.984375 339.070312 273.332031 C 340.25 273.683594 341.4375 274.035156 342.617188 274.394531 C 343.328125 274.609375 344.035156 274.824219 344.746094 275.046875 C 345.414062 275.246094 346.082031 275.453125 346.75 275.660156 C 347.746094 275.972656 348.746094 276.28125 349.742188 276.597656 Z M 349.742188 276.597656 "/>
<path style=" stroke:none;fill-rule:nonzero;fill:rgb(24.705882%,23.921569%,33.72549%);fill-opacity:1;" d="M 349.621094 276.980469 C 250.675781 245.644531 160.957031 247.3125 103.113281 254.230469 C 40.445312 261.726562 0.683594 276.820312 0.289062 276.972656 L 0 276.222656 C 0.394531 276.070312 40.253906 260.941406 103.015625 253.433594 C 139.9375 249.023438 177.1875 248.070312 214.28125 250.585938 C 260.332031 253.703125 305.847656 262.308594 349.863281 276.214844 Z M 349.621094 276.980469 "/>
<path style=" stroke:none;fill-rule:nonzero;fill:rgb(1.960784%,31.372549%,32.156863%);fill-opacity:1;" d="M 349.742188 80.183594 C 349.742188 116.488281 320.328125 145.917969 284.042969 145.917969 C 247.757812 145.917969 218.339844 116.488281 218.339844 80.183594 C 218.339844 43.882812 247.757812 14.453125 284.042969 14.453125 C 320.328125 14.453125 349.742188 43.882812 349.742188 80.183594 Z M 349.742188 80.183594 "/>
<use xlink:href="#surface5" mask="url(#mask0)"/>
<path style=" stroke:none;fill-rule:nonzero;fill:rgb(24.705882%,23.921569%,33.72549%);fill-opacity:1;" d="M 284.222656 80.1875 L 284.402344 80.1875 L 287.652344 266.546875 L 280.792969 266.546875 Z M 284.222656 80.1875 "/>
<path style=" stroke:none;fill-rule:nonzero;fill:rgb(24.705882%,23.921569%,33.72549%);fill-opacity:1;" d="M 294.671875 178.820312 L 296.183594 181.695312 L 285.324219 187.417969 L 283.8125 184.539062 Z M 294.671875 178.820312 "/>
<path style=" stroke:none;fill-rule:nonzero;fill:rgb(18.431373%,18.039216%,25.490196%);fill-opacity:1;" d="M 169.757812 115.585938 L 189.398438 120.082031 L 197.695312 104.421875 L 180.902344 97.863281 Z M 169.757812 115.585938 "/>
<path style=" stroke:none;fill-rule:nonzero;fill:rgb(100%,72.54902%,72.54902%);fill-opacity:1;" d="M 180.191406 199.875 C 180.191406 199.875 173.878906 214.351562 173.878906 218.5625 C 173.878906 218.5625 176.378906 230.007812 175.589844 233.167969 L 172.828125 239.089844 L 167.039062 236.71875 L 165.460938 220.929688 L 165.726562 195.664062 Z M 180.191406 199.875 "/>
<path style=" stroke:none;fill-rule:nonzero;fill:rgb(100%,72.54902%,72.54902%);fill-opacity:1;" d="M 183.742188 113.289062 C 183.742188 113.289062 184.269531 121.976562 183.21875 124.605469 C 182.164062 127.238281 187.164062 132.238281 187.164062 132.238281 L 195.054688 121.976562 C 195.054688 121.976562 189.792969 116.710938 191.109375 110.921875 Z M 183.742188 113.289062 "/>
<path style=" stroke:none;fill-rule:nonzero;fill:rgb(100%,72.54902%,72.54902%);fill-opacity:1;" d="M 168.488281 134.082031 L 168.488281 148.03125 L 167.304688 173.425781 C 167.304688 173.425781 159.675781 187.636719 167.039062 186.585938 C 174.40625 185.53125 171.90625 173.03125 171.90625 173.03125 L 174.40625 148.160156 L 174.273438 133.027344 Z M 168.488281 134.082031 "/>
<path style=" stroke:none;fill-rule:nonzero;fill:rgb(18.431373%,18.039216%,25.490196%);fill-opacity:1;" d="M 165.59375 234.878906 L 176.90625 230.40625 L 178.21875 252.773438 C 178.21875 252.773438 180.585938 259.617188 179.796875 262.25 C 179.796875 262.25 180.324219 266.722656 179.007812 266.984375 C 177.695312 267.25 174.011719 267.777344 173.75 267.511719 C 173.484375 267.25 173.484375 266.460938 173.484375 266.460938 C 173.484375 266.460938 170.855469 268.300781 170.589844 270.40625 C 170.589844 270.40625 159.542969 273.828125 159.28125 270.671875 C 159.015625 267.511719 164.804688 264.878906 164.804688 264.878906 L 169.277344 258.039062 Z M 165.59375 234.878906 "/>
<path style=" stroke:none;fill-rule:nonzero;fill:rgb(100%,72.54902%,72.54902%);fill-opacity:1;" d="M 203.734375 199.875 C 203.734375 199.875 197.421875 214.351562 197.421875 218.5625 C 197.421875 218.5625 199.921875 230.007812 199.132812 233.167969 L 196.371094 239.089844 L 190.582031 236.71875 L 189.003906 220.929688 L 189.269531 195.664062 Z M 203.734375 199.875 "/>
<path style=" stroke:none;fill-rule:nonzero;fill:rgb(18.431373%,18.039216%,25.490196%);fill-opacity:1;" d="M 189.53125 234.878906 L 200.84375 230.40625 L 202.15625 252.773438 C 202.15625 252.773438 204.523438 259.617188 203.734375 262.25 C 203.734375 262.25 204.261719 266.722656 202.945312 266.984375 C 201.632812 267.25 197.949219 267.777344 197.6875 267.511719 C 197.421875 267.25 197.421875 266.460938 197.421875 266.460938 C 197.421875 266.460938 194.792969 268.300781 194.527344 270.40625 C 194.527344 270.40625 183.480469 273.828125 183.21875 270.671875 C 182.953125 267.511719 188.742188 264.878906 188.742188 264.878906 L 193.214844 258.039062 Z M 189.53125 234.878906 "/>
<path style=" stroke:none;fill-rule:nonzero;fill:rgb(100%,72.54902%,72.54902%);fill-opacity:1;" d="M 194.792969 107.238281 C 194.792969 111.886719 191.023438 115.660156 186.375 115.660156 C 181.726562 115.660156 177.957031 111.886719 177.957031 107.238281 C 177.957031 102.585938 181.726562 98.816406 186.375 98.816406 C 191.023438 98.816406 194.792969 102.585938 194.792969 107.238281 Z M 194.792969 107.238281 "/>
<path style=" stroke:none;fill-rule:nonzero;fill:rgb(1.960784%,31.372549%,32.156863%);fill-opacity:1;" d="M 187.425781 124.082031 L 193.957031 120.6875 L 196.898438 123.027344 C 196.898438 123.027344 204 122.765625 206.628906 125.921875 C 209.261719 129.082031 210.707031 137.109375 210.707031 137.109375 C 210.707031 137.109375 202.027344 135.265625 203.078125 142.632812 L 201.5 138.421875 L 200.054688 141.976562 L 182.429688 148.03125 L 174.539062 134.605469 C 174.539062 134.605469 169.277344 133.027344 167.433594 136.710938 C 167.433594 136.710938 167.828125 123.421875 172.957031 123.027344 C 176.410156 122.761719 179.007812 122.765625 179.007812 122.765625 L 181.902344 122.238281 L 183.753906 121.578125 Z M 187.425781 124.082031 "/>
<path style=" stroke:none;fill-rule:nonzero;fill:rgb(18.431373%,18.039216%,25.490196%);fill-opacity:1;" d="M 201.855469 123.214844 C 201.855469 123.214844 197.832031 134.460938 202.492188 139.535156 L 198.605469 152.898438 C 198.605469 152.898438 212.417969 194.347656 208.472656 200.140625 C 208.472656 200.140625 193.738281 207.507812 164.277344 197.507812 L 176.246094 151.054688 L 174.539062 131.449219 L 176.90625 122.238281 L 182.164062 121.710938 C 182.164062 121.710938 179.007812 133.554688 184.796875 135.398438 C 190.582031 137.238281 196.230469 122.007812 196.230469 122.007812 Z M 201.855469 123.214844 "/>
<path style=" stroke:none;fill-rule:nonzero;fill:rgb(100%,72.54902%,72.54902%);fill-opacity:1;" d="M 202.027344 134.082031 L 202.027344 148.03125 L 200.84375 173.425781 C 200.84375 173.425781 193.214844 187.636719 200.578125 186.585938 C 207.945312 185.53125 205.445312 173.03125 205.445312 173.03125 L 207.289062 148.03125 L 207.8125 133.027344 Z M 202.027344 134.082031 "/>
<path style=" stroke:none;fill-rule:nonzero;fill:rgb(1.960784%,31.372549%,32.156863%);fill-opacity:1;" d="M 210.707031 137.109375 C 210.707031 137.109375 209.773438 123.59375 201.953125 123.640625 L 201.953125 139.269531 C 201.953125 139.269531 207.8125 135.792969 210.707031 137.109375 Z M 210.707031 137.109375 "/>
<path style=" stroke:none;fill-rule:nonzero;fill:rgb(18.431373%,18.039216%,25.490196%);fill-opacity:1;" d="M 181.621094 95.449219 C 181.621094 95.449219 177.269531 96.269531 176.265625 101.695312 C 176.109375 102.613281 176.078125 103.546875 176.179688 104.46875 C 176.28125 105.515625 176.132812 107.722656 173.867188 110.320312 C 172.386719 112.003906 171.007812 113.777344 169.738281 115.625 L 174.285156 116.835938 L 176.316406 109.300781 C 177.300781 105.648438 178.816406 102.160156 180.816406 98.945312 L 180.859375 98.878906 C 180.859375 98.878906 182.367188 102.917969 186.414062 103.46875 L 185.167969 101.828125 C 185.167969 101.828125 189.898438 104.5625 192.578125 105.398438 C 193.203125 105.59375 193.667969 106.117188 193.785156 106.757812 C 193.90625 107.402344 193.660156 108.058594 193.148438 108.460938 C 193.128906 108.476562 193.109375 108.492188 193.089844 108.507812 C 191.117188 110.003906 187.097656 113.578125 188.683594 117.039062 C 190.273438 120.496094 188.421875 121.125 188.421875 121.125 L 191.835938 119.824219 L 193.402344 119.15625 L 193.242188 120.3125 L 200.878906 120.472656 C 200.878906 120.472656 202.941406 120.460938 199.277344 114.949219 C 199.277344 114.949219 198.390625 112.882812 199.117188 111.304688 C 199.699219 110.113281 199.992188 108.792969 199.964844 107.464844 C 199.734375 101.910156 197.394531 90.609375 181.621094 95.449219 Z M 181.621094 95.449219 "/>
<path style=" stroke:none;fill-rule:nonzero;fill:rgb(18.431373%,18.039216%,25.490196%);fill-opacity:1;" d="M 187.28125 103.71875 C 185.984375 103.542969 184.773438 104.566406 184.578125 106.007812 C 184.382812 107.445312 185.273438 108.757812 186.566406 108.933594 C 187.863281 109.113281 189.074219 108.089844 189.269531 106.648438 C 189.464844 105.207031 188.574219 103.898438 187.28125 103.71875 Z M 187.28125 103.71875 "/>
<path style=" stroke:none;fill-rule:nonzero;fill:rgb(18.431373%,18.039216%,25.490196%);fill-opacity:1;" d="M 181.285156 102.898438 C 179.988281 102.722656 178.78125 103.746094 178.582031 105.1875 C 178.386719 106.625 179.277344 107.9375 180.574219 108.113281 C 181.867188 108.292969 183.078125 107.269531 183.273438 105.828125 C 183.472656 104.386719 182.582031 103.078125 181.285156 102.898438 Z M 181.285156 102.898438 "/>
<path style=" stroke:none;fill-rule:nonzero;fill:rgb(18.431373%,18.039216%,25.490196%);fill-opacity:1;" d="M 189.019531 105.949219 L 194.375 105.621094 L 194.425781 106.421875 L 189.070312 106.753906 Z M 189.019531 105.949219 "/>
<path style=" stroke:none;fill-rule:nonzero;fill:rgb(18.431373%,18.039216%,25.490196%);fill-opacity:1;" d="M 182.4375 106.121094 L 182.546875 105.324219 L 185.15625 105.679688 L 185.046875 106.476562 Z M 182.4375 106.121094 "/>
<path style=" stroke:none;fill-rule:nonzero;fill:rgb(24.705882%,23.921569%,33.72549%);fill-opacity:1;" d="M 127.1875 268.125 C 127.1875 268.125 127.464844 262.308594 133.152344 262.984375 "/>
<path style=" stroke:none;fill-rule:nonzero;fill:rgb(1.960784%,31.372549%,32.156863%);fill-opacity:1;" d="M 128.425781 259.742188 C 128.425781 261.3125 127.152344 262.589844 125.578125 262.589844 C 124.007812 262.589844 122.730469 261.3125 122.730469 259.742188 C 122.730469 258.167969 124.007812 256.890625 125.578125 256.890625 C 127.152344 256.890625 128.425781 258.167969 128.425781 259.742188 Z M 128.425781 259.742188 "/>
<path style=" stroke:none;fill-rule:nonzero;fill:rgb(24.705882%,23.921569%,33.72549%);fill-opacity:1;" d="M 125.117188 264.535156 L 125.917969 264.535156 L 125.917969 270.164062 L 125.117188 270.164062 Z M 125.117188 264.535156 "/>
<path style=" stroke:none;fill-rule:nonzero;fill:rgb(24.705882%,23.921569%,33.72549%);fill-opacity:1;" d="M 230.859375 269.332031 C 230.859375 269.332031 231.136719 263.511719 236.828125 264.191406 "/>
<path style=" stroke:none;fill-rule:nonzero;fill:rgb(1.960784%,31.372549%,32.156863%);fill-opacity:1;" d="M 232.101562 260.945312 C 232.101562 262.519531 230.824219 263.792969 229.253906 263.792969 C 227.679688 263.792969 226.40625 262.519531 226.40625 260.945312 C 226.40625 259.375 227.679688 258.097656 229.253906 258.097656 C 230.824219 258.097656 232.101562 259.375 232.101562 260.945312 Z M 232.101562 260.945312 "/>
<path style=" stroke:none;fill-rule:nonzero;fill:rgb(24.705882%,23.921569%,33.72549%);fill-opacity:1;" d="M 228.789062 265.742188 L 229.59375 265.742188 L 229.59375 271.371094 L 228.789062 271.371094 Z M 228.789062 265.742188 "/>
<path style=" stroke:none;fill-rule:nonzero;fill:rgb(24.705882%,23.921569%,33.72549%);fill-opacity:1;" d="M 60.078125 259.28125 C 60.078125 259.28125 60.355469 253.460938 66.046875 254.140625 "/>
<path style=" stroke:none;fill-rule:nonzero;fill:rgb(1.960784%,31.372549%,32.156863%);fill-opacity:1;" d="M 61.320312 250.894531 C 61.320312 252.46875 60.042969 253.742188 58.472656 253.742188 C 56.898438 253.742188 55.625 252.46875 55.625 250.894531 C 55.625 249.324219 56.898438 248.046875 58.472656 248.046875 C 60.042969 248.046875 61.320312 249.324219 61.320312 250.894531 Z M 61.320312 250.894531 "/>
<path style=" stroke:none;fill-rule:nonzero;fill:rgb(24.705882%,23.921569%,33.72549%);fill-opacity:1;" d="M 58.007812 255.691406 L 58.8125 255.691406 L 58.8125 261.320312 L 58.007812 261.320312 Z M 58.007812 255.691406 "/>
<path style=" stroke:none;fill-rule:nonzero;fill:rgb(24.705882%,23.921569%,33.72549%);fill-opacity:1;" d="M 103.878906 251.640625 C 103.878906 251.640625 104.15625 245.824219 109.847656 246.5 "/>
<path style=" stroke:none;fill-rule:nonzero;fill:rgb(1.960784%,31.372549%,32.156863%);fill-opacity:1;" d="M 105.121094 243.257812 C 105.121094 244.832031 103.84375 246.105469 102.273438 246.105469 C 100.699219 246.105469 99.425781 244.832031 99.425781 243.257812 C 99.425781 241.683594 100.699219 240.410156 102.273438 240.410156 C 103.84375 240.410156 105.121094 241.683594 105.121094 243.257812 Z M 105.121094 243.257812 "/>
<path style=" stroke:none;fill-rule:nonzero;fill:rgb(24.705882%,23.921569%,33.72549%);fill-opacity:1;" d="M 101.808594 248.054688 L 102.613281 248.054688 L 102.613281 253.683594 L 101.808594 253.683594 Z M 101.808594 248.054688 "/>
<path style=" stroke:none;fill-rule:nonzero;fill:rgb(24.705882%,23.921569%,33.72549%);fill-opacity:1;" d="M 213.582031 262.496094 C 213.582031 262.496094 213.859375 256.679688 219.546875 257.355469 "/>
<path style=" stroke:none;fill-rule:nonzero;fill:rgb(1.960784%,31.372549%,32.156863%);fill-opacity:1;" d="M 214.820312 254.113281 C 214.820312 255.683594 213.546875 256.960938 211.972656 256.960938 C 210.402344 256.960938 209.125 255.683594 209.125 254.113281 C 209.125 252.539062 210.402344 251.261719 211.972656 251.261719 C 213.546875 251.261719 214.820312 252.539062 214.820312 254.113281 Z M 214.820312 254.113281 "/>
<path style=" stroke:none;fill-rule:nonzero;fill:rgb(24.705882%,23.921569%,33.72549%);fill-opacity:1;" d="M 211.511719 258.910156 L 212.3125 258.910156 L 212.3125 264.535156 L 211.511719 264.535156 Z M 211.511719 258.910156 "/>
<path style=" stroke:none;fill-rule:nonzero;fill:rgb(24.705882%,23.921569%,33.72549%);fill-opacity:1;" d="M 133.875 15.867188 L 137.574219 12.90625 C 134.699219 12.589844 133.519531 14.15625 133.035156 15.398438 C 130.789062 14.464844 128.34375 15.6875 128.34375 15.6875 L 135.746094 18.375 C 135.375 17.378906 134.722656 16.507812 133.875 15.867188 Z M 133.875 15.867188 "/>
<path style=" stroke:none;fill-rule:nonzero;fill:rgb(24.705882%,23.921569%,33.72549%);fill-opacity:1;" d="M 190.128906 46.019531 L 193.828125 43.058594 C 190.957031 42.742188 189.773438 44.308594 189.292969 45.550781 C 187.046875 44.617188 184.601562 45.839844 184.601562 45.839844 L 192.003906 48.527344 C 191.628906 47.53125 190.980469 46.660156 190.128906 46.019531 Z M 190.128906 46.019531 "/>
<path style=" stroke:none;fill-rule:nonzero;fill:rgb(24.705882%,23.921569%,33.72549%);fill-opacity:1;" d="M 129.453125 71.75 L 133.152344 68.789062 C 130.277344 68.472656 129.097656 70.039062 128.613281 71.28125 C 126.371094 70.347656 123.925781 71.570312 123.925781 71.570312 L 131.328125 74.257812 C 130.953125 73.261719 130.304688 72.390625 129.453125 71.75 Z M 129.453125 71.75 "/>
</g>
</svg>
