<?xml version="1.0" standalone="no"?>
<!DOCTYPE svg PUBLIC "-//W3C//DTD SVG 1.0//EN" "http://www.w3.org/TR/2001/REC-SVG-20010904/DTD/svg10.dtd">
<svg xmlns="http://www.w3.org/2000/svg" xmlns:xlink="http://www.w3.org/1999/xlink" id="body_1" width="455" height="334">

<g transform="matrix(0.39979625 0 0 0.39979625 0.29055017 -0)">
	<g transform="matrix(1 0 0 1 -31.68686 -32.28722)">
	</g>
    <path transform="matrix(1 0 0 1 -31.68686 -32.28722)"  d="M840.8275 654.7914L834 679L862 679C 858.0006 669.43616 856.978 660.3545 860.44446 652L860.44446 652L840.8275 654.7914z" stroke="none" fill="#FFB8B8" fill-rule="nonzero" />
	<g transform="matrix(1 0 0 1 -31.68686 -32.28722)">
	</g>
    <path transform="matrix(1 0 0 1 -31.68686 -32.28722)"  d="M1168.3131 866.56525C 1168.3131 866.9439 1168.3016 867.3341 1168.2787 867.7128L1168.2787 867.7128L32.26064 867.7128C 32.23764 867.3341 32.22618 866.9439 32.22618 866.56525C 32.22618 808.96906 286.549 762.28625 600.26965 762.28625C 913.9903 762.28625 1168.3131 808.96906 1168.3131 866.56525z" stroke="none" fill="#3F3D56" fill-rule="nonzero" />
    <path d="M1013.8371 718.3742C 1013.83716 700.9452 1007.67505 686.06866 995.3508 673.7445C 983.02673 661.42035 968.15015 655.25824 950.7211 655.25824C 933.2922 655.25824 918.41565 661.42035 906.09143 673.7445C 893.76733 686.06866 887.6052 700.9452 887.60516 718.3742C 887.6052 735.8032 893.76733 750.6798 906.09143 763.0039C 918.41565 775.3281 933.2922 781.49023 950.7211 781.4902C 968.15015 781.49023 983.02673 775.3281 995.3508 763.0039C 1007.67505 750.6798 1013.83716 735.8032 1013.8371 718.3742" stroke="none" fill="#D0CDE1" fill-rule="nonzero" />
	<g>
	</g>
	<g>
	</g>
    <path d="M911.704 672.4717C 911.704 662.96497 930.7139 655.25824 954.1638 655.25824C 977.6137 655.25824 996.62366 662.96497 996.62366 672.4717C 996.62366 681.9784 977.6137 689.6851 954.1638 689.6851C 930.7139 689.6851 911.704 681.9784 911.704 672.4717" stroke="none" fill="#055254" fill-rule="nonzero" />
    <path d="M996.6236 633.4545C 996.62366 622.3634 992.70233 612.8965 984.8596 605.05383C 977.017 597.2112 967.5501 593.28986 956.4589 593.28986C 945.36774 593.28986 935.9009 597.2112 928.0582 605.05383C 920.2156 612.8965 916.2943 622.3634 916.29425 633.4545C 916.2943 644.5458 920.2156 654.01263 928.0582 661.8552C 935.9009 669.6979 945.36774 673.6192 956.4589 673.6192C 967.5501 673.6192 977.017 669.6979 984.8596 661.8552C 992.70233 654.01263 996.62366 644.5458 996.6236 633.4545" stroke="none" fill="#D0CDE1" fill-rule="nonzero" />
	<g>
	</g>
    <path d="M950.3857 619.6838C 950.3857 617.98724 949.7859 616.5391 948.5862 615.3394C 947.3866 614.1398 945.9385 613.5399 944.2418 613.5399C 942.5453 613.5399 941.09717 614.1398 939.89746 615.3394C 938.6979 616.5391 938.098 617.98724 938.09796 619.6838C 938.098 621.3804 938.6979 622.8285 939.89746 624.02814C 941.09717 625.22784 942.5453 625.82764 944.2418 625.82764C 945.9385 625.82764 947.3866 625.22784 948.5862 624.02814C 949.7859 622.8285 950.3857 621.3804 950.3857 619.6838" stroke="none" fill="#575A89" fill-rule="nonzero" />
	<g>
	</g>
    <path d="M971.37726 619.6838C 971.37726 617.98724 970.77747 616.5391 969.57776 615.3394C 968.3782 614.1398 966.93005 613.5399 965.2334 613.5399C 963.53687 613.5399 962.08875 614.1398 960.88904 615.3394C 959.68945 616.5391 959.0896 617.98724 959.08954 619.6838C 959.0896 621.3804 959.68945 622.8285 960.88904 624.02814C 962.08875 625.22784 963.53687 625.82764 965.2334 625.82764C 966.93005 625.82764 968.3782 625.22784 969.57776 624.02814C 970.77747 622.8285 971.37726 621.3804 971.37726 619.6838" stroke="none" fill="#575A89" fill-rule="nonzero" />
	<g>
	</g>
	<g transform="matrix(1 0 0 1 -31.68686 -32.28722)">
	</g>
    <path transform="matrix(1 0 0 1 -31.68686 -32.28722)"  d="M984.7031 660.004L983.0264 680.1247C 982.99445 680.50824 983.2582 680.8537 983.63666 680.92395C 984.01514 680.9942 984.3853 680.76636 984.49304 680.39685L984.49304 680.39685L990.441 660.00397L984.7031 660.004z" stroke="none" fill="#FF6584" fill-rule="nonzero" />
	<g>
	</g>
    <path d="M916.882 801.169L909.579 808.472L869.244 760.834L870.222 754.508L916.882 801.169L916.882 801.169" stroke="none" fill="#575A89" fill-rule="nonzero" />
	<g>
	</g>
    <path d="M885.31 778.047L885.31 782.638L848.588 780.343L845.145 778.047L885.31 778.047L885.31 778.047" stroke="none" fill="#575A89" fill-rule="nonzero" />
	<g>
	</g>
    <path d="M903.6711 700.0132C 903.6711 693.67535 908.2951 688.53754 913.99915 688.53754C 919.7032 688.53754 924.3272 693.67535 924.3272 700.0132C 924.3272 706.351 919.7032 711.48883 913.99915 711.48883C 908.2951 711.48883 903.6711 706.351 903.6711 700.0132" stroke="none" fill="#D0CDE1" fill-rule="nonzero" />
	<g>
	</g>
    <path d="M1000.626 699.036L1007.929 706.339L1048.264 658.701L1047.287 652.375L1000.626 699.036L1000.626 699.036" stroke="none" fill="#575A89" fill-rule="nonzero" />
	<g>
	</g>
    <path d="M1021.87 681.652L1021.87 686.242L1058.592 683.947L1062.035 681.652L1021.87 681.652L1021.87 681.652" stroke="none" fill="#575A89" fill-rule="nonzero" />
	<g>
	</g>
    <path d="M993.18097 700.0132C 993.18097 693.67535 997.805 688.53754 1003.50903 688.53754C 1009.2131 688.53754 1013.8371 693.67535 1013.8371 700.0132C 1013.8371 706.351 1009.2131 711.48883 1003.50903 711.48883C 997.805 711.48883 993.18097 706.351 993.18097 700.0132" stroke="none" fill="#D0CDE1" fill-rule="nonzero" />
    <path d="M958.7541 704.60345C 958.75415 703.33594 958.30597 702.25397 957.4096 701.35767C 956.51337 700.46136 955.43146 700.0132 954.1638 700.0132C 952.8963 700.0132 951.81433 700.46136 950.918 701.35767C 950.0217 702.25397 949.5736 703.33594 949.57355 704.60345C 949.5736 705.8711 950.0217 706.953 950.918 707.84924C 951.81433 708.7456 952.8963 709.1937 954.1638 709.1937C 955.43146 709.1937 956.51337 708.7456 957.4096 707.84924C 958.30597 706.953 958.75415 705.8711 958.7541 704.60345" stroke="none" fill="#575A89" fill-rule="nonzero" />
	<g>
	</g>
    <path d="M958.7541 719.5217C 958.75415 718.25415 958.30597 717.17224 957.4096 716.27594C 956.51337 715.37964 955.43146 714.93146 954.1638 714.93146C 952.8963 714.93146 951.81433 715.37964 950.918 716.27594C 950.0217 717.17224 949.5736 718.25415 949.57355 719.5217C 949.5736 720.7893 950.0217 721.8712 950.918 722.7675C 951.81433 723.6638 952.8963 724.112 954.1638 724.112C 955.43146 724.112 956.51337 723.6638 957.4096 722.7675C 958.30597 721.8712 958.75415 720.7893 958.7541 719.5217" stroke="none" fill="#575A89" fill-rule="nonzero" />
	<g>
	</g>
    <path d="M958.7541 734.44006C 958.75415 733.1725 958.30597 732.0906 957.4096 731.1943C 956.51337 730.298 955.43146 729.8498 954.1638 729.8498C 952.8963 729.8498 951.81433 730.298 950.918 731.1943C 950.0217 732.0906 949.5736 733.1725 949.57355 734.44006C 949.5736 735.70764 950.0217 736.78955 950.918 737.68585C 951.81433 738.58215 952.8963 739.03033 954.1638 739.03033C 955.43146 739.03033 956.51337 738.58215 957.4096 737.68585C 958.30597 736.78955 958.75415 735.70764 958.7541 734.44006" stroke="none" fill="#575A89" fill-rule="nonzero" />
	<g>
	</g>
	<g transform="matrix(1 0 0 1 -31.68686 -32.28722)">
	</g>
    <path transform="matrix(1 0 0 1 -31.68686 -32.28722)"  d="M787.4621 778.1928C 787.95374 767.7543 781.6565 758.19006 771.8732 754.5167C 762.08997 750.8434 751.0541 753.8995 744.5541 762.08203C 741.9942 758.177 738.3564 755.09845 734.0818 753.2196C 736.9177 742.48175 732.0468 731.1965 722.288 725.89465C 712.5292 720.59283 700.41064 722.6481 692.9455 730.871C 687.2568 725.23254 680.4277 720.87616 672.91656 718.09436C 674.8355 705.95605 667.3085 694.3196 655.4506 691.0928C 643.5928 687.866 631.20715 694.0838 626.71075 705.52075C 617.9884 699.4531 606.3193 699.82324 597.99896 706.43134C 589.6786 713.0394 586.6761 724.3218 590.6112 734.1914C 587.7704 735.23816 585.15204 736.81036 582.89294 738.82587C 571.4869 734.6242 558.7379 739.5832 553.1689 750.3877C 550.98737 747.9675 548.3382 746.01447 545.3812 744.64636C 545.45215 744.0566 545.52625 743.4677 545.55414 742.86487C 545.9865 733.6977 541.17456 725.08057 533.1431 720.6398C 525.1117 716.1989 515.2551 716.7053 507.72107 721.9458C 500.18704 727.18634 496.2835 736.25116 497.65314 745.3258C 486.3817 748.396 478.99173 759.1769 480.19336 770.797C 453.15057 771.59076 427.06836 772.8581 402.14392 774.57135C 395.86646 752.5944 376.91266 736.6026 354.19272 734.1137C 331.47278 731.62476 309.5063 743.1338 298.61975 763.2304C 290.04477 756.7407 278.20676 756.72125 269.61044 763.1826C 261.0141 769.644 257.7421 781.0208 261.59225 791.0619C 260.50134 791.258 259.41504 791.4552 258.3333 791.65356C 258.37173 791.25366 258.43085 790.8603 258.44965 790.4546C 258.8594 781.8472 254.64214 773.6761 247.38882 769.0238C 240.13553 764.37146 230.9501 763.9461 223.29785 767.9081C 215.6456 771.87006 210.69118 779.61646 210.30365 788.22485C 210.29208 788.47473 210.31065 788.71826 210.30675 788.96655C 205.83804 787.26984 200.8267 787.8192 196.83173 790.4438C 192.83675 793.0683 190.34283 797.4496 190.12582 802.2247C 190.03825 804.11426 787.41864 779.1302 787.4621 778.1928z" stroke="none" fill="#D0CDE1" fill-rule="nonzero" />
	<g transform="matrix(1 0 0 1 -31.68686 -32.28722)">
	</g>
    <path transform="matrix(1 0 0 1 -31.68686 -32.28722)"  d="M40.22549 418.7686C 40.25841 418.66394 40.29315 418.55795 40.32621 418.45297C 40.31192 418.49896 40.29399 418.54324 40.27999 418.58942L40.27999 418.58942L40.22549 418.7686z" stroke="none" fill="#2F2E41" fill-rule="nonzero" />
	<g transform="matrix(1 0 0 1 -31.68686 -32.28722)">
	</g>
    <path transform="matrix(1 0 0 1 -31.68686 -32.28722)"  d="M589.05566 731.61847L674.0532 605.21857L589.2295 745.2167L589.40686 759.4398C 583.2017 759.4872 577.0568 759.3838 570.9722 759.1298L570.9722 759.1298L575.1879 576.3005L575.07245 574.89L575.228 574.6175L575.63153 557.34125L482.54913 422.1965L575.52167 544.411L575.8516 548.0627L579.0358 409.92798L498.6377 269.81375L579.2647 385.6616L578.42316 99.482056L578.4249 98.52955L578.4523 99.46631L583.78925 325.0143L657.0625 233.39659L584.02924 344.44476L585.6285 468.00305L653.05493 347.41483L585.8763 486.16824L586.7665 554.87286L684.82275 386.89487L587.0646 578.841L589.05566 731.61847z" stroke="none" fill="#3F3D56" fill-rule="nonzero" />
    <path d="M547.92664 339.67853C 547.92664 337.14343 547.03033 334.97955 545.23773 333.18692C 543.4451 331.39432 541.28125 330.49802 538.74615 330.49802C 536.21106 330.49802 534.0472 331.39432 532.2546 333.18692C 530.462 334.97955 529.5657 337.14343 529.5657 339.67853C 529.5657 342.21365 530.462 344.3775 532.2546 346.17014C 534.0472 347.96274 536.21106 348.85904 538.74615 348.85904C 541.28125 348.85904 543.4451 347.96274 545.23773 346.17014C 547.03033 344.3775 547.92664 342.21365 547.92664 339.67853" stroke="none" fill="#D0CDE1" fill-rule="nonzero" />
	<g>
	</g>
    <path d="M607.5999 479.68115C 607.5999 477.14606 606.7036 474.98218 604.911 473.18954C 603.1184 471.39697 600.9546 470.50067 598.41943 470.50064C 595.88434 470.50067 593.72046 471.39697 591.92786 473.18954C 590.13525 474.98218 589.239 477.14606 589.23895 479.68115C 589.239 482.2163 590.13525 484.38016 591.92786 486.17276C 593.72046 487.96536 595.88434 488.86166 598.41943 488.86166C 600.9546 488.86166 603.1184 487.96536 604.911 486.17276C 606.7036 484.38016 607.5999 482.2163 607.5999 479.68115" stroke="none" fill="#D0CDE1" fill-rule="nonzero" />
	<g>
	</g>
    <path d="M529.5657 510.66534C 529.5657 508.13025 528.6694 505.96637 526.8768 504.17374C 525.08417 502.38116 522.9203 501.48486 520.3852 501.48483C 517.8501 501.48486 515.6863 502.38116 513.8936 504.17374C 512.101 505.96637 511.2047 508.13025 511.20468 510.66534C 511.2047 513.2005 512.101 515.3644 513.8936 517.1569C 515.6863 518.9496 517.8501 519.8458 520.3852 519.8458C 522.9203 519.8458 525.08417 518.9496 526.8768 517.1569C 528.6694 515.3644 529.5657 513.2005 529.5657 510.66534" stroke="none" fill="#D0CDE1" fill-rule="nonzero" />
	<g>
	</g>
    <path d="M499.72906 367.22003C 499.72906 364.68494 498.83276 362.52106 497.04016 360.72842C 495.24756 358.93585 493.08368 358.03955 490.54855 358.03952C 488.01343 358.03955 485.84958 358.93585 484.05695 360.72842C 482.26437 362.52106 481.36807 364.68494 481.36804 367.22003C 481.36807 369.75516 482.26437 371.91904 484.05695 373.71164C 485.84958 375.50424 488.01343 376.40054 490.54855 376.40054C 493.08368 376.40054 495.24756 375.50424 497.04016 373.71164C 498.83276 371.91904 499.72906 369.75516 499.72906 367.22003" stroke="none" fill="#D0CDE1" fill-rule="nonzero" />
	<g>
	</g>
	<g transform="matrix(1 0 0 1 -31.68686 -32.28722)">
	</g>
    <path transform="matrix(1 0 0 1 -31.68686 -32.28722)"  d="M584.2038 381.14624C 584.2037 377.8326 582.4164 374.7767 579.5283 373.15216C 580.1266 368.57437 577.2308 364.2648 572.7663 363.08893C 568.30176 361.9131 563.6588 364.23712 561.92456 368.51575C 560.1903 372.79437 561.9047 377.69528 565.928 379.95978C 565.59467 382.3611 566.2455 384.79526 567.7327 386.70984C 565.96344 390.8165 567.40906 395.60052 571.15643 398.04022C 574.9039 400.4799 579.8637 399.86606 582.9032 396.5864C 585.94275 393.30673 586.1784 388.3146 583.4614 384.76318C 583.9522 383.62054 584.20483 382.38983 584.2038 381.14624z" stroke="none" fill="#D0CDE1" fill-rule="nonzero" />
	<g transform="matrix(1 0 0 1 -31.68686 -32.28722)">
	</g>
    <path transform="matrix(1 0 0 1 -31.68686 -32.28722)"  d="M601.41724 288.1937C 596.347 288.19366 592.23676 292.30392 592.2367 297.37418C 588.0367 297.37683 584.37463 300.23077 583.346 304.3029C 578.6989 304.73505 575.1161 308.58566 575.01935 313.25174C 574.9226 317.91785 578.34283 321.91364 582.96796 322.53802C 587.59314 323.1624 591.95044 320.21658 593.0945 315.6919C 597.81085 315.25006 601.4164 311.29172 601.41724 306.5547C 606.4875 306.5547 610.5977 302.44446 610.5977 297.3742C 610.5977 292.30396 606.4875 288.19373 601.41724 288.1937z" stroke="none" fill="#D0CDE1" fill-rule="nonzero" />
    <path d="M382.67767 403.94202C 382.67767 402.04068 382.00546 400.4178 380.661 399.0733C 379.31656 397.72888 377.69366 397.05664 375.7923 397.05664C 373.89096 397.05664 372.26807 397.72888 370.92358 399.0733C 369.57916 400.4178 368.90692 402.04068 368.90692 403.94202C 368.90692 405.84338 369.57916 407.4663 370.92358 408.81073C 372.26807 410.1552 373.89096 410.82742 375.7923 410.8274C 377.69366 410.82742 379.31656 410.1552 380.661 408.81073C 382.00546 407.4663 382.67767 405.84338 382.67767 403.94202" stroke="none" fill="#D0CDE1" fill-rule="nonzero" />
	<g>
	</g>
    <path d="M457.26923 486.56653C 457.26923 484.6652 456.59702 483.0423 455.25256 481.6978C 453.9081 480.3534 452.28522 479.68115 450.38385 479.68115C 448.4825 479.68115 446.85962 480.3534 445.51514 481.6978C 444.17072 483.0423 443.49847 484.6652 443.49847 486.56653C 443.49847 488.4679 444.17072 490.09082 445.51514 491.43524C 446.85962 492.77972 448.4825 493.45193 450.38385 493.4519C 452.28522 493.45193 453.9081 492.77972 455.25256 491.43524C 456.59702 490.09082 457.26923 488.4679 457.26923 486.56653" stroke="none" fill="#D0CDE1" fill-rule="nonzero" />
	<g>
	</g>
    <path d="M794.6526 168.6917C 794.65265 166.15659 793.75635 163.9927 791.9637 162.2001C 790.17114 160.4075 788.00726 159.5112 785.4721 159.5112C 782.937 159.5112 780.7732 160.4075 778.9805 162.2001C 777.188 163.9927 776.2916 166.15659 776.2916 168.6917C 776.2916 171.22684 777.188 173.39069 778.9805 175.18329C 780.7732 176.97589 782.937 177.8722 785.4721 177.8722C 788.00726 177.8722 790.17114 176.97589 791.9637 175.18329C 793.75635 173.39069 794.65265 171.22684 794.6526 168.6917" stroke="none" fill="#D0CDE1" fill-rule="nonzero" />
	<g>
	</g>
    <path d="M862.3588 63.11594C 862.3588 61.214596 861.68665 59.591698 860.34216 58.247242C 858.9977 56.90279 857.3748 56.23056 855.47345 56.23056C 853.57214 56.23056 851.9492 56.90279 850.60474 58.247242C 849.2603 59.591698 848.58813 61.214596 848.5881 63.11594C 848.58813 65.01729 849.2603 66.64018 850.60474 67.98464C 851.9492 69.3291 853.57214 70.00133 855.47345 70.00132C 857.3748 70.00133 858.9977 69.3291 860.34216 67.98464C 861.68665 66.64018 862.3588 65.01729 862.3588 63.11594" stroke="none" fill="#D0CDE1" fill-rule="nonzero" />
	<g>
	</g>
    <path d="M936.9504 145.74045C 936.95044 143.83911 936.2782 142.21622 934.9337 140.87175C 933.5893 139.52731 931.9664 138.85507 930.065 138.85507C 928.1637 138.85507 926.5408 139.52731 925.1963 140.87175C 923.8519 142.21622 923.1797 143.83911 923.1796 145.74045C 923.1797 147.6418 923.8519 149.2647 925.1963 150.60915C 926.5408 151.9536 928.1637 152.62582 930.065 152.62582C 931.9664 152.62582 933.5893 151.9536 934.9337 150.60915C 936.2782 149.2647 936.95044 147.6418 936.9504 145.74045" stroke="none" fill="#D0CDE1" fill-rule="nonzero" />
	<g>
	</g>
    <path d="M1032.1981 335.08826C 1032.1981 332.55316 1031.3018 330.38928 1029.5092 328.59665C 1027.7166 326.80405 1025.5527 325.90775 1023.0176 325.90775C 1020.4825 325.90775 1018.3186 326.80405 1016.526 328.59665C 1014.7334 330.38928 1013.83716 332.55316 1013.8371 335.08826C 1013.83716 337.62338 1014.7334 339.78723 1016.526 341.57986C 1018.3186 343.37247 1020.4825 344.26877 1023.0176 344.26877C 1025.5527 344.26877 1027.7166 343.37247 1029.5092 341.57986C 1031.3018 339.78723 1032.1981 337.62338 1032.1981 335.08826" stroke="none" fill="#D0CDE1" fill-rule="nonzero" />
	<g>
	</g>
    <path d="M906.8845 242.25034C 906.8846 240.349 906.21234 238.72609 904.86786 237.38164C 903.5234 236.03719 901.9005 235.36496 899.99915 235.36496C 898.0979 235.36496 896.475 236.03719 895.13043 237.38164C 893.786 238.72609 893.1138 240.349 893.1138 242.25034C 893.1138 244.1517 893.786 245.7746 895.13043 247.11903C 896.475 248.4635 898.0979 249.13573 899.99915 249.13571C 901.9005 249.13573 903.5234 248.4635 904.86786 247.11903C 906.21234 245.7746 906.8846 244.1517 906.8845 242.25034" stroke="none" fill="#D0CDE1" fill-rule="nonzero" />
	<g>
	</g>
    <path d="M715.47076 486.56653C 715.4708 484.03143 714.57446 481.86755 712.78186 480.07492C 710.98926 478.28235 708.82544 477.38605 706.2903 477.38602C 703.7552 477.38605 701.5913 478.28235 699.7987 480.07492C 698.0061 481.86755 697.1098 484.03143 697.1098 486.56653C 697.1098 489.10165 698.0061 491.26553 699.7987 493.05814C 701.5913 494.85077 703.7552 495.74707 706.2903 495.74704C 708.82544 495.74707 710.98926 494.85077 712.78186 493.05814C 714.57446 491.26553 715.4708 489.10165 715.47076 486.56653" stroke="none" fill="#D0CDE1" fill-rule="nonzero" />
	<g>
	</g>
    <path d="M822.19415 496.8946C 822.1942 494.99326 821.522 493.37036 820.1775 492.02588C 818.83307 490.68146 817.21014 490.00922 815.3088 490.00922C 813.4075 490.00922 811.78455 490.68146 810.44006 492.02588C 809.0957 493.37036 808.42346 494.99326 808.4234 496.8946C 808.42346 498.79596 809.0957 500.41888 810.44006 501.7633C 811.78455 503.1078 813.4075 503.78 815.3088 503.77997C 817.21014 503.78 818.83307 503.1078 820.1775 501.7633C 821.522 500.41888 822.1942 498.79596 822.19415 496.8946" stroke="none" fill="#D0CDE1" fill-rule="nonzero" />
	<g>
	</g>
    <path d="M148.57489 195.08565C 148.57489 192.55052 147.67859 190.38666 145.88599 188.59406C 144.09338 186.80145 141.92952 185.90515 139.3944 185.90515C 136.85927 185.90515 134.6954 186.80145 132.9028 188.59406C 131.1102 190.38666 130.2139 192.55052 130.2139 195.08565C 130.2139 197.62077 131.1102 199.78464 132.9028 201.57724C 134.6954 203.36984 136.85927 204.26614 139.3944 204.26614C 141.92952 204.26614 144.09338 203.36984 145.88599 201.57724C 147.67859 199.78464 148.57489 197.62077 148.57489 195.08565" stroke="none" fill="#D0CDE1" fill-rule="nonzero" />
	<g>
	</g>
    <path d="M137.09926 123.93676C 137.09926 122.035416 136.42703 120.41251 135.08258 119.06806C 133.73813 117.72361 132.11523 117.051384 130.21388 117.05138C 128.31255 117.051384 126.689644 117.72361 125.345184 119.06806C 124.00074 120.41251 123.328514 122.035416 123.32851 123.93676C 123.328514 125.83811 124.00074 127.46101 125.345184 128.80547C 126.689644 130.14993 128.31255 130.82214 130.21388 130.82214C 132.11523 130.82214 133.73813 130.14993 135.08258 128.80547C 136.42703 127.46101 137.09926 125.83811 137.09926 123.93676" stroke="none" fill="#D0CDE1" fill-rule="nonzero" />
	<g>
	</g>
    <path d="M130.2139 626.56915C 130.2139 624.66785 129.54167 623.0449 128.19722 621.70044C 126.85277 620.356 125.22987 619.6838 123.32852 619.6838C 121.427185 619.6838 119.80428 620.356 118.45982 621.70044C 117.11538 623.0449 116.44315 624.66785 116.443146 626.56915C 116.44315 628.47046 117.11538 630.0934 118.45982 631.43787C 119.80428 632.78235 121.427185 633.4546 123.32852 633.4545C 125.22987 633.4546 126.85277 632.78235 128.19722 631.43787C 129.54167 630.0934 130.2139 628.47046 130.2139 626.56915" stroke="none" fill="#D0CDE1" fill-rule="nonzero" />
	<g>
	</g>
    <path d="M398.74353 648.37286C 398.74356 646.47156 398.07135 644.84863 396.72687 643.50415C 395.38245 642.1597 393.75952 641.4875 391.85815 641.4875C 389.95682 641.4875 388.33392 642.1597 386.98944 643.50415C 385.64502 644.84863 384.97278 646.47156 384.97278 648.37286C 384.97278 650.2742 385.64502 651.8971 386.98944 653.2416C 388.33392 654.58606 389.95682 655.25824 391.85815 655.25824C 393.75952 655.25824 395.38245 654.58606 396.72687 653.2416C 398.07135 651.8971 398.74356 650.2742 398.74353 648.37286" stroke="none" fill="#D0CDE1" fill-rule="nonzero" />
	<g>
	</g>
    <path d="M955.3114 515.2556C 955.3114 512.7205 954.4151 510.55664 952.6225 508.764C 950.8299 506.97144 948.666 506.07513 946.1309 506.0751C 943.5958 506.07513 941.432 506.97144 939.63934 508.764C 937.8468 510.55664 936.9505 512.7205 936.95044 515.2556C 936.9505 517.7908 937.8468 519.9546 939.63934 521.7472C 941.432 523.5398 943.5958 524.43616 946.1309 524.4361C 948.666 524.43616 950.8299 523.5398 952.6225 521.7472C 954.4151 519.9546 955.3114 517.7908 955.3114 515.2556" stroke="none" fill="#D0CDE1" fill-rule="nonzero" />
	<g>
	</g>
    <path d="M1084.986 574.92883C 1084.986 573.0275 1084.3137 571.40466 1082.9692 570.0601C 1081.6249 568.7157 1080.002 568.04346 1078.1006 568.04346C 1076.1992 568.04346 1074.5764 568.7157 1073.2319 570.0601C 1071.8875 571.40466 1071.2152 573.0275 1071.2152 574.92883C 1071.2152 576.8302 1071.8875 578.45306 1073.2319 579.79755C 1074.5764 581.142 1076.1992 581.8142 1078.1006 581.8142C 1080.002 581.8142 1081.6249 581.142 1082.9692 579.79755C 1084.3137 578.45306 1084.986 576.8302 1084.986 574.92883" stroke="none" fill="#D0CDE1" fill-rule="nonzero" />
	<g>
	</g>
    <path d="M326.44708 271.97232C 326.44708 270.07098 325.77487 268.4481 324.43042 267.1036C 323.08597 265.7592 321.46307 265.08698 319.5617 265.08694C 317.66037 265.08698 316.03748 265.7592 314.693 267.1036C 313.34857 268.4481 312.67633 270.07098 312.67633 271.97232C 312.67633 273.87366 313.34857 275.49658 314.693 276.84103C 316.03748 278.1855 317.66037 278.8577 319.5617 278.8577C 321.46307 278.8577 323.08597 278.1855 324.43042 276.84103C 325.77487 275.49658 326.44708 273.87366 326.44708 271.97232" stroke="none" fill="#D0CDE1" fill-rule="nonzero" />
	<g>
	</g>
    <path d="M706.2903 616.2411C 706.2903 613.706 705.394 611.5421 703.6014 609.7495C 701.8088 607.9569 699.6449 607.06067 697.1098 607.0606C 694.5747 607.06067 692.4109 607.9569 690.6182 609.7495C 688.8257 611.5421 687.9293 613.706 687.9293 616.2411C 687.9293 618.77625 688.8257 620.94006 690.6182 622.73267C 692.4109 624.52527 694.5747 625.4216 697.1098 625.4216C 699.6449 625.4216 701.8088 624.52527 703.6014 622.73267C 705.394 620.94006 706.2903 618.77625 706.2903 616.2411" stroke="none" fill="#D0CDE1" fill-rule="nonzero" />
	<g>
	</g>
    <path d="M382.67767 6.88538C 382.67767 4.984035 382.00546 3.3611355 380.661 2.0166812C 379.31656 0.6722271 377.69366 0 375.7923 0C 373.89096 0 372.26807 0.6722271 370.92358 2.0166812C 369.57916 3.3611355 368.90692 4.984035 368.90692 6.88538C 368.90692 8.786725 369.57916 10.409624 370.92358 11.754078C 372.26807 13.098533 373.89096 13.77076 375.7923 13.77076C 377.69366 13.77076 379.31656 13.098533 380.661 11.754078C 382.00546 10.409624 382.67767 8.786725 382.67767 6.88538" stroke="none" fill="#D0CDE1" fill-rule="nonzero" />
	<g>
	</g>
    <path d="M457.26923 89.50988C 457.26923 87.608536 456.59702 85.985634 455.25256 84.64118C 453.9081 83.29673 452.28522 82.6245 450.38385 82.6245C 448.4825 82.6245 446.85962 83.29673 445.51514 84.64118C 444.17072 85.985634 443.49847 87.608536 443.49847 89.50988C 443.49847 91.411224 444.17072 93.03413 445.51514 94.37858C 446.85962 95.72304 448.4825 96.39526 450.38385 96.39526C 452.28522 96.39526 453.9081 95.72304 455.25256 94.37858C 456.59702 93.03413 457.26923 91.411224 457.26923 89.50988" stroke="none" fill="#D0CDE1" fill-rule="nonzero" />
	<g>
	</g>
    <path d="M441.20337 179.01976C 441.20337 177.11841 440.53116 175.49551 439.1867 174.15106C 437.84225 172.80661 436.21936 172.13438 434.318 172.13438C 432.41666 172.13438 430.79376 172.80661 429.44928 174.15106C 428.10486 175.49551 427.43262 177.11841 427.43262 179.01976C 427.43262 180.92111 428.10486 182.544 429.44928 183.88846C 430.79376 185.23291 432.41666 185.90514 434.318 185.90514C 436.21936 185.90514 437.84225 185.23291 439.1867 183.88846C 440.53116 182.544 441.20337 180.92111 441.20337 179.01976" stroke="none" fill="#D0CDE1" fill-rule="nonzero" />
	<g>
	</g>
    <path d="M653.50244 67.70619C 653.50244 65.17107 652.60614 63.007202 650.81354 61.2146C 649.02094 59.421997 646.85706 58.525692 644.32196 58.525692C 641.78687 58.525692 639.62305 59.421997 637.8304 61.2146C 636.03784 63.007202 635.1415 65.17107 635.1415 67.70619C 635.1415 70.24132 636.03784 72.40518 637.8304 74.197784C 639.62305 75.99039 641.78687 76.88669 644.32196 76.88669C 646.85706 76.88669 649.02094 75.99039 650.81354 74.197784C 652.60614 72.40518 653.50244 70.24132 653.50244 67.70619" stroke="none" fill="#D0CDE1" fill-rule="nonzero" />
	<g>
	</g>
    <path d="M722.816 274.08698C 722.816 272.18564 722.1438 270.56274 720.7993 269.21826C 719.45483 267.87384 717.832 267.2016 715.9306 267.2016C 714.0293 267.2016 712.4064 267.87384 711.0619 269.21826C 709.71747 270.56274 709.0453 272.18564 709.0452 274.08698C 709.0453 275.98834 709.71747 277.61124 711.0619 278.9557C 712.4064 280.30014 714.0293 280.97235 715.9306 280.97235C 717.832 280.97235 719.45483 280.30014 720.7993 278.9557C 722.1438 277.61124 722.816 275.98834 722.816 274.08698" stroke="none" fill="#D0CDE1" fill-rule="nonzero" />
	<g>
	</g>
    <path d="M889.9003 397.05664C 889.9004 395.15533 889.22815 393.5324 887.88367 392.18793C 886.53925 390.8435 884.9163 390.1713 883.01495 390.17126C 881.11365 390.1713 879.4907 390.8435 878.14624 392.18793C 876.8019 393.5324 876.12964 395.15533 876.1296 397.05664C 876.12964 398.958 876.8019 400.5809 878.14624 401.92535C 879.4907 403.2698 881.11365 403.94202 883.01495 403.94202C 884.9163 403.94202 886.53925 403.2698 887.88367 401.92535C 889.22815 400.5809 889.9004 398.958 889.9003 397.05664" stroke="none" fill="#D0CDE1" fill-rule="nonzero" />
	<g>
	</g>
    <path d="M187.59203 393.61398C 187.59204 391.71265 186.9198 390.08975 185.57535 388.74527C 184.2309 387.40085 182.608 386.72864 180.70665 386.7286C 178.8053 386.72864 177.1824 387.40085 175.83795 388.74527C 174.4935 390.08975 173.82127 391.71265 173.82127 393.61398C 173.82127 395.51532 174.4935 397.13824 175.83795 398.4827C 177.1824 399.82715 178.8053 400.49936 180.70665 400.49936C 182.608 400.49936 184.2309 399.82715 185.57535 398.4827C 186.9198 397.13824 187.59204 395.51532 187.59203 393.61398" stroke="none" fill="#D0CDE1" fill-rule="nonzero" />
	<g>
	</g>
    <path d="M84.311386 525.5837C 84.311386 523.6824 83.63916 522.05945 82.29471 520.71497C 80.95026 519.37054 79.32736 518.69836 77.42601 518.6983C 75.524666 518.69836 73.901764 519.37054 72.55731 520.71497C 71.21286 522.05945 70.540634 523.6824 70.540634 525.5837C 70.540634 527.48505 71.21286 529.1079 72.55731 530.4524C 73.901764 531.7969 75.524666 532.46906 77.42601 532.46906C 79.32736 532.46906 80.95026 531.7969 82.29471 530.4524C 83.63916 529.1079 84.311386 527.48505 84.311386 525.5837" stroke="none" fill="#D0CDE1" fill-rule="nonzero" />
	<g>
	</g>
    <path d="M355.13614 423.4506C 355.13614 418.38037 353.34354 414.05264 349.75833 410.4674C 346.17313 406.88223 341.8454 405.08963 336.77515 405.0896C 331.7049 405.08963 327.37717 406.88223 323.79196 410.4674C 320.20676 414.05264 318.41415 418.38037 318.41415 423.4506C 318.41415 428.52087 320.20676 432.8486 323.79196 436.43378C 327.37717 440.019 331.7049 441.8116 336.77515 441.81158C 341.8454 441.8116 346.17313 440.019 349.75833 436.43378C 353.34354 432.8486 355.13614 428.52087 355.13614 423.4506" stroke="none" fill="#D0CDE1" fill-rule="nonzero" />
	<g>
	</g>
	<g>
	</g>
    <path d="M878.998 644.93L889.327 634.602L895.064 640.34L885.884 655.258L878.998 644.93L878.998 644.93" stroke="none" fill="#FFB8B8" fill-rule="nonzero" />
	<g transform="matrix(1 0 0 1 -31.68686 -32.28722)">
	</g>
    <path transform="matrix(1 0 0 1 -31.68686 -32.28722)"  d="M915.2756 666.88934L922.16095 662.2991C 922.16095 662.2991 939.3744 639.34784 946.25977 650.8234C 953.14514 662.299 933.6366 673.77466 933.6366 673.77466L933.6366 673.77466L927.8988 680.66003L915.2756 666.88934z" stroke="none" fill="#FF6584" fill-rule="nonzero" />
	<g transform="matrix(1 0 0 1 -31.68686 -32.28722)">
	</g>
    <path transform="matrix(1 0 0 1 -31.68686 -32.28722)"  d="M915.2756 666.88934L922.16095 662.2991C 922.16095 662.2991 939.3744 639.34784 946.25977 650.8234C 953.14514 662.299 933.6366 673.77466 933.6366 673.77466L933.6366 673.77466L927.8988 680.66003L915.2756 666.88934z" stroke="none" fill="#000000" fill-rule="nonzero" fill-opacity="0.14901961" />
	<g>
	</g>
    <path d="M821.62 656.406L858.342 656.406L880.146 641.487L892.769 658.701L862.933 681.652L831.948 687.39L821.62 656.406L821.62 656.406" stroke="none" fill="#055254" fill-rule="nonzero" />
	<g>
	</g>
    <path d="M821.62 656.406L858.342 656.406L880.146 641.487L892.769 658.701L862.933 681.652L831.948 687.39L821.62 656.406L821.62 656.406" stroke="none" fill="#000000" fill-rule="nonzero" fill-opacity="0.14901961" />
	<g transform="matrix(1 0 0 1 -31.68686 -32.28722)">
	</g>
    <path transform="matrix(1 0 0 1 -31.68686 -32.28722)"  d="M868.2255 753.5303C 868.2255 753.5303 901.5048 790.25226 895.767 799.4328C 890.02924 808.61334 877.406 808.6133 875.1109 807.46576C 872.8158 806.31824 839.53644 787.9572 839.53644 787.9572L839.53644 787.9572L844.1267 773.0389C 844.1267 773.0389 837.24133 756.973 844.1267 755.82544C 851.0121 754.67786 868.2255 753.5303 868.2255 753.5303z" stroke="none" fill="#2F2E41" fill-rule="nonzero" />
	<g transform="matrix(1 0 0 1 -31.68686 -32.28722)">
	</g>
    <path transform="matrix(1 0 0 1 -31.68686 -32.28722)"  d="M846.4218 773.0389C 846.4218 773.0389 824.61816 755.82544 820.0279 759.2681C 815.4376 762.7108 800.51935 784.5145 802.81445 794.8426C 805.10956 805.17065 802.81445 808.61334 809.6998 807.46576C 816.5852 806.3182 817.7328 794.8426 817.7328 794.8426L817.7328 794.8426L841.8316 785.6621L846.4218 773.0389z" stroke="none" fill="#2F2E41" fill-rule="nonzero" />
	<g transform="matrix(0.5368754 -0.84366155 0.84366155 0.5368754 -292.51794 1061.5928)">
	</g>
    <path d="M821.31226 744.6784L821.92847 743.7101L847.1748 759.77594L846.5586 760.74426z" stroke="none" fill="#000000" fill-rule="nonzero" fill-opacity="0.14901961" />
    <path d="M838.8338 612.2247C 838.8338 607.4713 837.15326 603.41406 833.7921 600.0529C 830.431 596.6918 826.3738 595.0112 821.62036 595.0112C 816.867 595.0112 812.80975 596.6918 809.4486 600.0529C 806.0875 603.41406 804.407 607.4713 804.4069 612.2247C 804.407 616.978 806.0875 621.0353 809.4486 624.3964C 812.80975 627.75757 816.867 629.4381 821.62036 629.4381C 826.3738 629.4381 830.431 627.75757 833.7921 624.3964C 837.15326 621.0353 838.8338 616.978 838.8338 612.2247" stroke="none" fill="#FFB8B8" fill-rule="nonzero" />
	<g>
	</g>
	<g transform="matrix(1 0 0 1 -31.68686 -32.28722)">
	</g>
    <path transform="matrix(1 0 0 1 -31.68686 -32.28722)"  d="M832.65106 664.02045C 832.65106 664.02045 828.0608 675.4961 828.0608 703.0376C 828.0608 730.5791 811.995 743.2023 824.61816 756.973C 837.24133 770.7438 887 762 887 762C 887 762 886.4634 762.4253 886.58655 761.56323C 887.73413 753.5303 875.1109 669.75824 870.5207 668.61066C 865.9305 667.4631 832.65106 664.02045 832.65106 664.02045z" stroke="none" fill="#055254" fill-rule="nonzero" />
	<g>
	</g>
    <path d="M878.998 625.995L889.327 615.667L895.064 621.405L885.884 636.323L878.998 625.995L878.998 625.995" stroke="none" fill="#FFB8B8" fill-rule="nonzero" />
	<g transform="matrix(1 0 0 1 -31.68686 -32.28722)">
	</g>
    <path transform="matrix(1 0 0 1 -31.68686 -32.28722)"  d="M820.529 643.156C 816.72833 643.71313 812.53217 644.13794 809.8413 645.2981C 806.3109 646.82025 806.5168 649.1044 807.4751 651.09845C 808.4334 653.0925 809.9326 655.16925 808.3327 657.1033C 807.4028 658.2274 805.4997 659.19183 804.0143 660.2267C 802.5289 661.26154 801.4356 662.47766 802.3134 663.6079C 803.2305 664.78864 806.0391 665.5877 808.01196 666.5652C 812.27466 668.67725 812.33514 671.86487 808.153 674C 811.7525 671.8337 818.6207 670.8681 824.92053 669.94574C 831.22034 669.0234 837.9894 667.79877 840.6312 665.4425C 843.3254 663.03955 840.8201 660.24176 842.2184 657.6851C 843.41376 655.49945 847.3176 653.69867 850.4367 651.8055C 853.5558 649.9123 856.0126 647.5788 853.96063 645.4866C 852.44653 643.94275 848.57166 642.59515 849.30853 640.9719C 849.76434 639.9679 851.8972 639.2185 853.42896 638.3814C 854.9607 637.5443 855.8148 636.2918 853.8851 635.5828C 846.8768 636.8468 839.7424 638.0419 832.831 639.38007C 828.5681 640.2054 826.04364 643.156 820.529 643.156z" stroke="none" fill="#2F2E41" fill-rule="nonzero" />
	<g>
	</g>
    <path d="M821.62 637.471L858.342 637.471L880.146 622.553L892.769 639.766L862.933 662.717L831.948 668.455L821.62 637.471L821.62 637.471" stroke="none" fill="#055254" fill-rule="nonzero" />
	<g transform="matrix(1 0 0 1 -31.68686 -32.28722)">
	</g>
    <path transform="matrix(1 0 0 1 -31.68686 -32.28722)"  d="M946.1378 663.44666C 946.1378 663.44666 978.2696 647.3808 978.2696 641.64294C 978.2696 635.9051 965.6464 618.6917 942.6951 618.6917C 942.6951 618.6917 936.95734 608.36365 930.07196 616.3966C 923.1866 624.42957 933.51465 630.16736 933.51465 630.16736C 933.51465 630.16736 920.8915 650.8235 939.25244 663.44666L939.25244 663.44666L946.1378 663.44666z" stroke="none" fill="#055254" fill-rule="nonzero" />
    <path d="M651.20734 424.59818C 651.2074 419.52795 649.4148 415.2002 645.8295 411.615C 642.24426 408.0298 637.91656 406.23718 632.8463 406.23718C 627.7761 406.23718 623.44836 408.0298 619.8631 411.615C 616.2779 415.2002 614.4853 419.52795 614.4853 424.59818C 614.4853 429.66846 616.2779 433.99615 619.8631 437.58136C 623.44836 441.16656 627.7761 442.95917 632.8463 442.95917C 637.91656 442.95917 642.24426 441.16656 645.8295 437.58136C 649.4148 433.99615 651.2074 429.66846 651.20734 424.59818" stroke="none" fill="#FF6584" fill-rule="nonzero" />
	<g>
	</g>
	<g>
	</g>
    <path d="M620.705 424.859L615.45 417.842L616.369 417.154L620.889 423.189L628.83 416.384L636.833 423.243L643.748 416.328L651.039 423.619L650.228 424.43L643.748 417.95L636.893 424.805L628.83 417.894L620.705 424.859L620.705 424.859" stroke="none" fill="#575A89" fill-rule="nonzero" />
	<g>
	</g>
    <path d="M619.569 433.933L614.362 426.977L615.163 426.378L619.729 432.477L627.682 425.661L635.689 432.524L642.6 425.612L649.84 432.851L649.132 433.558L642.6 427.026L635.742 433.886L627.682 426.977L619.569 433.933L619.569 433.933" stroke="none" fill="#575A89" fill-rule="nonzero" />
	<g>
	</g>
    <path d="M631.6987 393.0402L632.8463 393.0402L632.8463 406.81094L631.6987 406.81094z" stroke="none" fill="#575A89" fill-rule="nonzero" />
    <path d="M616.78046 274.26746C 616.78046 269.1972 614.98785 264.86948 611.40265 261.28427C 607.81744 257.69907 603.4897 255.90646 598.41943 255.90646C 593.34924 255.90646 589.0215 257.69907 585.4362 261.28427C 581.8511 264.86948 580.0585 269.1972 580.0584 274.26746C 580.0585 279.3377 581.8511 283.66544 585.4362 287.25064C 589.0215 290.83585 593.34924 292.62845 598.41943 292.62845C 603.4897 292.62845 607.81744 290.83585 611.40265 287.25064C 614.98785 283.66544 616.78046 279.3377 616.78046 274.26746" stroke="none" fill="#FF6584" fill-rule="nonzero" />
	<g>
	</g>
	<g>
	</g>
    <path d="M586.278 274.529L581.023 267.511L581.942 266.823L586.462 272.859L594.403 266.053L602.406 272.913L609.321 265.997L616.612 273.288L615.801 274.099L609.321 267.62L602.466 274.475L594.403 267.564L586.278 274.529L586.278 274.529" stroke="none" fill="#575A89" fill-rule="nonzero" />
	<g>
	</g>
    <path d="M585.142 283.601L579.935 276.647L580.736 276.047L585.302 282.147L593.256 275.33L601.262 282.193L608.173 275.282L615.413 282.521L614.706 283.228L608.173 276.696L601.315 283.556L593.256 276.647L585.142 283.601L585.142 283.601" stroke="none" fill="#575A89" fill-rule="nonzero" />
	<g>
	</g>
    <path d="M597.27185 242.70949L598.41943 242.70949L598.41943 256.48022L597.27185 256.48022z" stroke="none" fill="#575A89" fill-rule="nonzero" />
    <path d="M475.63022 430.33597C 475.63025 425.26575 473.83765 420.938 470.2524 417.35278C 466.66724 413.76758 462.33948 411.97498 457.26923 411.97498C 452.19897 411.97498 447.87128 413.76758 444.28604 417.35278C 440.70087 420.938 438.90826 425.26575 438.90823 430.33597C 438.90826 435.40625 440.70087 439.73395 444.28604 443.31915C 447.87128 446.90436 452.19897 448.69696 457.26923 448.69696C 462.33948 448.69696 466.66724 446.90436 470.2524 443.31915C 473.83765 439.73395 475.63025 435.40625 475.63022 430.33597" stroke="none" fill="#FF6584" fill-rule="nonzero" />
	<g>
	</g>
	<g>
	</g>
    <path d="M445.128 430.597L439.873 423.579L440.792 422.891L445.312 428.927L453.253 422.121L461.255 428.981L468.171 422.065L475.462 429.357L474.651 430.168L468.171 423.688L461.316 430.543L453.253 423.632L445.128 430.597L445.128 430.597" stroke="none" fill="#575A89" fill-rule="nonzero" />
	<g>
	</g>
    <path d="M443.992 439.67L438.785 432.716L439.586 432.116L444.152 438.215L452.105 431.399L460.112 438.262L467.024 431.35L474.262 438.589L473.555 439.296L467.024 432.765L460.165 439.623L452.105 432.716L443.992 439.67L443.992 439.67" stroke="none" fill="#575A89" fill-rule="nonzero" />
	<g>
	</g>
    <path d="M456.12167 398.778L457.26923 398.778L457.26923 412.54877L456.12167 412.54877z" stroke="none" fill="#575A89" fill-rule="nonzero" />
	<g>
	</g>
    <path d="M563.405 93.16L547.768 81.426L531.776 92.672L538.104 74.174L522.466 62.439L542.014 62.741L548.342 44.243L554.096 62.928L573.644 63.23L557.652 74.476L563.405 93.16L563.405 93.16" stroke="none" fill="#055254" fill-rule="nonzero" />
	<g transform="matrix(1 0 0 1 -31.68686 -32.28722)">
	</g>
    <path transform="matrix(1 0 0 1 -31.68686 -32.28722)"  d="M788.58 766.7521C 789.07166 756.3135 782.7744 746.74927 772.99115 743.0759C 763.2079 739.4026 752.172 742.4587 745.672 750.6413C 743.1121 746.7362 739.4743 743.65765 735.1997 741.7789C 738.0357 731.041 733.1648 719.75574 723.406 714.4539C 713.64716 709.15216 701.5286 711.20734 694.0634 719.43024C 688.37463 713.79175 681.54553 709.4354 674.0345 706.6536C 675.9534 694.5153 668.4264 682.87885 656.56854 679.6521C 644.7107 676.4253 632.3251 682.64307 627.8287 694.08C 619.1063 688.0124 607.4372 688.3825 599.1169 694.9906C 590.7965 701.5987 587.794 712.88104 591.7291 722.7507C 588.8883 723.79736 586.26996 725.36957 584.01086 727.38513C 572.6048 723.1835 559.85583 728.14246 554.2868 738.947C 552.10535 736.52686 549.4561 734.5738 546.49915 733.2057C 546.57007 732.6159 546.64417 732.02704 546.672 731.4242C 547.1044 722.257 542.2924 713.6399 534.261 709.1991C 526.22955 704.75824 516.373 705.26465 508.83893 710.5051C 501.3049 715.74567 497.40137 724.8105 498.771 733.88513C 487.4996 736.9553 480.1096 747.7362 481.31125 759.35626C 454.26846 760.15 428.18625 761.41736 403.26178 763.1306C 396.98434 741.1537 378.03058 725.16187 355.3106 722.6729C 332.59064 720.18396 310.62415 731.693 299.7376 751.7896C 291.16263 745.2999 279.32462 745.28046 270.7283 751.7418C 262.13196 758.2032 258.85995 769.58 262.7101 779.6211C 261.6192 779.8172 260.5329 780.0144 259.45117 780.21277C 259.4896 779.81287 259.5487 779.4195 259.5675 779.0138C 259.97726 770.40643 255.76 762.2353 248.50668 757.583C 241.25339 752.93066 232.06796 752.5053 224.41571 756.4673C 216.76346 760.42926 211.80904 768.17566 211.42151 776.78406C 211.40994 777.03394 211.42851 777.27747 211.4246 777.52576C 206.95589 775.82904 201.94456 776.3785 197.94958 779.003C 193.95462 781.62756 191.4607 786.00885 191.24368 790.7839C 191.15616 792.6735 788.53656 767.68945 788.58 766.7521z" stroke="none" fill="#D0CDE1" fill-rule="nonzero" />
	<g transform="matrix(1 0 0 1 -31.68686 -32.28722)">
	</g>
    <path transform="matrix(1 0 0 1 -31.68686 -32.28722)"  d="M203.70645 867.4374C 204.61339 867.48193 205.51736 867.57385 206.41469 867.71277L206.41469 867.71277L198.82932 867.71277C 200.4405 867.447 202.07558 867.35474 203.70645 867.4374z" stroke="none" fill="#D0CDE1" fill-rule="nonzero" />
	<g transform="matrix(1 0 0 1 -31.68686 -32.28722)">
	</g>
    <path transform="matrix(1 0 0 1 -31.68686 -32.28722)"  d="M313.22983 867.71277L219.88712 867.71277C 230.32666 852.1604 247.82722 842.83 266.55847 842.83C 285.2897 842.83 302.79028 852.1604 313.22983 867.71277z" stroke="none" fill="#D0CDE1" fill-rule="nonzero" />
	<g transform="matrix(1 0 0 1 -31.68686 -32.28722)">
	</g>
    <path transform="matrix(1 0 0 1 -31.68686 -32.28722)"  d="M125.02956 867.71277L31.68686 867.71277C 42.126408 852.16046 59.626976 842.8301 78.35821 842.8301C 97.08944 842.8301 114.59001 852.16046 125.02956 867.71277z" stroke="none" fill="#D0CDE1" fill-rule="nonzero" />
	<g transform="matrix(1 0 0 1 -31.68686 -32.28722)">
	</g>
    <path transform="matrix(1 0 0 1 -31.68686 -32.28722)"  d="M180.11256 867.71277L86.76987 867.71277C 97.20943 852.16046 114.70999 842.8301 133.44122 842.8301C 152.17245 842.8301 169.67302 852.16046 180.11256 867.71277z" stroke="none" fill="#D0CDE1" fill-rule="nonzero" />
	<g transform="matrix(1 0 0 1 -31.68686 -32.28722)">
	</g>
    <path transform="matrix(1 0 0 1 -31.68686 -32.28722)"  d="M439.4617 814.9249L346.119 814.9249C 356.55856 799.3726 374.0591 790.04224 392.79034 790.04224C 411.52158 790.04224 429.02213 799.3726 439.46167 814.9249L439.46167 814.9249L439.4617 814.9249z" stroke="none" fill="#D0CDE1" fill-rule="nonzero" />
	<g transform="matrix(1 0 0 1 -31.68686 -32.28722)">
	</g>
    <path transform="matrix(1 0 0 1 -31.68686 -32.28722)"  d="M813.56714 841.31885L720.2244 841.31885C 730.66394 825.7665 748.1645 816.4361 766.89575 816.4361C 785.627 816.4361 803.12756 825.7665 813.56714 841.31885z" stroke="none" fill="#D0CDE1" fill-rule="nonzero" />
	<g transform="matrix(1 0 0 1 -31.68686 -32.28722)">
	</g>
    <path transform="matrix(1 0 0 1 -31.68686 -32.28722)"  d="M652.57556 862.2733C 655.4915 863.563 658.1269 865.4109 660.3331 867.71277L660.3331 867.71277L400.65112 867.71277C 403.5901 861.19635 409.2619 856.3144 416.14322 854.3781C 415.90652 852.8256 415.8258 851.2533 415.90228 849.6846C 416.3 841.0837 421.2567 833.3486 428.90485 829.39374C 436.55295 825.43896 445.73007 825.86554 452.97833 830.51276C 460.22656 835.16003 464.44437 843.32166 464.04248 851.9223C 464.0196 852.51904 463.95074 853.10425 463.8704 853.701C 466.82993 855.0655 469.48096 857.01764 471.66232 859.4388C 477.2357 848.6403 489.98032 843.6852 501.38422 847.8828C 503.64334 845.86444 506.26373 844.29144 509.1073 843.2467C 507.834 840.07465 507.25867 836.6656 507.4204 833.2514C 507.81464 824.4924 512.9401 816.64044 520.7999 812.7547C 528.6598 808.86896 538.01074 809.564 545.20966 814.56915C 549.52637 803.60376 561.1428 797.3713 572.6662 799.83813C 584.18964 802.305 592.2366 812.7469 591.6859 824.5185C 591.64075 825.3987 591.5488 826.2759 591.4105 827.14636C 598.91907 829.92896 605.7464 834.2836 611.4354 839.91876C 618.8965 831.67834 631.02734 829.61316 640.7948 834.9206C 650.5623 840.228 655.42993 851.5297 652.57556 862.2733z" stroke="none" fill="#D0CDE1" fill-rule="nonzero" />
	<g transform="matrix(1 0 0 1 -31.68686 -32.28722)">
	</g>
    <path transform="matrix(1 0 0 1 -31.68686 -32.28722)"  d="M909.664 867.71277L865.3681 867.71277C 869.1618 858.8492 877.8747 853.10095 887.51605 853.10095C 897.1574 853.10095 905.8703 858.8492 909.664 867.71277z" stroke="none" fill="#D0CDE1" fill-rule="nonzero" />
	<g transform="matrix(1 0 0 1 -31.68686 -32.28722)">
	</g>
    <path transform="matrix(1 0 0 1 -31.68686 -32.28722)"  d="M1095.8445 867.71277L955.9911 867.71277C 955.1794 865.10455 954.8336 862.37366 954.9698 859.6454C 955.364 850.88635 960.4895 843.0344 968.3493 839.1486C 976.2091 835.2629 985.56006 835.95795 992.759 840.9631C 997.0757 829.9977 1008.69214 823.7652 1020.2155 826.23206C 1031.739 828.6989 1039.7859 839.1408 1039.2352 850.9124C 1039.1901 851.7926 1039.0981 852.6698 1038.9598 853.5403C 1046.4684 856.3228 1053.2958 860.6775 1058.9847 866.3127C 1063.7671 861.04626 1070.6318 858.16187 1077.7406 858.4319C 1084.8492 858.70184 1091.4753 862.09875 1095.8445 867.71277z" stroke="none" fill="#D0CDE1" fill-rule="nonzero" />
	<g transform="matrix(1 0 0 1 -31.68686 -32.28722)">
	</g>
    <path transform="matrix(1 0 0 1 -31.68686 -32.28722)"  d="M697.4223 867.71277L666.3922 867.71277C 675.34814 860.1365 688.4663 860.1365 697.4223 867.71277z" stroke="none" fill="#D0CDE1" fill-rule="nonzero" />
    <path d="M276.51578 482.12958C 276.51578 476.48355 274.5196 471.66434 270.52722 467.67197C 266.53488 463.6796 261.71567 461.6834 256.0696 461.6834C 250.42355 461.6834 245.60434 463.6796 241.61198 467.67197C 237.61963 471.66434 235.62346 476.48355 235.62344 482.12958C 235.62346 487.77567 237.61963 492.59485 241.61198 496.5872C 245.60434 500.5796 250.42355 502.57574 256.0696 502.57574C 261.71567 502.57574 266.53488 500.5796 270.52722 496.5872C 274.5196 492.59485 276.51578 487.77567 276.51578 482.12958" stroke="none" fill="#A0616A" fill-rule="nonzero" />
	<g>
	</g>
	<g transform="matrix(1 0 0 1 -31.68686 -32.28722)">
	</g>
    <path transform="matrix(1 0 0 1 -31.68686 -32.28722)"  d="M292.5672 488.34604C 299.8519 488.8024 306.6109 492.18076 312.92798 495.83722C 311.8485 495.2919 310.53644 495.55084 309.74506 496.46536C 308.90225 497.2825 308.3725 498.3738 307.56134 499.22235C 306.05368 500.79953 303.79214 501.34525 301.66235 501.8191L301.66235 501.8191L291.73596 504.02756L282.52957 506.07584C 280.24213 506.7383 277.84924 506.95822 275.4793 506.72375C 273.13596 506.33746 270.81653 504.82568 270.2042 502.53116C 269.35345 499.34332 275.69125 494.59915 278.0153 492.67966C 282.16028 489.47968 287.34692 487.9351 292.5672 488.34604z" stroke="none" fill="#2F2E41" fill-rule="nonzero" />
	<g transform="matrix(1 0 0 1 -31.68686 -32.28722)">
	</g>
    <path transform="matrix(1 0 0 1 -31.68686 -32.28722)"  d="M273.86423 505.07535C 278.15573 499.04898 284.85373 495.13092 291.5724 491.75162C 290.44193 492.199 290.15482 493.6635 290.45792 494.85336C 290.76102 496.0432 291.48254 497.1183 291.8314 498.29865C 292.47974 500.49252 291.77927 502.75266 291.08276 504.8585L291.08276 504.8585L287.83655 514.67303L284.8258 523.7757C 284.22266 526.1167 283.15036 528.31085 281.67395 530.22516C 280.06143 532.1757 277.46964 533.02313 275.01627 532.4019C 271.63385 531.33057 270.6418 523.176 270.11276 520.084C 269.35278 514.783 270.69946 509.39523 273.86423 505.07535z" stroke="none" fill="#2F2E41" fill-rule="nonzero" />
	<g transform="matrix(1 0 0 1 -31.68686 -32.28722)">
	</g>
    <path transform="matrix(1 0 0 1 -31.68686 -32.28722)"  d="M376.75742 498.7815C 376.75742 498.7815 377.9601 472.32175 383.9737 473.5245C 389.98727 474.72726 385.17642 501.18695 385.17642 501.18695L385.17642 501.18695L376.75742 498.7815z" stroke="none" fill="#A0616A" fill-rule="nonzero" />
	<g transform="matrix(1 0 0 1 -31.68686 -32.28722)">
	</g>
    <path transform="matrix(1 0 0 1 -31.68686 -32.28722)"  d="M375.55664 544.48553L348.53418 564.05646L340.6743 569.74493L320.23108 540.87573L332.99066 535.8461L359.92035 525.23944L375.5566 493.96686L388.78018 497.57666C 391.193 503.5899 375.55664 544.48553 375.55664 544.48553z" stroke="none" fill="#575A89" fill-rule="nonzero" />
	<g transform="matrix(1 0 0 1 -31.68686 -32.28722)">
	</g>
    <path transform="matrix(1 0 0 1 -31.68686 -32.28722)"  d="M333.45966 492.7679C 333.45966 492.7679 329.8515 461.4973 337.0678 463.90274C 344.28412 466.30817 343.0814 496.37607 343.0814 496.37607L343.0814 496.37607L333.45966 492.7679z" stroke="none" fill="#A0616A" fill-rule="nonzero" />
	<g>
	</g>
    <path d="M246.996 740.808L240.056 758.957L259.389 764.676L259.021 740.625L246.996 740.808L246.996 740.808" stroke="none" fill="#575A89" fill-rule="nonzero" />
	<g>
	</g>
    <path d="M304.028 616.042L284.798 695.725L266.329 746.527L242.277 746.895L264.133 681.606L272.651 609.305L304.028 616.042L304.028 616.042" stroke="none" fill="#2F2E41" fill-rule="nonzero" />
	<g transform="matrix(1 0 0 1 -31.68686 -32.28722)">
	</g>
    <path transform="matrix(1 0 0 1 -31.68686 -32.28722)"  d="M269.048 789.26654C 269.048 789.26654 261.72583 804.85254 266.66315 806.98645C 271.60046 809.12036 285.01068 811.98645 285.01068 811.98645L285.01068 811.98645L286.85168 810.4383C 286.85168 810.4383 317.83536 817.3838 323.02362 806.7351C 328.21188 796.0864 303.86014 791.42126 303.86014 791.42126L303.86014 791.42126L292.73022 781.9233L279.362 788.4506L269.048 789.26654z" stroke="none" fill="#2F2E41" fill-rule="nonzero" />
	<g>
	</g>
    <path d="M221.686 737.587L214.747 755.736L234.08 761.455L233.712 737.403L221.686 737.587L221.686 737.587" stroke="none" fill="#575A89" fill-rule="nonzero" />
	<g>
	</g>
    <path d="M245.978 611.51L238.879 681.993L216.913 740.066L237.467 746.968L268.999 685.141L283.547 613.95L245.978 611.51L245.978 611.51" stroke="none" fill="#2F2E41" fill-rule="nonzero" />
	<g transform="matrix(1 0 0 1 -31.68686 -32.28722)">
	</g>
    <path transform="matrix(1 0 0 1 -31.68686 -32.28722)"  d="M242.43832 786.7157C 242.43832 786.7157 230.96286 799.5551 235.08324 803.01245C 239.20361 806.4698 251.23323 813.0529 251.23323 813.0529L251.23323 813.0529L253.44023 812.09625C 253.44023 812.09625 281.14142 827.6163 289.15955 818.8973C 297.17767 810.1783 275.1787 798.7406 275.1787 798.7406L275.1787 798.7406L267.2316 786.45526L252.5546 788.8849L242.43832 786.7157z" stroke="none" fill="#2F2E41" fill-rule="nonzero" />
	<g transform="matrix(1 0 0 1 -31.68686 -32.28722)">
	</g>
    <path transform="matrix(1 0 0 1 -31.68686 -32.28722)"  d="M348.53418 564.05646L340.6743 569.74493L320.23108 540.87573L325.91953 539.86426C 326.23505 540.3839 331.16254 540.25397 331.48734 540.79224C 337.45422 550.5637 346.05652 558.8227 348.53418 564.05646z" stroke="none" fill="#000000" fill-rule="nonzero" fill-opacity="0.14901961" />
	<g transform="matrix(1 0 0 1 -31.68686 -32.28722)">
	</g>
    <path transform="matrix(1 0 0 1 -31.68686 -32.28722)"  d="M361.1824 660.50037C 359.79004 659.59973 359.4658 650.187 357.47052 649.36475C 356.458 648.94745 353.97998 657.09186 352.8314 656.69446C 323.01102 646.37665 256.35016 668.49475 245.18617 643.79694C 237.68027 627.1918 285.34872 594.99493 285.34872 582.9685C 285.1914 579.906 284.63614 576.877 283.6969 573.9579C 281.42337 565.9959 277.19183 555.9738 273.7769 548.4109C 270.85376 541.93365 268.51532 537.266 268.51532 537.266C 268.51532 537.266 303.5833 526.84485 314.82098 522.8175C 316.2501 522.30707 317.28943 521.8988 317.82767 521.6297C 319.9805 520.5533 325.51123 528.1627 331.18112 537.43304C 338.1595 548.8564 345.36053 562.81305 346.68753 566.13513C 349.09094 572.1483 381.6256 673.73315 361.1824 660.50037z" stroke="none" fill="#575A89" fill-rule="nonzero" />
	<g transform="matrix(1 0 0 1 -31.68686 -32.28722)">
	</g>
    <path transform="matrix(1 0 0 1 -31.68686 -32.28722)"  d="M326.84753 535.2244C 313.82816 550.8978 299.81577 569.6335 287.75217 573.17834C 286.43088 573.57715 285.07193 573.8384 283.69696 573.9579C 281.42343 565.9959 277.1919 555.9738 273.77695 548.4109C 275.16693 546.88495 276.8324 545.6351 278.68588 544.72687L278.68588 544.72687L311.304 528.673L314.82098 522.8175C 316.2501 522.30707 317.28943 521.8988 317.82767 521.6297C 319.98053 520.5532 321.17764 525.954 326.84753 535.2244z" stroke="none" fill="#000000" fill-rule="nonzero" fill-opacity="0.14901961" />
	<g transform="matrix(1 0 0 1 -31.68686 -32.28722)">
	</g>
    <path transform="matrix(1 0 0 1 -31.68686 -32.28722)"  d="M278.6852 540.08777C 269.7765 544.4733 266.53055 555.87115 272.30206 563.9513C 275.29706 568.14435 280.08917 570.79407 287.75647 568.539C 308.20264 562.52545 346.68954 519.22766 346.68954 505.9978L346.68954 505.9978L346.68954 493.97064L332.25696 489.15976L311.30295 524.03076L278.6852 540.08777z" stroke="none" fill="#575A89" fill-rule="nonzero" />
	<g transform="matrix(0.8139616 -0.58091867 0.58091867 0.8139616 -285.4246 260.6943)">
	</g>
    <path transform="matrix(0.8139616 -0.58091867 0.58091867 0.8139616 -285.4246 260.6943)"  d="M328.7035 542.6482C 328.7035 540.5982 329.53442 538.93634 330.55942 538.93634C 331.5844 538.93634 332.41534 540.5982 332.41534 542.6482C 332.41534 544.6982 331.5844 546.36005 330.55942 546.36005C 329.53442 546.36005 328.7035 544.6982 328.7035 542.6482" stroke="none" fill="#2F2E41" fill-rule="nonzero" />
	<g transform="matrix(0.8139616 -0.58091867 0.58091867 0.8139616 -290.31857 265.82776)">
	</g>
    <path transform="matrix(0.8139616 -0.58091867 0.58091867 0.8139616 -290.31857 265.82776)"  d="M334.2713 552.85583C 334.2713 550.80585 335.10223 549.144 336.12723 549.144C 337.15222 549.144 337.98315 550.80585 337.98315 552.85583C 337.98315 554.9058 337.15222 556.5677 336.12723 556.5677C 335.10223 556.5677 334.2713 554.9058 334.2713 552.85583" stroke="none" fill="#2F2E41" fill-rule="nonzero" />
	<g transform="matrix(0.8139616 -0.58091867 0.58091867 0.8139616 -295.9243 270.5948)">
	</g>
    <path transform="matrix(0.8139616 -0.58091867 0.58091867 0.8139616 -295.9243 270.5948)"  d="M338.91113 563.99146C 338.91113 561.94147 339.74207 560.2796 340.76706 560.2796C 341.79205 560.2796 342.623 561.94147 342.623 563.99146C 342.623 566.04144 341.79205 567.7033 340.76706 567.7033C 339.74207 567.7033 338.91113 566.04144 338.91113 563.99146" stroke="none" fill="#2F2E41" fill-rule="nonzero" />
	<g transform="matrix(0.9462743 -0.32336506 0.32336506 0.9462743 -199.20532 109.70423)">
	</g>
    <path transform="matrix(0.9462743 -0.32336506 0.32336506 0.9462743 -199.20532 109.70423)"  d="M341.69507 575.12714C 341.69507 573.07715 342.526 571.4153 343.551 571.4153C 344.576 571.4153 345.40692 573.07715 345.40692 575.12714C 345.40692 577.1771 344.576 578.839 343.551 578.839C 342.526 578.839 341.69507 577.1771 341.69507 575.12714" stroke="none" fill="#2F2E41" fill-rule="nonzero" />
	<g transform="matrix(0.9462743 -0.32336506 0.32336506 0.9462743 -202.60677 111.50279)">
	</g>
    <path transform="matrix(0.9462743 -0.32336506 0.32336506 0.9462743 -202.60677 111.50279)"  d="M345.40692 586.26276C 345.40692 584.21277 346.23785 582.5509 347.26285 582.5509C 348.28784 582.5509 349.11877 584.21277 349.11877 586.26276C 349.11877 588.31274 348.28784 589.9746 347.26285 589.9746C 346.23785 589.9746 345.40692 588.31274 345.40692 586.26276" stroke="none" fill="#2F2E41" fill-rule="nonzero" />
	<g transform="matrix(0.9462743 -0.32336506 0.32336506 0.9462743 -205.70815 113.2515)">
	</g>
    <path transform="matrix(0.9462743 -0.32336506 0.32336506 0.9462743 -205.70815 113.2515)"  d="M349.1188 596.4704C 349.1188 594.4204 349.94974 592.75854 350.97473 592.75854C 351.99973 592.75854 352.83066 594.4204 352.83066 596.4704C 352.83066 598.5204 351.99973 600.18225 350.97473 600.18225C 349.94974 600.18225 349.1188 598.5204 349.1188 596.4704" stroke="none" fill="#2F2E41" fill-rule="nonzero" />
	<g transform="matrix(0.9462743 -0.32336506 0.32336506 0.9462743 -209.20932 114.44992)">
	</g>
    <path transform="matrix(0.9462743 -0.32336506 0.32336506 0.9462743 -209.20932 114.44992)"  d="M350.97476 607.6061C 350.97476 605.5561 351.8057 603.8942 352.8307 603.8942C 353.85568 603.8942 354.6866 605.5561 354.6866 607.6061C 354.6866 609.65607 353.85568 611.31793 352.8307 611.31793C 351.8057 611.31793 350.97476 609.65607 350.97476 607.6061" stroke="none" fill="#2F2E41" fill-rule="nonzero" />
	<g transform="matrix(0.9462743 -0.32336506 0.32336506 0.9462743 -212.71048 115.64833)">
	</g>
    <path transform="matrix(0.9462743 -0.32336506 0.32336506 0.9462743 -212.71048 115.64833)"  d="M352.8307 618.7417C 352.8307 616.6917 353.66162 615.02985 354.6866 615.02985C 355.7116 615.02985 356.54254 616.6917 356.54254 618.7417C 356.54254 620.7917 355.7116 622.45355 354.6866 622.45355C 353.66162 622.45355 352.8307 620.7917 352.8307 618.7417" stroke="none" fill="#2F2E41" fill-rule="nonzero" />
	<g transform="matrix(0.9462743 -0.32336506 0.32336506 0.9462743 -216.51172 116.8966)">
	</g>
    <path transform="matrix(0.9462743 -0.32336506 0.32336506 0.9462743 -216.51172 116.8966)"  d="M354.68665 630.8053C 354.68665 628.7553 355.51758 627.09344 356.54257 627.09344C 357.56757 627.09344 358.3985 628.7553 358.3985 630.8053C 358.3985 632.8553 357.56757 634.51715 356.54257 634.51715C 355.51758 634.51715 354.68665 632.8553 354.68665 630.8053" stroke="none" fill="#2F2E41" fill-rule="nonzero" />
	<g transform="matrix(0.9462743 -0.32336506 0.32336506 0.9462743 -220.36281 117.8448)">
	</g>
    <path transform="matrix(0.9462743 -0.32336506 0.32336506 0.9462743 -220.36281 117.8448)"  d="M355.6146 642.8689C 355.6146 640.8189 356.44553 639.15704 357.47052 639.15704C 358.4955 639.15704 359.32645 640.8189 359.32645 642.8689C 359.32645 644.9189 358.4955 646.58075 357.47052 646.58075C 356.44553 646.58075 355.6146 644.9189 355.6146 642.8689" stroke="none" fill="#2F2E41" fill-rule="nonzero" />
	<g transform="matrix(1 0 0 1 -31.68686 -32.28722)">
	</g>
    <path transform="matrix(1 0 0 1 -31.68686 -32.28722)"  d="M277.01855 526.76215C 277.01855 526.76215 304.4909 494.73663 301.87814 488.52448C 299.26538 482.31232 277.76035 469.42392 252.91171 479.875C 252.91171 479.875 241.99657 471.30588 238.19986 483.1382C 234.40315 494.97055 248.19778 496.47974 248.19778 496.47974C 248.19778 496.47974 243.93698 524.5916 269.56396 529.89746L269.56396 529.89746L277.01855 526.76215z" stroke="none" fill="#055254" fill-rule="nonzero" />
    <path d="M708.58545 748.2108C 708.58545 743.1406 706.79285 738.81287 703.20764 735.2276C 699.62244 731.6424 695.2947 729.8498 690.2244 729.8498C 685.15424 729.8498 680.8265 731.6424 677.2412 735.2276C 673.656 738.81287 671.8634 743.1406 671.8634 748.2108C 671.8634 753.28107 673.656 757.60876 677.2412 761.19403C 680.8265 764.7793 685.15424 766.5719 690.2244 766.57184C 695.2947 766.5719 699.62244 764.7793 703.20764 761.19403C 706.79285 757.60876 708.58545 753.28107 708.58545 748.2108" stroke="none" fill="#FF6584" fill-rule="nonzero" />
	<g>
	</g>
	<g>
	</g>
    <path d="M678.083 748.472L672.828 741.454L673.747 740.766L678.267 746.802L686.208 739.996L694.211 746.856L701.126 739.94L708.417 747.231L707.606 748.043L701.126 741.563L694.271 748.418L686.208 741.507L678.083 748.472L678.083 748.472" stroke="none" fill="#575A89" fill-rule="nonzero" />
	<g>
	</g>
    <path d="M676.947 757.545L671.74 750.59L672.541 749.99L677.107 756.09L685.06 749.274L693.067 756.137L699.979 749.225L707.217 756.464L706.51 757.171L699.979 750.64L693.12 757.498L685.06 750.591L676.947 757.545L676.947 757.545" stroke="none" fill="#575A89" fill-rule="nonzero" />
	<g>
	</g>
    <path d="M689.07684 716.65283L690.2244 716.65283L690.2244 730.4236L689.07684 730.4236z" stroke="none" fill="#575A89" fill-rule="nonzero" />
    <path d="M647.1691 747.56494C 647.1692 742.49475 645.3766 738.167 641.7913 734.5817C 638.20605 730.9965 633.87836 729.2039 628.8081 729.2039C 623.7379 729.2039 619.41016 730.9965 615.8249 734.5817C 612.2397 738.167 610.4471 742.49475 610.4471 747.56494C 610.4471 752.6352 612.2397 756.9629 615.8249 760.54816C 619.41016 764.13336 623.7379 765.92596 628.8081 765.92596C 633.87836 765.92596 638.20605 764.13336 641.7913 760.54816C 645.3766 756.9629 647.1692 752.6352 647.1691 747.56494" stroke="none" fill="#055254" fill-rule="nonzero" />
	<g>
	</g>
	<g>
	</g>
    <path d="M617.968 753.039L610.199 748.976L610.731 747.959L617.413 751.454L621.64 741.888L631.82 744.623L635.074 735.4L644.798 738.831L644.416 739.913L635.774 736.864L632.548 746.006L622.292 743.25L617.968 753.039L617.968 753.039" stroke="none" fill="#575A89" fill-rule="nonzero" />
	<g>
	</g>
    <path d="M620.399 760.74L613.173 757.656L613.565 756.736L619.952 759.463L624.625 750.787L634.373 752.605L638.067 744.316L647.219 746.744L646.964 747.711L638.633 745.502L634.965 753.732L625.16 751.904L620.399 760.74L620.399 760.74" stroke="none" fill="#575A89" fill-rule="nonzero" />
	<g transform="matrix(0.9021181 -0.43148914 0.43148914 0.9021181 -295.12976 322.07126)">
	</g>
    <path d="M614.1559 719.59106L615.19116 719.09595L621.1331 731.5188L620.09784 732.0139z" stroke="none" fill="#575A89" fill-rule="nonzero" />
    <path d="M482.2317 737.2241C 482.2317 732.15393 480.4391 727.8262 476.85388 724.2409C 473.26868 720.6557 468.94095 718.8631 463.8707 718.8631C 458.80045 718.8631 454.47272 720.6557 450.8875 724.2409C 447.3023 727.8262 445.5097 732.15393 445.5097 737.2241C 445.5097 742.2944 447.3023 746.6221 450.8875 750.20734C 454.47272 753.7926 458.80045 755.5852 463.8707 755.58514C 468.94095 755.5852 473.26868 753.7926 476.85388 750.20734C 480.4391 746.6221 482.2317 742.2944 482.2317 737.2241" stroke="none" fill="#055254" fill-rule="nonzero" />
	<g>
	</g>
	<g>
	</g>
    <path d="M452.335 733.43L449.715 725.064L450.81 724.721L453.064 731.916L462.817 728.141L468.081 737.273L476.903 733.053L481.353 742.355L480.317 742.85L476.363 734.583L467.618 738.766L462.314 729.566L452.335 733.43L452.335 733.43" stroke="none" fill="#575A89" fill-rule="nonzero" />
	<g>
	</g>
    <path d="M476.247 751.094L472.261 742.761L463.51 746.945L458.209 737.75L448.244 741.607L445.649 733.316L446.603 733.017L448.879 740.289L458.648 736.508L463.914 745.644L472.732 741.427L477.149 750.662L476.247 751.094L476.247 751.094" stroke="none" fill="#575A89" fill-rule="nonzero" />
	<g transform="matrix(0.3327849 -0.94300276 0.94300276 0.3327849 -399.45718 940.0359)">
	</g>
    <path d="M468.70786 720.0688L473.29056 707.08295L474.3727 707.46484L469.79 720.4507z" stroke="none" fill="#575A89" fill-rule="nonzero" />
	<g transform="matrix(0.9876779 -0.1565005 0.1565005 0.9876779 -134.85776 114.90186)">
	</g>
    <path transform="matrix(0.9876779 -0.1565005 0.1565005 0.9876779 -134.85776 114.90186)"  d="M881.4156 728.77014C 881.4156 725.60126 882.17993 723.03235 883.1228 723.03235C 884.0657 723.03235 884.83 725.60126 884.83 728.77014C 884.83 731.939 884.0657 734.50793 883.1228 734.50793C 882.17993 734.50793 881.4156 731.939 881.4156 728.77014" stroke="none" fill="#575A89" fill-rule="nonzero" />
	<g transform="matrix(0.9876779 -0.1565005 0.1565005 0.9876779 -132.37173 114.34471)">
	</g>
    <path transform="matrix(0.9876779 -0.1565005 0.1565005 0.9876779 -132.37173 114.34471)"  d="M879.1205 712.7042C 879.1205 709.53534 879.8848 706.96643 880.8277 706.96643C 881.77057 706.96643 882.5349 709.53534 882.5349 712.7042C 882.5349 715.8731 881.77057 718.442 880.8277 718.442C 879.8848 718.442 879.1205 715.8731 879.1205 712.7042" stroke="none" fill="#575A89" fill-rule="nonzero" />
	<g transform="matrix(0.9876779 -0.1565005 0.1565005 0.9876779 -137.1642 115.44487)">
	</g>
    <path transform="matrix(0.9876779 -0.1565005 0.1565005 0.9876779 -137.1642 115.44487)"  d="M883.7107 743.6884C 883.7107 740.51953 884.47504 737.9506 885.4179 737.9506C 886.3608 737.9506 887.1251 740.51953 887.1251 743.6884C 887.1251 746.8573 886.3608 749.4262 885.4179 749.4262C 884.47504 749.4262 883.7107 746.8573 883.7107 743.6884" stroke="none" fill="#575A89" fill-rule="nonzero" />
	<g transform="matrix(0.99565524 -0.09311628 0.09311628 0.99565524 -98.36678 53.55751)">
	</g>
    <path transform="matrix(0.99565524 -0.09311628 0.09311628 0.99565524 -98.36678 53.55751)"  d="M884.8583 757.45917C 884.8583 754.2903 885.6226 751.7214 886.5655 751.7214C 887.50836 751.7214 888.2727 754.2903 888.2727 757.45917C 888.2727 760.62805 887.50836 763.19696 886.5655 763.19696C 885.6226 763.19696 884.8583 760.62805 884.8583 757.45917" stroke="none" fill="#575A89" fill-rule="nonzero" />
	<g transform="matrix(0.7071067 -0.7071068 0.7071068 0.7071067 -236.12338 807.7628)">
	</g>
    <path transform="matrix(0.7071067 -0.7071068 0.7071068 0.7071067 -236.12338 807.7628)"  d="M906.0741 666.80176C 906.0741 665.8589 908.643 665.09454 911.8119 665.09454C 914.9808 665.09454 917.5497 665.8589 917.5497 666.80176C 917.5497 667.7446 914.9808 668.509 911.8119 668.509C 908.643 668.509 906.0741 667.7446 906.0741 666.80176" stroke="none" fill="#575A89" fill-rule="nonzero" />
	<g transform="matrix(1 0 0 1 -31.68686 -32.28722)">
	</g>
    <path transform="matrix(1 0 0 1 -31.68686 -32.28722)"  d="M869.7229 637.58636C 867.29724 637.31116 865.2239 639.2036 863.52216 640.9539C 862.09503 642.50653 860.5397 643.9362 858.87256 645.2278C 853.8032 648.85834 847.2809 649.7858 841.4004 647.7124C 841.5439 647.7645 846.9513 640.6034 847.54736 639.94464C 849.80505 637.44995 852.2275 635.1093 854.7982 632.93866C 856.7225 631.314 859.36975 628.5307 862.12384 629.73694C 865.022 631.00616 867.6636 635.2542 869.7229 637.58636z" stroke="none" fill="#2F2E41" fill-rule="nonzero" />
	<g transform="matrix(1 0 0 1 -31.68686 -32.28722)">
	</g>
    <path transform="matrix(1 0 0 1 -31.68686 -32.28722)"  d="M836.09375 652.5448C 836.09375 652.5448 868.2255 636.47894 868.2255 630.7411C 868.2255 625.00323 855.60236 607.78986 832.65106 607.78986C 832.65106 607.78986 826.91327 597.4618 820.0279 605.49475C 813.1425 613.5277 823.4706 619.2655 823.4706 619.2655C 823.4706 619.2655 810.8474 639.92163 829.2084 652.5448L829.2084 652.5448L836.09375 652.5448z" stroke="none" fill="#575A89" fill-rule="nonzero" />
	<g transform="matrix(1 0 0 1 -31.68686 -32.28722)">
	</g>
    <path transform="matrix(1 0 0 1 -31.68686 -32.28722)"  d="M875.9364 636.3973C 873.51074 636.1221 871.4374 638.01447 869.73566 639.76483C 868.30853 641.3175 866.75323 642.74713 865.08606 644.0387C 860.0167 647.66925 853.4944 648.59674 847.6139 646.5233C 847.7574 646.57544 853.1648 639.4143 853.76086 638.75555C 856.0185 636.26074 858.44086 633.9202 861.0117 631.74963C 862.936 630.125 865.58325 627.3417 868.33734 628.5479C 871.23553 629.8171 873.8771 634.0651 875.9364 636.3973z" stroke="none" fill="#575A89" fill-rule="nonzero" />
	<g transform="matrix(1 0 0 1 -31.68686 -32.28722)">
	</g>
    <path transform="matrix(1 0 0 1 -31.68686 -32.28722)"  d="M946.25977 631.8887C 942.6057 625.7985 936.04297 629.40466 930.68787 634.13055C 930.42664 631.18945 929.53516 629.0198 928.47253 629.0198C 927.20496 629.0198 926.1774 632.1025 926.1774 635.90515C 926.17645 636.7459 926.23 637.5859 926.33765 638.4198C 923.831 641.13824 922.161 643.3643 922.161 643.3643L922.161 643.3643L915.27563 647.9546L927.8988 661.72534L933.6366 654.83997C 933.6366 654.83997 953.14514 643.3643 946.25977 631.8887z" stroke="none" fill="#FF6584" fill-rule="nonzero" />
    <path d="M791.20996 570.3386C 791.20996 569.07104 790.76184 567.98914 789.8655 567.09283C 788.96924 566.19653 787.8873 565.7484 786.6197 565.74835C 785.3522 565.7484 784.2702 566.19653 783.3739 567.09283C 782.4776 567.98914 782.0294 569.07104 782.0294 570.3386C 782.0294 571.6062 782.4776 572.6882 783.3739 573.5844C 784.2702 574.4808 785.3522 574.92896 786.6197 574.9289C 787.8873 574.92896 788.96924 574.4808 789.8655 573.5844C 790.76184 572.6882 791.20996 571.6062 791.20996 570.3386" stroke="none" fill="#575A89" fill-rule="nonzero" />
	<g>
	</g>
	<g transform="matrix(1 0 0 1 -31.68686 -32.28722)">
	</g>
    <path transform="matrix(1 0 0 1 -31.68686 -32.28722)"  d="M845 729L845 736.5C 845 742.299 849.701 747 855.5 747C 861.299 747 866 742.299 866 736.5L866 736.5L866 729L845 729z" stroke="none" fill="#055254" fill-rule="nonzero" />
	<g transform="matrix(1 0 0 1 -31.68686 -32.28722)">
	</g>
    <path transform="matrix(1 0 0 1 -31.68686 -32.28722)"  d="M845 729L845 736.5C 845 742.299 849.701 747 855.5 747C 861.299 747 866 742.299 866 736.5L866 736.5L866 729L845 729z" stroke="none" fill="#000000" fill-rule="nonzero" fill-opacity="0.14901961" />
</g>
</svg>