<?xml version="1.0" encoding="UTF-8"?>
<svg xmlns="http://www.w3.org/2000/svg" xmlns:xlink="http://www.w3.org/1999/xlink" width="598pt" height="199pt" viewBox="0 0 598 199" version="1.1">
<g id="surface1">
<path style=" stroke:none;fill-rule:nonzero;fill:rgb(1.960784%,31.372549%,32.156863%);fill-opacity:1;" d="M 77.539062 118.847656 C 90.628906 123.453125 105.175781 120.886719 115.90625 112.082031 C 129.34375 100.792969 133.558594 82.199219 136.984375 64.980469 L 147.125 14.046875 L 125.894531 28.675781 C 110.628906 39.195312 95.019531 50.054688 84.449219 65.292969 C 73.878906 80.53125 69.269531 101.335938 77.757812 117.824219 "/>
<path style=" stroke:none;fill-rule:nonzero;fill:rgb(24.705882%,23.921569%,33.72549%);fill-opacity:1;" d="M 80.816406 184.058594 C 78.144531 164.578125 75.398438 144.84375 77.273438 125.152344 C 78.941406 107.664062 84.269531 90.585938 95.125 76.574219 C 100.886719 69.15625 107.894531 62.796875 115.839844 57.789062 C 117.910156 56.480469 119.816406 59.765625 117.753906 61.066406 C 104.007812 69.761719 93.378906 82.597656 87.390625 97.730469 C 80.78125 114.558594 79.71875 132.898438 80.859375 150.773438 C 81.546875 161.582031 83.011719 172.320312 84.476562 183.046875 C 84.71875 184.054688 84.140625 185.074219 83.152344 185.382812 C 82.144531 185.65625 81.101562 185.066406 80.820312 184.058594 Z M 80.816406 184.058594 "/>
<path style=" stroke:none;fill-rule:nonzero;fill:rgb(1.960784%,31.372549%,32.156863%);fill-opacity:1;" d="M 100.050781 152.796875 C 105.664062 161.339844 115.324219 166.332031 125.53125 165.964844 C 138.4375 165.351562 149.1875 156.34375 158.867188 147.785156 L 187.503906 122.480469 L 168.550781 121.574219 C 154.921875 120.921875 140.945312 120.308594 127.960938 124.519531 C 114.980469 128.730469 103.011719 138.851562 100.636719 152.296875 "/>
<path style=" stroke:none;fill-rule:nonzero;fill:rgb(24.705882%,23.921569%,33.72549%);fill-opacity:1;" d="M 73.265625 195.257812 C 86.128906 172.480469 101.046875 147.160156 127.707031 139.070312 C 135.121094 136.828125 142.890625 136.023438 150.605469 136.703125 C 153.035156 136.914062 152.429688 140.664062 150.003906 140.457031 C 137.074219 139.378906 124.167969 142.796875 113.460938 150.132812 C 103.15625 157.152344 95.132812 166.910156 88.34375 177.257812 C 84.183594 183.597656 80.457031 190.207031 76.734375 196.804688 C 75.542969 198.914062 72.0625 197.394531 73.265625 195.257812 Z M 73.265625 195.257812 "/>
<path style=" stroke:none;fill-rule:nonzero;fill:rgb(1.960784%,31.372549%,32.156863%);fill-opacity:1;" d="M 199.902344 163.734375 C 205.550781 165.722656 211.828125 164.613281 216.460938 160.8125 C 222.257812 155.941406 224.078125 147.917969 225.554688 140.484375 L 229.933594 118.5 L 220.769531 124.816406 C 214.183594 129.355469 207.445312 134.042969 202.882812 140.621094 C 198.320312 147.195312 196.332031 156.175781 199.996094 163.292969 "/>
<path style=" stroke:none;fill-rule:nonzero;fill:rgb(24.705882%,23.921569%,33.72549%);fill-opacity:1;" d="M 201.316406 191.878906 C 200.160156 183.46875 198.976562 174.953125 199.785156 166.453125 C 200.503906 158.90625 202.804688 151.535156 207.488281 145.488281 C 209.976562 142.285156 213 139.542969 216.429688 137.378906 C 217.324219 136.816406 218.148438 138.234375 217.257812 138.796875 C 211.324219 142.546875 206.734375 148.089844 204.152344 154.621094 C 201.300781 161.882812 200.84375 169.796875 201.332031 177.511719 C 201.628906 182.179688 202.261719 186.8125 202.894531 191.441406 C 203 191.878906 202.75 192.316406 202.324219 192.449219 C 201.886719 192.570312 201.4375 192.3125 201.316406 191.878906 Z M 201.316406 191.878906 "/>
<path style=" stroke:none;fill-rule:nonzero;fill:rgb(1.960784%,31.372549%,32.156863%);fill-opacity:1;" d="M 209.617188 178.386719 C 212.039062 182.074219 216.207031 184.226562 220.613281 184.070312 C 226.183594 183.804688 230.824219 179.917969 235 176.222656 L 247.359375 165.300781 L 239.179688 164.910156 C 233.300781 164.628906 227.265625 164.363281 221.664062 166.179688 C 216.0625 168 210.894531 172.367188 209.871094 178.171875 "/>
<path style=" stroke:none;fill-rule:nonzero;fill:rgb(24.705882%,23.921569%,33.72549%);fill-opacity:1;" d="M 198.054688 196.714844 C 203.605469 186.882812 210.046875 175.953125 221.554688 172.460938 C 224.75 171.492188 228.105469 171.148438 231.433594 171.441406 C 232.484375 171.53125 232.222656 173.148438 231.175781 173.058594 C 225.59375 172.597656 220.023438 174.070312 215.402344 177.234375 C 210.957031 180.265625 207.492188 184.476562 204.5625 188.945312 C 202.769531 191.679688 201.160156 194.53125 199.550781 197.378906 C 199.039062 198.292969 197.535156 197.632812 198.054688 196.714844 Z M 198.054688 196.714844 "/>
<path style=" stroke:none;fill-rule:nonzero;fill:rgb(1.960784%,31.372549%,32.156863%);fill-opacity:1;" d="M 534.457031 169.832031 C 508.8125 177.203125 508.507812 140.925781 504.425781 124.601562 C 518.921875 134.480469 543.367188 148.566406 534.363281 169.390625 "/>
<path style=" stroke:none;fill-rule:nonzero;fill:rgb(24.705882%,23.921569%,33.72549%);fill-opacity:1;" d="M 533.042969 197.980469 C 536.414062 178.90625 536.625 154.753906 517.929688 143.480469 C 517.035156 142.914062 516.210938 144.332031 517.101562 144.894531 C 535.152344 155.824219 534.617188 179.160156 531.464844 197.542969 C 531.359375 197.972656 531.617188 198.40625 532.042969 198.523438 C 532.46875 198.640625 532.910156 198.398438 533.042969 197.976562 Z M 533.042969 197.980469 "/>
<path style=" stroke:none;fill-rule:nonzero;fill:rgb(1.960784%,31.372549%,32.156863%);fill-opacity:1;" d="M 460.753906 178.386719 C 449.015625 194.15625 432.671875 173.042969 423.007812 165.300781 C 435.902344 164.617188 456.492188 161.957031 460.5 178.171875 "/>
<path style=" stroke:none;fill-rule:nonzero;fill:rgb(24.705882%,23.921569%,33.72549%);fill-opacity:1;" d="M 472.3125 196.714844 C 465.679688 184 455.085938 169.625 438.933594 171.441406 C 437.882812 171.53125 438.148438 173.148438 439.195312 173.058594 C 454.535156 171.46875 464.515625 185.28125 470.816406 197.382812 C 471.332031 198.292969 472.832031 197.632812 472.3125 196.714844 Z M 472.3125 196.714844 "/>
<path style=" stroke:none;fill-rule:nonzero;fill:rgb(79.215686%,79.215686%,79.215686%);fill-opacity:1;" d="M 597.238281 198.878906 L 0.761719 198.878906 C 0.339844 198.878906 0 198.539062 0 198.117188 C 0 197.695312 0.339844 197.355469 0.761719 197.355469 L 597.238281 197.355469 C 597.660156 197.355469 598 197.695312 598 198.117188 C 598 198.539062 597.660156 198.878906 597.238281 198.878906 Z M 597.238281 198.878906 "/>
<path style=" stroke:none;fill-rule:nonzero;fill:rgb(79.215686%,79.215686%,79.215686%);fill-opacity:1;" d="M 454.023438 148.558594 L 255.199219 148.558594 C 254.777344 148.558594 254.4375 148.214844 254.4375 147.796875 C 254.4375 147.375 254.777344 147.03125 255.199219 147.03125 L 454.023438 147.03125 C 454.445312 147.03125 454.785156 147.375 454.785156 147.796875 C 454.785156 148.214844 454.445312 148.558594 454.023438 148.558594 Z M 454.023438 148.558594 "/>
<path style=" stroke:none;fill-rule:nonzero;fill:rgb(24.705882%,23.921569%,33.72549%);fill-opacity:1;" d="M 357.417969 20.53125 L 356.109375 4.222656 C 355.859375 3.515625 355.265625 2.984375 354.535156 2.8125 C 353.804688 2.640625 353.035156 2.851562 352.496094 3.375 L 336.535156 18.339844 C 331.492188 17.269531 326.3125 17.035156 321.195312 17.648438 L 320.789062 1.570312 C 320.570312 0.84375 319.996094 0.28125 319.265625 0.0820312 C 318.535156 -0.121094 317.753906 0.0664062 317.191406 0.574219 L 304.316406 14.859375 C 285.996094 24.691406 276.21875 45.328125 280.203125 65.746094 C 284.191406 86.167969 301.007812 101.601562 321.679688 103.8125 C 342.351562 106.023438 362.046875 94.488281 370.25 75.371094 C 378.453125 56.253906 373.25 34.015625 357.417969 20.53125 Z M 357.417969 20.53125 "/>
<path style=" stroke:none;fill-rule:nonzero;fill:rgb(24.705882%,23.921569%,33.72549%);fill-opacity:1;" d="M 363.335938 86.722656 C 380.765625 86.445312 402.691406 147.664062 361.386719 147.984375 C 340.015625 148.148438 302.175781 152.320312 302.175781 152.320312 C 302.175781 152.320312 272.761719 108.136719 285.882812 80.648438 Z M 363.335938 86.722656 "/>
<path style=" stroke:none;fill-rule:nonzero;fill:rgb(24.705882%,23.921569%,33.72549%);fill-opacity:1;" d="M 324.996094 119.074219 L 324.996094 150.792969 L 339.8125 150.792969 L 351.566406 118.496094 "/>
<path style=" stroke:none;fill-rule:nonzero;fill:rgb(100%,100%,100%);fill-opacity:1;" d="M 339.8125 151.371094 L 324.996094 151.371094 C 324.675781 151.371094 324.417969 151.113281 324.417969 150.792969 L 324.417969 119.074219 C 324.417969 118.753906 324.675781 118.496094 324.996094 118.496094 C 325.3125 118.496094 325.570312 118.753906 325.570312 119.074219 L 325.570312 150.214844 L 339.40625 150.214844 L 351.023438 118.296875 C 351.132812 118 351.464844 117.84375 351.765625 117.953125 C 352.0625 118.0625 352.21875 118.394531 352.109375 118.695312 L 340.355469 150.992188 C 340.269531 151.21875 340.054688 151.371094 339.8125 151.371094 Z M 339.8125 151.371094 "/>
<path style=" stroke:none;fill-rule:nonzero;fill:rgb(24.705882%,23.921569%,33.72549%);fill-opacity:1;" d="M 375.539062 148.851562 C 375.539062 146.613281 370.109375 144.804688 363.410156 144.804688 C 356.710938 144.804688 351.277344 146.613281 351.277344 148.851562 C 351.277344 151.085938 356.710938 152.898438 363.410156 152.898438 C 370.109375 152.898438 375.539062 151.085938 375.539062 148.851562 Z M 375.539062 148.851562 "/>
<path style=" stroke:none;fill-rule:nonzero;fill:rgb(100%,100%,100%);fill-opacity:1;" d="M 357.34375 145.382812 C 357.089844 145.382812 356.867188 145.214844 356.792969 144.972656 C 356.726562 144.765625 350.589844 124.167969 365.128906 117.964844 C 365.320312 117.882812 365.539062 117.910156 365.703125 118.03125 C 365.871094 118.15625 365.957031 118.359375 365.929688 118.566406 C 365.90625 118.769531 365.773438 118.949219 365.582031 119.027344 C 351.992188 124.828125 357.835938 144.4375 357.894531 144.632812 C 357.988281 144.9375 357.816406 145.261719 357.511719 145.355469 C 357.457031 145.371094 357.402344 145.382812 357.34375 145.382812 Z M 357.34375 145.382812 "/>
<path style=" stroke:none;fill-rule:nonzero;fill:rgb(24.705882%,23.921569%,33.72549%);fill-opacity:1;" d="M 377.921875 140.097656 C 377.839844 139.980469 377.78125 139.855469 377.710938 139.738281 C 377.078125 139.761719 376.449219 139.785156 375.816406 139.808594 Z M 377.921875 140.097656 "/>
<path style=" stroke:none;fill-rule:nonzero;fill:rgb(24.705882%,23.921569%,33.72549%);fill-opacity:1;" d="M 440.871094 121.769531 C 436.140625 114.203125 424.570312 112.101562 417.484375 117.519531 C 414.285156 119.964844 412.132812 123.503906 409.402344 126.460938 C 404.804688 131.402344 398.675781 134.648438 392.007812 135.671875 C 387.367188 136.367188 382.457031 135.992188 378.171875 137.902344 C 374.011719 139.757812 370.875 145.054688 373.140625 148.886719 C 389.097656 148.296875 405.054688 147.710938 421.011719 147.121094 C 425.601562 146.953125 430.355469 146.742188 434.460938 144.679688 C 442.429688 140.671875 445.601562 129.335938 440.871094 121.769531 Z M 440.871094 121.769531 "/>
<path style=" stroke:none;fill-rule:nonzero;fill:rgb(100%,100%,100%);fill-opacity:1;" d="M 323.066406 99.851562 C 316.511719 99.914062 310.015625 98.613281 303.988281 96.042969 C 291.398438 90.570312 285.628906 81.34375 285.390625 80.953125 C 285.226562 80.679688 285.3125 80.328125 285.582031 80.160156 C 285.851562 79.996094 286.203125 80.078125 286.375 80.347656 C 290.933594 86.828125 297.214844 91.90625 304.503906 95.003906 C 315.839844 99.910156 335.199219 102.367188 363.042969 86.222656 C 363.222656 86.117188 363.445312 86.117188 363.625 86.21875 C 363.804688 86.320312 363.914062 86.511719 363.914062 86.71875 C 363.914062 86.925781 363.804688 87.117188 363.625 87.222656 C 347.277344 96.699219 333.78125 99.851562 323.066406 99.851562 Z M 323.066406 99.851562 "/>
<path style=" stroke:none;fill-rule:nonzero;fill:rgb(100%,100%,100%);fill-opacity:1;" d="M 325.570312 70.507812 C 323.339844 70.503906 321.53125 68.695312 321.527344 66.460938 C 321.527344 66.140625 321.785156 65.882812 322.105469 65.882812 C 322.425781 65.882812 322.683594 66.140625 322.683594 66.460938 C 322.683594 68.058594 323.976562 69.351562 325.570312 69.351562 C 327.167969 69.351562 328.460938 68.058594 328.460938 66.460938 C 328.460938 66.140625 328.71875 65.882812 329.039062 65.882812 C 329.355469 65.882812 329.617188 66.140625 329.617188 66.460938 C 329.613281 68.695312 327.804688 70.503906 325.570312 70.507812 Z M 325.570312 70.507812 "/>
<path style=" stroke:none;fill-rule:nonzero;fill:rgb(100%,100%,100%);fill-opacity:1;" d="M 320.082031 148.949219 C 319.832031 148.949219 319.609375 148.785156 319.535156 148.546875 L 310.292969 119.539062 C 310.226562 119.34375 310.273438 119.125 310.414062 118.972656 C 310.550781 118.820312 310.761719 118.753906 310.964844 118.796875 C 311.167969 118.839844 311.328125 118.992188 311.390625 119.1875 L 320.632812 148.195312 C 320.691406 148.371094 320.660156 148.5625 320.550781 148.710938 C 320.441406 148.859375 320.269531 148.949219 320.082031 148.949219 Z M 320.082031 148.949219 "/>
<path style=" stroke:none;fill-rule:nonzero;fill:rgb(24.705882%,23.921569%,33.72549%);fill-opacity:1;" d="M 344.347656 152.898438 C 344.347656 150.664062 338.914062 148.851562 332.214844 148.851562 C 325.515625 148.851562 320.085938 150.664062 320.085938 152.898438 C 320.085938 155.132812 325.515625 156.945312 332.214844 156.945312 C 338.914062 156.945312 344.347656 155.132812 344.347656 152.898438 Z M 344.347656 152.898438 "/>
<path style=" stroke:none;fill-rule:nonzero;fill:rgb(24.705882%,23.921569%,33.72549%);fill-opacity:1;" d="M 324.707031 152.320312 C 324.707031 150.085938 319.273438 148.273438 312.574219 148.273438 C 305.875 148.273438 300.445312 150.085938 300.445312 152.320312 C 300.445312 154.554688 305.875 156.367188 312.574219 156.367188 C 319.273438 156.367188 324.707031 154.554688 324.707031 152.320312 Z M 324.707031 152.320312 "/>
<path style=" stroke:none;fill-rule:nonzero;fill:rgb(100%,100%,100%);fill-opacity:1;" d="M 330.480469 59.234375 C 330.480469 58.25 328.414062 57.453125 325.859375 57.453125 C 323.308594 57.453125 321.238281 58.25 321.238281 59.234375 C 321.238281 60.214844 323.308594 61.011719 325.859375 61.011719 C 328.414062 61.011719 330.480469 60.214844 330.480469 59.234375 Z M 330.480469 59.234375 "/>
<path style=" stroke:none;fill-rule:nonzero;fill:rgb(100%,100%,100%);fill-opacity:1;" d="M 294.785156 59.363281 C 297.464844 56.15625 301.425781 54.300781 305.601562 54.300781 C 309.777344 54.300781 313.738281 56.15625 316.414062 59.363281 C 322.671875 53.386719 322.902344 43.464844 316.929688 37.203125 C 310.957031 30.941406 301.042969 30.710938 294.785156 36.6875 C 288.53125 42.664062 288.300781 52.585938 294.273438 58.847656 C 294.441406 59.023438 294.613281 59.195312 294.785156 59.363281 Z M 294.785156 59.363281 "/>
<path style=" stroke:none;fill-rule:nonzero;fill:rgb(100%,100%,100%);fill-opacity:1;" d="M 337.070312 59.363281 C 339.75 56.15625 343.710938 54.300781 347.886719 54.300781 C 352.0625 54.300781 356.023438 56.15625 358.699219 59.363281 C 364.957031 53.386719 365.1875 43.464844 359.214844 37.203125 C 353.242188 30.941406 343.328125 30.710938 337.070312 36.6875 C 330.816406 42.664062 330.585938 52.585938 336.558594 58.847656 C 336.726562 59.023438 336.894531 59.195312 337.070312 59.363281 Z M 337.070312 59.363281 "/>
<path style=" stroke:none;fill-rule:nonzero;fill:rgb(24.705882%,23.921569%,33.72549%);fill-opacity:1;" d="M 304.121094 49.550781 C 304.121094 52.527344 301.710938 54.941406 298.734375 54.941406 C 295.757812 54.941406 293.347656 52.527344 293.347656 49.550781 C 293.347656 46.574219 295.757812 44.160156 298.734375 44.160156 C 301.710938 44.160156 304.121094 46.574219 304.121094 49.550781 Z M 304.121094 49.550781 "/>
<path style=" stroke:none;fill-rule:nonzero;fill:rgb(24.705882%,23.921569%,33.72549%);fill-opacity:1;" d="M 346.40625 49.550781 C 346.40625 52.527344 343.992188 54.941406 341.019531 54.941406 C 338.042969 54.941406 335.628906 52.527344 335.628906 49.550781 C 335.628906 46.574219 338.042969 44.160156 341.019531 44.160156 C 343.992188 44.160156 346.40625 46.574219 346.40625 49.550781 Z M 346.40625 49.550781 "/>
<path style=" stroke:none;fill-rule:nonzero;fill:rgb(100%,39.607843%,51.764706%);fill-opacity:1;" d="M 353.109375 66.050781 C 353.109375 68.660156 350.996094 70.773438 348.390625 70.773438 C 345.78125 70.773438 343.667969 68.660156 343.667969 66.050781 C 343.667969 63.441406 345.78125 61.324219 348.390625 61.324219 C 350.996094 61.324219 353.109375 63.441406 353.109375 66.050781 Z M 353.109375 66.050781 "/>
<path style=" stroke:none;fill-rule:nonzero;fill:rgb(100%,39.607843%,51.764706%);fill-opacity:1;" d="M 310.449219 66.050781 C 310.449219 68.660156 308.335938 70.773438 305.730469 70.773438 C 303.121094 70.773438 301.007812 68.660156 301.007812 66.050781 C 301.007812 63.441406 303.121094 61.324219 305.730469 61.324219 C 308.335938 61.324219 310.449219 63.441406 310.449219 66.050781 Z M 310.449219 66.050781 "/>
</g>
</svg>
