<?xml version="1.0" standalone="no"?>
<!DOCTYPE svg PUBLIC "-//W3C//DTD SVG 1.0//EN" "http://www.w3.org/TR/2001/REC-SVG-20010904/DTD/svg10.dtd">
<svg xmlns="http://www.w3.org/2000/svg" xmlns:xlink="http://www.w3.org/1999/xlink" id="body_1" width="406" height="201">

<g transform="matrix(0.39960238 0 0 0.39960238 0.41172415 -0)">
	<g transform="matrix(1 0 0 1 -93.02536 -198.5)">
	</g>
    <path transform="matrix(1 0 0 1 -93.02536 -198.5)"  d="M600 198.5C 321.327 198.5 95.175995 423.3341 93.02533 701.5L93.02533 701.5L1106.9746 701.5C 1104.824 423.3341 878.6731 198.5 600 198.5z" stroke="none" fill="#2F2E41" fill-rule="nonzero" />
    <path d="M485.78757 52.54395C 485.7876 51.16324 485.29944 49.98473 484.3231 49.008415C 483.3468 48.032104 482.16827 47.54395 480.78757 47.54395C 479.40686 47.54395 478.22836 48.032104 477.25204 49.008415C 476.27573 49.98473 475.78757 51.16324 475.78757 52.54395C 475.78757 53.92466 476.27573 55.103172 477.25204 56.079483C 478.22836 57.055794 479.40686 57.54395 480.78757 57.54395C 482.16827 57.54395 483.3468 57.055794 484.3231 56.079483C 485.29944 55.103172 485.7876 53.92466 485.78757 52.54395" stroke="none" fill="#F2F2F2" fill-rule="nonzero" />
	<g>
	</g>
    <path d="M325.78757 217.54395C 325.78757 216.99167 325.59232 216.52026 325.20178 216.12973C 324.81128 215.73921 324.33987 215.54395 323.78757 215.54395C 323.2353 215.54395 322.7639 215.73921 322.37335 216.12973C 321.98285 216.52026 321.7876 216.99167 321.78757 217.54395C 321.7876 218.09624 321.98285 218.56764 322.37335 218.95816C 322.7639 219.3487 323.2353 219.54396 323.78757 219.54395C 324.33987 219.54396 324.81128 219.3487 325.20178 218.95816C 325.59232 218.56764 325.78757 218.09624 325.78757 217.54395" stroke="none" fill="#F2F2F2" fill-rule="nonzero" />
	<g>
	</g>
    <path d="M620.78754 311.54395C 620.78754 310.99167 620.5923 310.52026 620.2017 310.12973C 619.8113 309.73923 619.33984 309.54395 618.78754 309.54395C 618.2352 309.54395 617.76385 309.73923 617.37335 310.12973C 616.98285 310.52026 616.7876 310.99167 616.78754 311.54395C 616.7876 312.09625 616.98285 312.56766 617.37335 312.95816C 617.76385 313.3487 618.2352 313.54395 618.78754 313.54395C 619.33984 313.54395 619.8113 313.3487 620.2017 312.95816C 620.5923 312.56766 620.78754 312.09625 620.78754 311.54395" stroke="none" fill="#F2F2F2" fill-rule="nonzero" />
	<g>
	</g>
    <path d="M99.78756 286.54395C 99.78756 285.99167 99.5923 285.52026 99.201775 285.12973C 98.81126 284.7392 98.33985 284.54395 97.78756 284.54395C 97.235275 284.54395 96.76387 284.7392 96.373344 285.12973C 95.98283 285.52026 95.78757 285.99167 95.78756 286.54395C 95.78757 287.09625 95.98283 287.56763 96.373344 287.95816C 96.76387 288.3487 97.235275 288.54395 97.78756 288.54395C 98.33985 288.54395 98.81126 288.3487 99.201775 287.95816C 99.5923 287.56763 99.78756 287.09625 99.78756 286.54395" stroke="none" fill="#F2F2F2" fill-rule="nonzero" />
	<g>
	</g>
    <path d="M879.78754 215.54395C 879.78754 214.99167 879.5923 214.52026 879.2017 214.12973C 878.8113 213.73923 878.33984 213.54396 877.78754 213.54395C 877.2352 213.54396 876.76385 213.73923 876.37335 214.12973C 875.98285 214.52026 875.7876 214.99167 875.78754 215.54395C 875.7876 216.09625 875.98285 216.56766 876.37335 216.95816C 876.76385 217.3487 877.2352 217.54395 877.78754 217.54395C 878.33984 217.54395 878.8113 217.3487 879.2017 216.95816C 879.5923 216.56766 879.78754 216.09625 879.78754 215.54395" stroke="none" fill="#F2F2F2" fill-rule="nonzero" />
	<g>
	</g>
    <path d="M237.78757 236.54395C 237.78758 235.99167 237.59232 235.52026 237.20178 235.12973C 236.81126 234.73923 236.33986 234.54396 235.78757 234.54395C 235.23529 234.54396 234.76389 234.73923 234.37335 235.12973C 233.98283 235.52026 233.78757 235.99167 233.78757 236.54395C 233.78757 237.09625 233.98283 237.56766 234.37335 237.95816C 234.76389 238.3487 235.23529 238.54395 235.78757 238.54395C 236.33986 238.54395 236.81126 238.3487 237.20178 237.95816C 237.59232 237.56766 237.78758 237.09625 237.78757 236.54395" stroke="none" fill="#F2F2F2" fill-rule="nonzero" />
	<g>
	</g>
    <path d="M565.78754 196.54395C 565.7876 195.99167 565.5923 195.52026 565.2017 195.12973C 564.8112 194.73921 564.33984 194.54395 563.78754 194.54395C 563.2353 194.54395 562.7639 194.73921 562.37335 195.12973C 561.9828 195.52026 561.78754 195.99167 561.78754 196.54395C 561.78754 197.09624 561.9828 197.56764 562.37335 197.95816C 562.7639 198.3487 563.2353 198.54396 563.78754 198.54395C 564.33984 198.54396 564.8112 198.3487 565.2017 197.95816C 565.5923 197.56764 565.7876 197.09624 565.78754 196.54395" stroke="none" fill="#F2F2F2" fill-rule="nonzero" />
	<g>
	</g>
    <path d="M631.78754 52.54395C 631.7876 51.99167 631.5923 51.520264 631.2017 51.129734C 630.8112 50.739212 630.33984 50.543953 629.78754 50.54395C 629.2353 50.543953 628.7639 50.739212 628.37335 51.129734C 627.9828 51.520264 627.78754 51.99167 627.78754 52.54395C 627.78754 53.096237 627.9828 53.567642 628.37335 53.958164C 628.7639 54.348686 629.2353 54.54395 629.78754 54.54395C 630.33984 54.54395 630.8112 54.348686 631.2017 53.958164C 631.5923 53.567642 631.7876 53.096237 631.78754 52.54395" stroke="none" fill="#F2F2F2" fill-rule="nonzero" />
	<g>
	</g>
	<g>
	</g>
    <path d="M211.78757 288.54395L213.78757 288.54395L213.78757 289.54395L211.78757 289.54395z" stroke="none" fill="#F2F2F2" fill-rule="nonzero" />
	<g>
	</g>
    <path d="M270.78757 135.54395L272.78757 135.54395L272.78757 136.54395L270.78757 136.54395z" stroke="none" fill="#F2F2F2" fill-rule="nonzero" />
	<g>
	</g>
    <path d="M414.78757 249.54395L416.78757 249.54395L416.78757 250.54395L414.78757 250.54395z" stroke="none" fill="#F2F2F2" fill-rule="nonzero" />
	<g>
	</g>
    <path d="M796.78754 293.54395L798.78754 293.54395L798.78754 294.54395L796.78754 294.54395z" stroke="none" fill="#F2F2F2" fill-rule="nonzero" />
	<g>
	</g>
    <path d="M677.78754 140.54395L679.78754 140.54395L679.78754 141.54395L677.78754 141.54395z" stroke="none" fill="#F2F2F2" fill-rule="nonzero" />
	<g>
	</g>
    <path d="M225.08928 363.68008L228.60835 363.68008L228.60835 502.68338L225.08928 502.68338z" stroke="none" fill="#3F3D56" fill-rule="nonzero" />
	<g transform="matrix(1 0 0 1 -93.02536 -198.5)">
	</g>
    <path transform="matrix(1 0 0 1 -93.02536 -198.5)"  d="M354.11075 537.8945C 354.33475 586.5005 320.13788 626.0618 320.13788 626.0618C 320.13788 626.0618 285.5778 586.8173 285.35376 538.21136C 285.12973 489.6054 319.32663 450.044 319.32663 450.044C 319.32663 450.044 353.88672 489.28845 354.11075 537.8945z" stroke="none" fill="#3F3D56" fill-rule="nonzero" />
	<g>
	</g>
    <path d="M180.60974 322.47214L185.17206 322.47214L185.17206 502.68338L180.60974 502.68338z" stroke="none" fill="#3F3D56" fill-rule="nonzero" />
	<g transform="matrix(1 0 0 1 -93.02536 -198.5)">
	</g>
    <path transform="matrix(1 0 0 1 -93.02536 -198.5)"  d="M320.30234 501.938C 320.59277 564.95337 276.25812 616.24286 276.25812 616.24286C 276.25812 616.24286 231.45258 565.3642 231.16211 502.34888C 230.87164 439.33356 275.2064 388.044 275.2064 388.044C 275.2064 388.044 320.01193 438.92258 320.30234 501.938z" stroke="none" fill="#3F3D56" fill-rule="nonzero" />
	<g>
	</g>
    <path d="M712.0893 363.68008L715.60834 363.68008L715.60834 502.68338L712.0893 502.68338z" stroke="none" fill="#055052" fill-rule="nonzero" />
	<g transform="matrix(1 0 0 1 -93.02536 -198.5)">
	</g>
    <path transform="matrix(1 0 0 1 -93.02536 -198.5)"  d="M841.1108 579.8945C 841.3348 628.5005 807.13794 668.0618 807.13794 668.0618C 807.13794 668.0618 772.5779 628.8173 772.3538 580.21136C 772.12976 531.6054 806.32666 492.044 806.32666 492.044C 806.32666 492.044 840.8867 531.28845 841.1108 579.8945z" stroke="none" fill="#3F3D56" fill-rule="nonzero" />
	<g>
	</g>
    <path d="M141.08928 363.68008L144.60835 363.68008L144.60835 502.68338L141.08928 502.68338z" stroke="none" fill="#3F3D56" fill-rule="nonzero" />
	<g transform="matrix(1 0 0 1 -93.02536 -198.5)">
	</g>
    <path transform="matrix(1 0 0 1 -93.02536 -198.5)"  d="M270.11075 537.8945C 270.33475 586.5005 236.13788 626.0618 236.13788 626.0618C 236.13788 626.0618 201.57779 586.8173 201.35376 538.21136C 201.12973 489.6054 235.32664 450.044 235.32664 450.044C 235.32664 450.044 269.88672 489.28845 270.11075 537.8945z" stroke="none" fill="#3F3D56" fill-rule="nonzero" />
	<g>
	</g>
    <path d="M451.0893 363.68008L454.60837 363.68008L454.60837 502.68338L451.0893 502.68338z" stroke="none" fill="#3F3D56" fill-rule="nonzero" />
	<g transform="matrix(1 0 0 1 -93.02536 -198.5)">
	</g>
    <path transform="matrix(1 0 0 1 -93.02536 -198.5)"  d="M580.1108 537.8945C 580.3348 586.5005 546.13794 626.0618 546.13794 626.0618C 546.13794 626.0618 511.57785 586.8173 511.35382 538.21136C 511.1298 489.6054 545.32666 450.044 545.32666 450.044C 545.32666 450.044 579.8867 489.28845 580.1108 537.8945z" stroke="none" fill="#3F3D56" fill-rule="nonzero" />
	<g>
	</g>
    <path d="M406.60974 322.47214L411.17206 322.47214L411.17206 502.68338L406.60974 502.68338z" stroke="none" fill="#3F3D56" fill-rule="nonzero" />
	<g transform="matrix(1 0 0 1 -93.02536 -198.5)">
	</g>
    <path transform="matrix(1 0 0 1 -93.02536 -198.5)"  d="M546.30237 501.938C 546.5928 564.95337 502.25815 616.24286 502.25815 616.24286C 502.25815 616.24286 457.4526 565.3642 457.16214 502.34888C 456.87167 439.33356 501.2064 388.044 501.2064 388.044C 501.2064 388.044 546.0119 438.92258 546.30237 501.938z" stroke="none" fill="#3F3D56" fill-rule="nonzero" />
	<g>
	</g>
    <path d="M367.0893 363.68008L370.60837 363.68008L370.60837 502.68338L367.0893 502.68338z" stroke="none" fill="#3F3D56" fill-rule="nonzero" />
	<g transform="matrix(1 0 0 1 -93.02536 -198.5)">
	</g>
    <path transform="matrix(1 0 0 1 -93.02536 -198.5)"  d="M496.11075 537.8945C 496.33475 586.5005 462.13788 626.0618 462.13788 626.0618C 462.13788 626.0618 427.5778 586.8173 427.35376 538.21136C 427.12973 489.6054 461.32663 450.044 461.32663 450.044C 461.32663 450.044 495.88672 489.28845 496.11075 537.8945z" stroke="none" fill="#3F3D56" fill-rule="nonzero" />
	<g transform="matrix(1 0 0 1 -93.02536 -198.5)">
	</g>
    <path transform="matrix(1 0 0 1 -93.02536 -198.5)"  d="M831.3874 626.9133L772.5838 572.8448C 772.425 575.27454 772.34235 577.73035 772.3537 580.2113C 772.5778 628.8174 807.1379 668.06177 807.1379 668.06177C 817.1998 655.6122 825.3709 641.74695 831.3874 626.9133z" stroke="none" fill="#055052" fill-rule="nonzero" />
	<g transform="matrix(1 0 0 1 -93.02536 -198.5)">
	</g>
    <path transform="matrix(1 0 0 1 -93.02536 -198.5)"  d="M393.6691 688.7839C 395.68384 696.2316 402.5848 700.8442 402.5848 700.8442C 402.5848 700.8442 406.21924 693.3816 404.20447 685.93384C 402.1897 678.4861 395.28876 673.87354 395.28876 673.87354C 395.28876 673.87354 391.65436 681.3362 393.6691 688.7839z" stroke="none" fill="#3F3D56" fill-rule="nonzero" />
	<g transform="matrix(1 0 0 1 -93.02536 -198.5)">
	</g>
    <path transform="matrix(1 0 0 1 -93.02536 -198.5)"  d="M396.62964 687.1833C 402.15814 692.56506 402.8334 700.8381 402.8334 700.8381C 402.8334 700.8381 394.5452 700.38556 389.0167 695.0038C 383.4882 689.622 382.81293 681.34894 382.81293 681.34894C 382.81293 681.34894 391.10114 681.8015 396.62964 687.1833z" stroke="none" fill="#3F3D56" fill-rule="nonzero" />
	<g transform="matrix(1 0 0 1 -93.02536 -198.5)">
	</g>
    <path transform="matrix(1 0 0 1 -93.02536 -198.5)"  d="M677.6691 688.7839C 679.6839 696.2316 686.58484 700.8442 686.58484 700.8442C 686.58484 700.8442 690.21924 693.3816 688.2045 685.93384C 686.1898 678.4861 679.2888 673.87354 679.2888 673.87354C 679.2888 673.87354 675.65436 681.3362 677.6691 688.7839z" stroke="none" fill="#055052" fill-rule="nonzero" />
	<g transform="matrix(1 0 0 1 -93.02536 -198.5)">
	</g>
    <path transform="matrix(1 0 0 1 -93.02536 -198.5)"  d="M680.62964 687.1833C 686.15814 692.56506 686.83344 700.8381 686.83344 700.8381C 686.83344 700.8381 678.5452 700.38556 673.0167 695.0038C 667.4882 689.622 666.8129 681.34894 666.8129 681.34894C 666.8129 681.34894 675.10114 681.8015 680.62964 687.1833z" stroke="none" fill="#055052" fill-rule="nonzero" />
	<g transform="matrix(1 0 0 1 -93.02536 -198.5)">
	</g>
    <path transform="matrix(1 0 0 1 -93.02536 -198.5)"  d="M169.6691 688.7839C 171.68385 696.2316 178.58482 700.8442 178.58482 700.8442C 178.58482 700.8442 182.21924 693.3816 180.2045 685.93384C 178.18976 678.4861 171.28877 673.87354 171.28877 673.87354C 171.28877 673.87354 167.65434 681.3362 169.6691 688.7839z" stroke="none" fill="#3F3D56" fill-rule="nonzero" />
	<g transform="matrix(1 0 0 1 -93.02536 -198.5)">
	</g>
    <path transform="matrix(1 0 0 1 -93.02536 -198.5)"  d="M172.62962 687.1833C 178.15813 692.56506 178.83339 700.8381 178.83339 700.8381C 178.83339 700.8381 170.54518 700.38556 165.01668 695.0038C 159.48817 689.622 158.81291 681.34894 158.81291 681.34894C 158.81291 681.34894 167.10114 681.8015 172.62962 687.1833z" stroke="none" fill="#3F3D56" fill-rule="nonzero" />
	<g transform="matrix(1 0 0 1 -93.02536 -198.5)">
	</g>
    <path transform="matrix(1 0 0 1 -93.02536 -198.5)"  d="M480.35815 419.20746L576.8684 564.86914C 579.0242 556.0396 580.11273 546.9833 580.1108 537.8944C 580.0015 514.1924 571.7275 492.7193 563.2776 476.93442L563.2776 476.93442L558.8129 478.0439L563.0121 476.442C 558.0364 467.0603 552.1101 458.21454 545.32666 450.044C 545.32666 450.044 542.86426 452.894 539.2672 457.99866C 526.58765 416.87042 501.20642 388.044 501.20642 388.044C 493.2846 397.74713 486.30362 408.18216 480.35815 419.20746z" stroke="none" fill="#055052" fill-rule="nonzero" />
	<g transform="matrix(1 0 0 1 -93.02536 -198.5)">
	</g>
    <path transform="matrix(1 0 0 1 -93.02536 -198.5)"  d="M1035.6428 695.2889C 1036.6709 695.2889 1037.6208 694.7404 1038.1349 693.8501C 1038.6489 692.9598 1038.6489 691.86285 1038.1349 690.97253C 1037.6208 690.0822 1036.6709 689.53375 1035.6428 689.53375L1035.6428 689.53375L1011.983 689.53375C 1013.57214 692.7122 1012.2838 696.5772 1009.1054 698.1664C 1009.1054 698.92957 1009.40857 699.66144 1009.94824 700.2011C 1010.4879 700.7408 1011.2198 701.04395 1011.983 701.04395L1011.983 701.04395L1035.6428 701.04395C 1036.6709 701.04395 1037.6208 700.4955 1038.1349 699.60516C 1038.6489 698.71484 1038.6489 697.6179 1038.1349 696.7276C 1037.6208 695.8373 1036.6709 695.2888 1035.6428 695.2888L1035.6428 695.2888L1035.6428 695.2889z" stroke="none" fill="#F2F2F2" fill-rule="nonzero" fill-opacity="0.09803922" />
	<g transform="matrix(1 0 0 1 -93.02536 -198.5)">
	</g>
    <path transform="matrix(1 0 0 1 -93.02536 -198.5)"  d="M979.4086 689.35126C 979.8129 705.04395 970.3206 701.04395 958.8129 701.04395C 947.30524 701.04395 937.8129 703.04395 937.73535 689.35126C 937.69714 682.6085 947.13275 681.1419 958.6405 681.1419C 970.14825 681.1419 979.235 682.61066 979.4086 689.35126z" stroke="none" fill="#3F3D56" fill-rule="nonzero" />
	<g transform="matrix(1 0 0 1 -93.02536 -198.5)">
	</g>
    <path transform="matrix(1 0 0 1 -93.02536 -198.5)"  d="M1006.3305 695.55304C 1006.1447 695.4539 1005.94275 695.3889 1005.7341 695.361C 1004.68994 695.19525 1003.6554 694.97406 1002.6347 694.6984C 1001.60974 694.42035 1000.6681 693.8964 999.8914 693.17206C 999.6015 692.83167 999.2778 692.5216 998.92523 692.24664C 998.5598 691.97095 998.0665 691.9355 997.66547 692.1561C 997.62506 692.1879 997.5877 692.2234 997.5539 692.26215C 997.41113 692.16785 997.2682 692.0735 997.1252 691.9791L997.1252 691.9791L997.09393 691.9592C 997.1159 691.83844 997.11664 691.7147 997.0961 691.59375C 996.96185 691.19617 996.6904 690.8594 996.3305 690.6437C 997.3227 690.63416 998.32 690.5436 999.3061 690.43933C 1000.24524 690.4554 1001.1529 690.1006 1001.8322 689.4519C 1001.9346 689.3392 1001.99646 689.1956 1002.00824 689.0438C 1002.00946 688.73315 1001.6889 688.52997 1001.4014 688.41223C 1001.01874 688.2557 1000.62115 688.13837 1000.2148 688.06213C 999.93066 688.0222 999.64954 687.9635 999.3732 687.8865C 999.12726 687.797 998.8901 687.68494 998.66473 687.5517C 998.17596 687.28265 997.6872 687.0137 997.1984 686.7446C 996.9901 686.64355 996.7988 686.5108 996.6313 686.3511C 996.38226 686.0876 996.27216 685.7152 996.0184 685.4563C 995.7846 685.2177 994.8392 684.9036 994.7039 685.39246C 994.65045 685.5855 994.85443 685.7992 994.8791 686.0151C 994.552 685.80963 994.21313 685.6235 993.8643 685.4575C 993.88324 685.41437 993.9084 685.3752 993.92474 685.3305C 992.30237 684.03015 991.01355 682.3615 990.1652 680.46313C 990.3106 680.4664 990.4559 680.47565 990.6012 680.4745C 990.8486 680.4972 991.0965 680.43665 991.30554 680.3024C 991.4802 680.1436 991.57227 679.9133 991.5552 679.6778C 991.5364 679.4457 991.47943 679.21826 991.3866 679.0047C 991.1793 678.3647 990.84863 677.7714 990.4132 677.2584C 989.99146 676.85114 989.5107 676.5096 988.9872 676.2454L988.9872 676.2454L988.9027 676.19794C 988.86707 676.08997 988.8346 675.98096 988.7915 675.87537C 988.4757 675.21906 988.1185 674.5835 987.72205 673.97253C 987.16406 672.9495 986.7525 671.85333 986.49927 670.7159C 986.4056 670.023 986.14026 669.3645 985.7274 668.80023C 984.96423 667.95917 983.6554 667.9804 982.527 668.1076C 981.8832 668.1802 981.2423 668.27716 980.6022 668.3766C 980.59607 668.36053 980.5957 668.34283 980.58923 668.3269C 980.509 668.1762 980.4589 668.0113 980.4419 667.84143C 980.4578 667.70245 980.4882 667.5656 980.5326 667.43304C 980.6025 667.09827 980.49695 666.7509 980.25256 666.51166C 980.22595 666.48615 980.1996 666.4574 980.1731 666.4294C 980.2435 666.2631 980.3082 666.0954 980.36707 665.9262C 980.4745 665.8 980.5254 665.63525 980.5078 665.4705C 980.6241 665.06067 980.68555 664.63727 980.69055 664.21136C 980.5591 663.27045 980.5252 662.31836 980.5895 661.37036C 980.55615 661.13556 980.4707 660.9112 980.3395 660.7136C 980.31604 660.68207 980.277 660.6676 980.25037 660.6395C 980.4452 660.3812 980.6705 660.14734 980.92126 659.94293C 981.4142 659.56256 981.9412 659.2286 982.4957 658.9452C 982.62854 658.8721 982.81384 658.82007 982.9408 658.73627C 983.1355 658.7691 983.33215 658.7889 983.5294 658.7956C 985.0175 658.8046 986.4133 658.0756 987.2561 656.8492C 988.0989 655.62274 988.2791 654.05835 987.7372 652.6724C 988.14764 652.5727 988.5008 652.3121 988.71716 651.9493C 988.93677 651.56805 989.0681 651.1424 989.1017 650.7037C 989.1726 650.36346 989.10486 650.009 988.91345 649.719C 988.7451 649.5558 988.5518 649.4206 988.3408 649.3184C 988.04987 649.13666 987.80554 648.8893 987.62744 648.5961C 987.501 648.3874 987.41046 648.15924 987.29675 647.9433C 986.91223 647.1279 986.1063 646.5939 985.20557 646.55743C 984.7856 646.61084 984.3699 646.69366 983.96155 646.80536C 982.56165 647.05084 981.0398 646.3101 979.7411 646.8878C 979.42145 647.0432 979.1244 647.24133 978.85803 647.4767C 978.4923 647.77826 978.14087 648.09595 977.8036 648.42975C 977.5107 648.6794 977.289 649.0021 977.161 649.36505C 976.9846 650.0276 977.4042 650.7679 977.1372 651.3994C 977.0458 651.5802 976.93677 651.75146 976.81165 651.91077C 976.51697 652.3429 976.83704 654.0299 976.80457 654.55194C 976.76697 654.8075 976.8319 655.06757 976.9852 655.2755C 977.0243 655.31476 977.06854 655.3485 977.1167 655.3759C 974.93854 656.15295 972.8084 657.0583 970.7373 658.08716C 968.25085 659.29 966.187 661.21765 964.81775 663.6164C 964.4662 664.30194 964.19885 665.02704 963.88074 665.7288C 963.4568 666.6647 962.9437 667.557 962.4314 668.4477C 961.8065 669.53406 961.18054 670.6223 960.4579 671.64624C 960.04584 672.1891 959.66437 672.7545 959.3153 673.33984C 959.30597 673.4251 959.30347 673.51105 959.30774 673.59674C 959.3216 673.67755 959.3136 673.7606 959.28455 673.83734C 959.22107 673.9274 959.121 673.9847 959.0112 673.9937L959.0112 673.9937L958.9942 674.0378C 958.83093 674.5641 958.69556 675.0987 958.5887 675.63916C 958.3753 676.49817 958.0352 677.3273 957.90436 678.2027C 957.7488 678.4268 957.7418 678.72205 957.88666 678.95325C 958.03143 679.1844 958.3001 679.307 958.56964 679.26495C 959.3188 679.59814 960.0406 679.9883 960.7601 680.3818C 960.74945 680.4346 960.733 680.4854 960.72626 680.53937C 960.6774 681.6759 961.2861 682.7393 962.2907 683.2729C 963.2834 683.78 964.3706 684.0755 965.48346 684.14056C 965.91486 684.1923 966.34894 684.21643 966.78107 684.2605C 967.4116 684.61115 968.0828 684.8831 968.7796 685.0703C 968.93176 685.1146 969.0889 685.1393 969.2474 685.1436C 969.6766 685.11487 970.0697 684.8934 970.3167 684.5412C 974.03516 684.74664 977.7638 684.67053 981.47076 684.3136C 982.4968 684.0747 983.57556 684.24194 984.48114 684.7803C 985.2852 685.4337 985.44684 686.59204 986.04425 687.4387C 986.4786 687.9607 986.966 688.43616 987.4986 688.8574C 988.5575 689.9783 989.49365 691.2088 990.2913 692.52826C 991.0969 693.8606 992.26355 694.9375 993.65607 695.63416C 993.90656 695.2346 994.2701 694.9184 994.7005 694.72565C 994.8118 694.6594 994.918 694.58215 995.0274 694.5109C 995.17444 694.74963 995.3456 694.9727 995.538 695.1766C 995.6812 695.3315 995.8238 695.4951 995.9577 695.66394C 995.9534 695.66437 995.94977 695.66187 995.9455 695.66254C 995.7508 695.6931 995.6856 695.9364 995.66327 696.1322C 995.5777 696.88196 995.49207 697.6317 995.40625 698.3814C 995.3759 698.52954 995.3863 698.68317 995.4363 698.8259C 995.5286 698.9809 995.67145 699.0995 995.8408 699.1616C 996.5367 699.49554 997.2896 699.69415 998.0596 699.74695C 998.447 699.77325 998.8364 699.76245 999.22314 699.7965C 999.8575 699.87866 1000.48553 700.004 1001.1028 700.17175C 1002.78314 700.5549 1004.5105 700.6901 1006.23 700.57324C 1006.585 700.56464 1006.9363 700.4981 1007.2699 700.3762C 1007.6644 700.18695 1008.0143 699.91614 1008.2964 699.58154C 1008.6547 699.2416 1008.9205 698.8159 1009.0686 698.34467C 1009.83954 697.58856 1009.8515 696.3507 1009.0954 695.5798C 1008.3393 694.8089 1007.10144 694.79694 1006.3305 695.55304z" stroke="none" fill="#3F3D56" fill-rule="nonzero" />
	<g transform="matrix(1 0 0 1 -93.02536 -198.5)">
	</g>
    <path transform="matrix(1 0 0 1 -93.02536 -198.5)"  d="M978.6662 645.3187C 978.8322 645.2896 978.9958 645.24445 979.1596 645.2023C 978.6331 645.1369 978.09863 645.18854 977.5944 645.3535C 977.9518 645.386 978.31177 645.3743 978.6662 645.3187z" stroke="none" fill="#FF6584" fill-rule="nonzero" />
	<g transform="matrix(1 0 0 1 -93.02536 -198.5)">
	</g>
    <path transform="matrix(1 0 0 1 -93.02536 -198.5)"  d="M982.0014 646.45667C 982.11505 646.6726 982.2056 646.90076 982.3321 647.1095C 982.5102 647.40265 982.7545 647.65 983.0455 647.8318C 983.2565 647.934 983.44977 648.0692 983.6181 648.23236C 983.8095 648.5224 983.87726 648.8769 983.80634 649.21704C 983.77277 649.65576 983.6414 650.0814 983.4218 650.46265C 983.20544 650.82544 982.8523 651.08606 982.44183 651.1858C 983.06866 652.6686 982.8375 654.3751 981.83887 655.6377C 980.84015 656.90027 979.2327 657.5182 977.64545 657.24963C 977.51843 657.33344 977.3332 657.38544 977.2004 657.45856C 976.6459 657.7419 976.11884 658.07587 975.6259 658.4563C 975.3751 658.66064 975.14984 658.89453 974.955 659.1529C 974.9816 659.181 975.0207 659.19543 975.0441 659.227C 975.17535 659.42456 975.2608 659.6489 975.2941 659.8837C 975.22986 660.83167 975.26373 661.78375 975.3952 662.72473C 975.3902 663.15063 975.32874 663.57404 975.21246 663.9839C 975.23004 664.1486 975.17914 664.31335 975.0717 664.4396C 975.0126 664.60876 974.9479 664.7765 974.87775 664.94275C 974.90424 664.97076 974.9306 664.9995 974.9572 665.025C 975.2016 665.2643 975.3071 665.61163 975.23724 665.9464C 975.1929 666.07904 975.1625 666.2159 975.14655 666.3548C 975.1636 666.52466 975.2136 666.6896 975.2939 666.8403C 975.30035 666.8562 975.3007 666.8739 975.3068 666.88995C 975.94696 666.7905 976.5878 666.69354 977.2316 666.621C 977.5488 666.5839 977.8677 666.56305 978.18695 666.5583C 978.16284 666.493 978.14923 666.4243 978.14655 666.3548C 978.1625 666.2159 978.1929 666.07904 978.23724 665.9464C 978.3071 665.61163 978.2016 665.2643 977.9572 665.025C 977.9306 664.9995 977.90424 664.97076 977.87775 664.94275C 977.94824 664.7765 978.0129 664.60876 978.0717 664.4396C 978.17914 664.31335 978.23004 664.1486 978.21246 663.9839C 978.32874 663.57404 978.3902 663.15063 978.3952 662.72473C 978.26373 661.78375 978.22986 660.83167 978.2941 659.8837C 978.2608 659.6489 978.17535 659.42456 978.0441 659.227C 978.0207 659.19543 977.9816 659.18097 977.955 659.1529C 978.14984 658.89453 978.3751 658.66064 978.6259 658.4563C 979.11884 658.07587 979.6459 657.7419 980.2004 657.45856C 980.3332 657.38544 980.5185 657.33344 980.64545 657.24963C 980.84015 657.2825 981.0368 657.30225 981.2341 657.30896C 982.72217 657.318 984.118 656.589 984.96075 655.36255C 985.8035 654.1361 985.98376 652.5717 985.44183 651.1858C 985.8523 651.08606 986.20544 650.82544 986.4218 650.46265C 986.6414 650.0814 986.77277 649.65576 986.80634 649.21704C 986.87726 648.8769 986.8095 648.5224 986.6181 648.23236C 986.44977 648.0692 986.2565 647.934 986.0455 647.8318C 985.7545 647.65 985.5102 647.40265 985.3321 647.1095C 985.2056 646.90076 985.1151 646.6726 985.0014 646.45667C 984.6169 645.6413 983.811 645.10724 982.9102 645.0708C 982.49023 645.1242 982.0745 645.20703 981.6662 645.3187C 981.4371 645.35516 981.205 645.37054 980.9731 645.3645C 981.4091 645.6279 981.7647 646.0056 982.0014 646.45667z" stroke="none" fill="#FF6584" fill-rule="nonzero" />
	<g transform="matrix(1 0 0 1 -93.02536 -198.5)">
	</g>
    <path transform="matrix(1 0 0 1 -93.02536 -198.5)"  d="M1006.3305 695.55304C 1006.1447 695.4539 1005.94275 695.3889 1005.7341 695.361C 1004.68994 695.19525 1003.6554 694.97406 1002.6347 694.6984C 1001.60974 694.42035 1000.6681 693.8964 999.8914 693.17206C 999.6015 692.83167 999.2778 692.5216 998.92523 692.24664C 998.5598 691.97095 998.0665 691.9355 997.66547 692.1561C 997.62506 692.1879 997.5877 692.2234 997.5539 692.26215C 997.41113 692.16785 997.2682 692.0735 997.1252 691.9791L997.1252 691.9791L997.09393 691.9592C 997.1159 691.83844 997.11664 691.7147 997.0961 691.59375C 996.96185 691.19617 996.6904 690.8594 996.3305 690.6437C 997.3227 690.63416 998.32 690.5436 999.3061 690.43933C 1000.24524 690.4554 1001.1529 690.1006 1001.8322 689.4519C 1001.9346 689.3392 1001.99646 689.1956 1002.00824 689.0438C 1002.00946 688.73315 1001.6889 688.52997 1001.4014 688.41223C 1001.01874 688.2557 1000.62115 688.13837 1000.2148 688.06213C 999.93066 688.0222 999.64954 687.9635 999.3732 687.8865C 999.12726 687.797 998.8901 687.68494 998.66473 687.5517C 998.17596 687.28265 997.6872 687.0137 997.1984 686.7446C 996.9901 686.64355 996.7988 686.5108 996.6313 686.3511C 996.38226 686.0876 996.27216 685.7152 996.0184 685.4563C 995.7846 685.2177 994.8392 684.9036 994.7039 685.39246C 994.65045 685.5855 994.85443 685.7992 994.8791 686.0151C 994.552 685.80963 994.21313 685.6235 993.8643 685.4575C 993.88324 685.41437 993.9084 685.3752 993.92474 685.3305C 992.30237 684.03015 991.01355 682.3615 990.1652 680.46313C 990.3106 680.4664 990.4559 680.47565 990.6012 680.4745C 990.8486 680.4972 991.0965 680.43665 991.30554 680.3024C 991.4802 680.1436 991.57227 679.9133 991.5552 679.6778C 991.5364 679.4457 991.47943 679.21826 991.3866 679.0047C 991.1793 678.3647 990.84863 677.7714 990.4132 677.2584C 989.99146 676.85114 989.5107 676.5096 988.9872 676.2454L988.9872 676.2454L988.9027 676.19794C 988.86707 676.08997 988.8346 675.98096 988.7915 675.87537C 988.4757 675.21906 988.1185 674.5835 987.72205 673.97253C 987.16406 672.9495 986.7525 671.85333 986.49927 670.7159C 986.4056 670.023 986.14026 669.3645 985.7274 668.80023C 984.96423 667.95917 983.6554 667.9804 982.527 668.1076C 982.2748 668.13605 982.0244 668.17834 981.77295 668.21295C 982.1378 668.3201 982.46735 668.5229 982.7274 668.80023C 983.14026 669.3645 983.4056 670.023 983.49927 670.7159C 983.7525 671.85333 984.16406 672.9495 984.72205 673.97253C 985.1185 674.5835 985.4757 675.21906 985.7915 675.87537C 985.8346 675.98096 985.86707 676.08997 985.9027 676.19794L985.9027 676.19794L985.9872 676.2454C 986.5107 676.5096 986.99146 676.85114 987.4132 677.2584C 987.84863 677.7714 988.1793 678.3647 988.3866 679.0047C 988.47943 679.21826 988.5364 679.4457 988.5552 679.6778C 988.57227 679.9133 988.4802 680.1436 988.30554 680.3024C 988.0965 680.43665 987.8486 680.4972 987.6012 680.4745C 987.4558 680.47565 987.31055 680.4664 987.1652 680.46313C 988.01355 682.3615 989.30237 684.03015 990.92474 685.3305C 990.9084 685.3752 990.88324 685.41437 990.8643 685.4575C 991.21313 685.6235 991.552 685.80963 991.8791 686.0151C 991.85443 685.7992 991.65045 685.5855 991.7039 685.39246C 991.8392 684.9036 992.7846 685.2177 993.0184 685.4563C 993.27216 685.7152 993.38226 686.0876 993.6313 686.3511C 993.7988 686.5108 993.9901 686.64355 994.1984 686.7446C 994.6872 687.0136 995.17596 687.2826 995.66473 687.5517C 995.8901 687.68494 996.12726 687.797 996.3732 687.8865C 996.64954 687.9635 996.93066 688.0222 997.2148 688.06213C 997.62115 688.13837 998.01874 688.2557 998.4014 688.41223C 998.6889 688.52997 999.0094 688.73315 999.00824 689.0438C 998.99646 689.1956 998.9346 689.3392 998.8322 689.4519C 998.1529 690.1006 997.24524 690.4554 996.3061 690.43933C 995.32 690.5436 994.3227 690.63416 993.3305 690.6437C 993.6904 690.8594 993.96185 691.19617 994.0961 691.59375C 994.11664 691.7147 994.1159 691.83844 994.09393 691.9592L994.09393 691.9592L994.1252 691.9791C 994.894 692.46906 995.6591 692.9646 996.4206 693.4659C 996.4544 693.4271 996.49176 693.39166 996.53217 693.35986C 996.9332 693.1392 997.4265 693.1747 997.79193 693.4504C 998.1445 693.72534 998.4682 694.0354 998.7581 694.3758C 999.5348 695.10016 1000.47644 695.6241 1001.5014 695.90216C 1002.5221 696.1778 1003.55664 696.399 1004.60077 696.56476C 1004.80945 696.59265 1005.0114 696.65765 1005.1972 696.7568C 1005.6045 697.0555 1005.78143 697.57697 1005.6401 698.0618C 1005.49194 698.5331 1005.2262 698.95874 1004.86786 699.2987C 1004.58575 699.6333 1004.2359 699.9041 1003.8414 700.0934C 1003.59717 700.186 1003.34076 700.2423 1003.08026 700.2607C 1003.9852 700.3406 1004.895 700.3505 1005.80145 700.29034C 1006.1565 700.28174 1006.50775 700.2152 1006.8414 700.0933C 1007.2359 699.90405 1007.58575 699.63324 1007.86786 699.29865C 1008.2262 698.9586 1008.49194 698.53296 1008.6401 698.06177C 1009.3328 697.42395 1009.37744 696.34534 1008.7396 695.6526C 1008.10187 694.95984 1007.02325 694.9152 1006.3305 695.55304z" stroke="none" fill="#FF6584" fill-rule="nonzero" />
	<g transform="matrix(1 0 0 1 -93.02536 -198.5)">
	</g>
    <path transform="matrix(1 0 0 1 -93.02536 -198.5)"  d="M989.6943 693.04913C 989.74384 693.0945 989.7923 693.14136 989.84296 693.1852C 989.8061 693.13135 989.7652 693.07965 989.7321 693.0243L989.7321 693.0243L989.6943 693.04913z" stroke="none" fill="#FF6584" fill-rule="nonzero" />
	<g transform="matrix(1 0 0 1 -93.02536 -198.5)">
	</g>
    <path transform="matrix(1 0 0 1 -93.02536 -198.5)"  d="M1034.3639 684.73785C 1034.3639 695.3327 1029.64 692.4113 1023.81287 692.4113C 1017.9857 692.4113 1013.26184 695.3327 1013.26184 684.73785C 1013.26184 674.143 1023.81287 654.04395 1023.81287 654.04395C 1023.81287 654.04395 1034.3639 674.143 1034.3639 684.73785z" stroke="none" fill="#FF6584" fill-rule="nonzero" />
	<g transform="matrix(1 0 0 1 -93.02536 -198.5)">
	</g>
    <path transform="matrix(1 0 0 1 -93.02536 -198.5)"  d="M1028.6089 688.7915C 1028.6089 693.60736 1026.4617 692.2794 1023.813 692.2794C 1021.1643 692.2794 1019.0171 693.6073 1019.0171 688.7915C 1019.0171 683.9757 1023.813 674.8397 1023.813 674.8397C 1023.813 674.8397 1028.6089 683.97565 1028.6089 688.7915z" stroke="none" fill="#000000" fill-rule="nonzero" fill-opacity="0.09803922" />
	<g transform="matrix(1 0 0 1 -93.02536 -198.5)">
	</g>
    <path transform="matrix(1 0 0 1 -93.02536 -198.5)"  d="M1037.0381 656.42816C 1037.0381 656.42816 1039.2301 654.14886 1039.1865 651.91327" stroke="none" fill="#FF6584" fill-rule="nonzero" />
	<g transform="matrix(1 0 0 1 -93.02536 -198.5)">
	</g>
    <path transform="matrix(1 0 0 1 -93.02536 -198.5)"  d="M1014.5745 637.4359C 1014.5745 637.4359 1013.6594 634.40894 1011.68835 633.353" stroke="none" fill="#FF6584" fill-rule="nonzero" />
	<g transform="matrix(1 0 0 1 -93.02536 -198.5)">
	</g>
    <path transform="matrix(1 0 0 1 -93.02536 -198.5)"  d="M992.5745 596.4359C 992.5745 596.4359 991.6594 593.40894 989.68835 592.353" stroke="none" fill="#FF6584" fill-rule="nonzero" />
	<g transform="matrix(1 0 0 1 -93.02536 -198.5)">
	</g>
    <path transform="matrix(1 0 0 1 -93.02536 -198.5)"  d="M1018.5745 651.4359C 1018.5745 651.4359 1017.6594 648.40894 1015.68835 647.353" stroke="none" fill="#FF6584" fill-rule="nonzero" />
	<g transform="matrix(1 0 0 1 -93.02536 -198.5)">
	</g>
    <path transform="matrix(1 0 0 1 -93.02536 -198.5)"  d="M1015.5745 602.4359C 1015.5745 602.4359 1014.6594 599.40894 1012.68835 598.353" stroke="none" fill="#FF6584" fill-rule="nonzero" />
	<g transform="matrix(1 0 0 1 -93.02536 -198.5)">
	</g>
    <path transform="matrix(1 0 0 1 -93.02536 -198.5)"  d="M1009.5745 620.4359C 1009.5745 620.4359 1008.6594 617.40894 1006.68835 616.353" stroke="none" fill="#FF6584" fill-rule="nonzero" />
	<g transform="matrix(1 0 0 1 -93.02536 -198.5)">
	</g>
    <path transform="matrix(1 0 0 1 -93.02536 -198.5)"  d="M1035.0381 687.42816C 1035.0381 687.42816 1037.2301 685.14886 1037.1865 682.91327" stroke="none" fill="#FF6584" fill-rule="nonzero" />
	<g transform="matrix(1 0 0 1 -93.02536 -198.5)">
	</g>
    <path transform="matrix(1 0 0 1 -93.02536 -198.5)"  d="M1039.0381 670.42816C 1039.0381 670.42816 1041.2301 668.14886 1041.1865 665.91327" stroke="none" fill="#FF6584" fill-rule="nonzero" />
	<g transform="matrix(0.94868326 -0.3162278 0.3162278 0.94868326 -254.23721 152.15569)">
	</g>
    <path d="M894.6294 477.06927L918.6294 469.06927L918.9458 470.0185L894.9458 478.0185z" stroke="none" fill="#FF6584" fill-rule="nonzero" />
	<g transform="matrix(1 0 0 1 -93.02536 -198.5)">
	</g>
    <path transform="matrix(1 0 0 1 -93.02536 -198.5)"  d="M1009.9122 668.52344C 1010.8129 672.04395 1009.30054 671.203 1007.9211 671.48846C 1006.5416 671.7739 1006.8129 673.04395 1004.9167 669.55725C 1003.6052 667.1458 1005.5283 666.8777 1006.9078 666.5922C 1008.28723 666.30676 1009.29706 666.1194 1009.9122 668.52344z" stroke="none" fill="#FF6584" fill-rule="nonzero" />
	<g>
	</g>
    <path d="M574.728 277.957L574.728 277.957L574.727 277.956L552.908 257.894L552.712 257.943L543.975 250L543.553 249.877L544.008 249.704L451.089 164.271L451.089 164.271L361.353 81.762L315.628 106.016L311.888 106.844L366.685 189.544L574.068 502.544L818.988 502.544L574.728 277.957L574.728 277.957" stroke="none" fill="#F2F2F2" fill-rule="nonzero" fill-opacity="0.09803922" />
    <path d="M361.78757 92.54395C 361.78757 85.088104 359.15155 78.72415 353.87946 73.45207C 348.6074 68.17999 342.2434 65.54395 334.78757 65.54395C 327.33173 65.54395 320.96777 68.17999 315.69568 73.45207C 310.4236 78.72415 307.78757 85.088104 307.78757 92.54395C 307.78757 99.9998 310.4236 106.36376 315.69568 111.63583C 320.96777 116.90791 327.33173 119.54395 334.78757 119.54395C 342.2434 119.54395 348.6074 116.90791 353.87946 111.63583C 359.15155 106.36376 361.78757 99.9998 361.78757 92.54395" stroke="none" fill="#F2F2F2" fill-rule="nonzero" />
	<g>
	</g>
</g>
</svg>