<?xml version="1.0" standalone="no"?>
<!DOCTYPE svg PUBLIC "-//W3C//DTD SVG 1.0//EN" "http://www.w3.org/TR/2001/REC-SVG-20010904/DTD/svg10.dtd">
<svg xmlns="http://www.w3.org/2000/svg" xmlns:xlink="http://www.w3.org/1999/xlink" id="body_1" width="426" height="330">

<g transform="matrix(0.39967832 0 0 0.39967832 -0 0.30067354)">
	<g transform="matrix(1 0 0 1 -67.07143 -37.92028)">
	</g>
    <path transform="matrix(1 0 0 1 -67.07143 -37.92028)"  d="M1037.7968 296.2644C 1047.4385 292.06046 1027.8851 289.61322 1005.70087 288.8086C 983.5166 288.00397 956.68024 288.0485 942.5033 285.75986C 928.7922 283.54642 929.80237 279.61078 928.64905 276.04498C 927.4957 272.4792 922.2246 268.82294 900.8298 268.03027C 874.16907 267.04254 830.204 270.8446 810.07806 268.562C 791.2969 266.43192 802.4608 259.75018 775.07465 259.49448C 759.4363 259.34848 739.28973 261.5513 721.88885 262.08292C 705.55237 262.58203 693.4667 261.54852 684.9853 260.1589C 676.5039 258.7693 670.59656 257.00766 661.05115 255.78026C 635.9905 252.55786 586.95984 253.641 543.1981 257.77097C 499.4364 261.90094 461.92468 268.66913 440.76923 275.3727C 419.61377 282.0763 413.769 288.67645 418.69687 294.2734C 421.8436 297.8474 429.89603 301.18924 449.42923 302.6254C 485.96478 305.3116 551.0131 300.6879 588.76636 303.13184C 609.80786 304.49396 619.14276 307.87106 637.6045 309.719C 657.43854 311.70428 686.4738 311.8095 715.00104 311.7624C 774.39825 311.6643 835.31476 311.0541 897.43097 309.9349C 923.37585 309.46744 950.561 308.8597 978.1686 306.63202C 1005.7762 304.40433 1033.9348 300.1061 1039.7593 296.07672" stroke="none" fill="#F2F2F2" fill-rule="nonzero" />
	<g transform="matrix(1 0 0 1 -67.07143 -37.92028)">
	</g>
    <path transform="matrix(1 0 0 1 -67.07143 -37.92028)"  d="M1122.1285 642.96454C 1111.5685 664.29456 1094.8986 682.9346 1075.7385 697.3145C 1046.3685 719.3645 1011.4085 732.6145 976.4185 743.7945C 778.7985 806.9645 562.9385 811.8445 362.66852 757.6745C 307.26852 742.6945 251.58852 722.45447 208.49852 684.5445C 194.7063 672.4059 182.67677 658.40063 172.75851 642.9345C 230.10852 611.4145 299.61853 599.5345 365.94852 600.9845C 461.0385 603.0645 553.9085 628.4445 648.1085 641.5745C 759.0426 657.01526 871.68176 655.464 982.14856 636.97455C 1020.46857 630.54456 1060.1285 622.1345 1097.6385 632.3146C 1106.262 634.69556 1114.5065 638.2809 1122.1285 642.96454z" stroke="none" fill="#F2F2F2" fill-rule="nonzero" />
	<g transform="matrix(1 0 0 1 -67.07143 -37.92028)">
	</g>
    <path transform="matrix(1 0 0 1 -67.07143 -37.92028)"  d="M1070.7495 784.7602C 1069.1526 789.24304 1066.5375 793.29425 1063.11 796.5952C 1057.9493 801.6732 1051.466 805.1783 1044.9224 808.2797C 1007.6871 825.8451 966.19684 832.3684 925.3679 827.0768C 914.15094 825.6018 902.7414 823.10645 893.3287 816.8287C 890.31573 814.8184 887.5983 812.3973 885.25507 809.6353C 895.6344 801.9737 908.9043 797.8308 921.9023 796.37573C 940.5361 794.29004 959.34674 796.815 978.0962 796.9116C 1000.17584 797.0212 1022.1434 793.76605 1043.2424 787.2583C 1050.5612 784.9977 1058.0897 782.31506 1065.6854 783.32104C 1067.4327 783.5603 1069.1376 784.0448 1070.7495 784.7602z" stroke="none" fill="#F2F2F2" fill-rule="nonzero" />
	<g transform="matrix(1 0 0 1 -67.07143 -37.92028)">
	</g>
    <path transform="matrix(1 0 0 1 -67.07143 -37.92028)"  d="M441.291 800.11975C 438.307 803.8266 434.50375 806.7908 430.1803 808.779C 423.63535 811.8744 416.35928 813.049 409.15942 813.82275C 368.21667 818.1471 326.89246 810.64404 290.0831 792.20276C 279.97742 787.11633 270.02594 781.00305 263.20544 771.9758C 261.02252 769.0856 259.2539 765.9046 257.95087 762.5251C 270.27423 758.7087 284.16827 759.16656 296.92047 762.0728C 315.20178 766.23944 332.13187 774.8178 349.8038 781.0832C 370.61594 788.45734 392.43008 792.61755 414.4954 793.42065C 422.1503 793.6961 430.1424 793.6423 436.98322 797.0934C 438.55426 797.8946 440.00446 798.91345 441.291 800.11975z" stroke="none" fill="#F2F2F2" fill-rule="nonzero" />
	<g transform="matrix(1 0 0 1 -67.07143 -37.92028)">
	</g>
    <path transform="matrix(1 0 0 1 -67.07143 -37.92028)"  d="M724.021 832.1044C 721.84235 836.3351 718.7119 840.0027 714.87585 842.8187C 709.086 847.1656 702.1941 849.77765 695.2963 851.9816C 656.0564 864.441 614.06726 865.3906 574.3042 854.718C 563.3829 851.76495 552.4063 847.7749 543.91174 840.3015C 541.19275 837.9085 538.8213 835.1476 536.8661 832.0987C 548.1718 825.88495 561.87476 823.54297 574.95074 823.8288C 593.6964 824.2388 612.0044 829.2421 630.5746 831.8305C 652.44366 834.8744 674.6489 834.56854 696.4259 830.9236C 703.98016 829.656 711.7986 827.9981 719.1931 830.00494C 720.89307 830.4743 722.5184 831.1811 724.021 832.1044z" stroke="none" fill="#F2F2F2" fill-rule="nonzero" />
	<g transform="matrix(1 0 0 1 -67.07143 -37.92028)">
	</g>
    <path transform="matrix(1 0 0 1 -67.07143 -37.92028)"  d="M768.1493 581.42004L739.9321 568.9713L739.9321 558.269L749.9882 558.21246C 753.18774 558.1945 756.02045 556.14075 757.0322 553.10535L757.0322 553.10535L764.0966 531.91235C 764.85583 529.6346 764.4738 527.13074 763.06995 525.183C 761.6661 523.2352 759.4115 522.0811 757.0106 522.0811L757.0106 522.0811L739.9321 522.0811L739.9321 512.12213L761.3724 512.12213C 764.85284 512.12213 767.872 509.71826 768.65173 506.3263L768.65173 506.3263L773.5167 485.16342C 774.0265 482.94614 773.49786 480.61743 772.08075 478.83755C 770.66364 477.0577 768.5125 476.02075 766.23737 476.02078L766.23737 476.02078L739.9321 476.02078L739.9321 473.531C 739.9273 470.78433 737.69934 468.56027 734.95264 468.56027C 732.20593 468.56027 729.97797 470.78433 729.97314 473.531L729.97314 473.531L729.97314 476.02075L553.616 476.02075L553.616 473.531C 553.616 470.7809 551.38666 468.5515 548.63654 468.5515C 545.8864 468.5515 543.65704 470.7809 543.65704 473.531L543.65704 473.531L543.65704 476.02075L522.7462 476.02075C 520.4711 476.02075 518.32 477.05768 516.9029 478.83752C 515.4858 480.6174 514.95715 482.9461 515.46686 485.1634L515.46686 485.1634L520.33185 506.32626C 521.11163 509.71823 524.1308 512.1221 527.6112 512.12213L527.6112 512.12213L543.657 512.12213L543.657 522.0811L531.97266 522.0811C 529.5849 522.0811 527.3411 523.2227 525.9353 525.1527C 524.5295 527.0827 524.1311 529.5685 524.8634 531.8411L524.8634 531.8411L532.0738 554.21826C 533.07306 557.31934 535.96704 559.4149 539.22504 559.3966L539.22504 559.3966L543.65704 559.3717L543.65704 568.9714L520.83435 581.4201C 518.8534 581.4201 516.95355 582.20703 515.5528 583.6078C 514.15204 585.00854 513.3651 586.9084 513.3651 588.88934C 513.3651 593.0145 516.70917 596.3586 520.83435 596.3586L520.83435 596.3586L543.657 596.3586L543.657 651.133C 543.6618 653.87964 545.8898 656.1037 548.6365 656.1037C 551.3832 656.1037 553.61115 653.87964 553.61597 651.133L553.61597 651.133L553.61597 596.3585L729.97314 596.3585L729.97314 651.133C 729.97797 653.87964 732.20593 656.1037 734.95264 656.1037C 737.69934 656.1037 739.9273 653.87964 739.9321 651.133L739.9321 651.133L739.9321 596.3585L768.1493 596.3585C 772.2745 596.3585 775.6185 593.01447 775.6185 588.8893C 775.6185 586.9083 774.8316 585.0085 773.43085 583.6077C 772.0301 582.207 770.13025 581.42004 768.1493 581.42004zM553.61597 512.1221L729.97314 512.1221L729.97314 522.08105L553.616 522.08105zM553.61597 568.9713L553.61597 559.3157L729.97314 558.3249L729.97314 568.9713z" stroke="none" fill="#F2F2F2" fill-rule="nonzero" />
	<g transform="matrix(1 0 0 1 -67.07143 -37.92028)">
	</g>
    <path transform="matrix(1 0 0 1 -67.07143 -37.92028)"  d="M468.9018 410.17233C 465.10223 403.13733 464.5718 393.91696 469.23712 387.42374C 471.5445 395.80685 476.74277 403.10364 483.91217 408.02304C 486.684 409.91022 489.9634 411.7206 490.91165 414.93704C 491.41046 416.98746 491.10312 419.15112 490.053 420.9815C 489.00476 422.78845 487.72934 424.45364 486.25793 425.93643L486.25793 425.93643L486.1236 426.43967C 479.2452 422.3635 472.7014 417.20734 468.9018 410.17233z" stroke="none" fill="#CCCCCC" fill-rule="nonzero" />
	<g transform="matrix(1 0 0 1 -67.07143 -37.92028)">
	</g>
    <path transform="matrix(1 0 0 1 -67.07143 -37.92028)"  d="M630.9018 424.17233C 627.10223 417.13733 626.5718 407.91696 631.2371 401.42374C 633.54456 409.80685 638.7428 417.10364 645.9122 422.02304C 648.68396 423.91022 651.96344 425.7206 652.9116 428.93704C 653.4104 430.98746 653.103 433.15112 652.053 434.9815C 651.00476 436.78845 649.7294 438.45367 648.25793 439.93643L648.25793 439.93643L648.1236 440.43967C 641.2452 436.3635 634.70135 431.20734 630.9018 424.17233z" stroke="none" fill="#CCCCCC" fill-rule="nonzero" />
	<g transform="matrix(1 0 0 1 -67.07143 -37.92028)">
	</g>
    <path transform="matrix(1 0 0 1 -67.07143 -37.92028)"  d="M907.78845 682.8249C 900.1599 680.4305 893.35144 674.19025 892.169 666.2827C 899.6677 670.68384 908.4815 672.2908 917.0509 670.81915C 920.3537 670.2396 923.9669 669.25116 926.8891 670.89594C 928.6762 672.01807 929.9643 673.7835 930.4876 675.8278C 930.99585 677.854 931.2425 679.93695 931.22144 682.0258L931.22144 682.0258L931.476 682.4802C 923.703 684.3536 915.417 685.21936 907.78845 682.8249z" stroke="none" fill="#CCCCCC" fill-rule="nonzero" />
	<g transform="matrix(1 0 0 1 -67.07143 -37.92028)">
	</g>
    <path transform="matrix(1 0 0 1 -67.07143 -37.92028)"  d="M921.78845 701.8249C 914.1599 699.4305 907.35144 693.19025 906.169 685.2827C 913.6677 689.68384 922.4815 691.2908 931.0509 689.81915C 934.3537 689.2396 937.9669 688.25116 940.8891 689.89594C 942.6762 691.01807 943.9643 692.7835 944.4876 694.8278C 944.99585 696.854 945.2425 698.93695 945.22144 701.0258L945.22144 701.0258L945.476 701.4802C 937.703 703.3536 929.417 704.21936 921.78845 701.8249z" stroke="none" fill="#CCCCCC" fill-rule="nonzero" />
	<g transform="matrix(1 0 0 1 -67.07143 -37.92028)">
	</g>
    <path transform="matrix(1 0 0 1 -67.07143 -37.92028)"  d="M877.78845 691.8249C 870.1599 689.4305 863.35144 683.19025 862.169 675.2827C 869.6677 679.68384 878.4815 681.2908 887.0509 679.81915C 890.3537 679.2396 893.9669 678.25116 896.8891 679.89594C 898.6762 681.01807 899.9643 682.7835 900.4876 684.8278C 900.99585 686.854 901.2425 688.93695 901.22144 691.0258L901.22144 691.0258L901.476 691.4802C 893.703 693.3536 885.417 694.21936 877.78845 691.8249z" stroke="none" fill="#CCCCCC" fill-rule="nonzero" />
	<g transform="matrix(1 0 0 1 -67.07143 -37.92028)">
	</g>
    <path transform="matrix(1 0 0 1 -67.07143 -37.92028)"  d="M911.78845 669.8249C 904.1599 667.4305 897.35144 661.19025 896.169 653.2827C 903.6677 657.68384 912.4815 659.2908 921.0509 657.81915C 924.3537 657.2396 927.9669 656.25116 930.8891 657.89594C 932.6762 659.01807 933.9643 660.7835 934.4876 662.8278C 934.99585 664.854 935.2425 666.93695 935.22144 669.0258L935.22144 669.0258L935.476 669.4802C 927.703 671.3536 919.417 672.21936 911.78845 669.8249z" stroke="none" fill="#CCCCCC" fill-rule="nonzero" />
	<g transform="matrix(1 0 0 1 -67.07143 -37.92028)">
	</g>
    <path transform="matrix(1 0 0 1 -67.07143 -37.92028)"  d="M364.10577 682.41705C 356.75043 679.2822 350.59033 672.4011 350.19327 664.4156C 357.22153 669.5346 365.83392 672.0026 374.5067 671.383C 377.85056 671.1319 381.54358 670.50446 384.28943 672.4293C 385.95718 673.7222 387.06497 675.606 387.3842 677.69196C 387.69028 679.75836 387.73032 681.85547 387.5034 683.9321L387.5034 683.9321L387.71188 684.4094C 379.79208 685.5072 371.46112 685.5519 364.10577 682.41705z" stroke="none" fill="#CCCCCC" fill-rule="nonzero" />
	<g transform="matrix(1 0 0 1 -67.07143 -37.92028)">
	</g>
    <path transform="matrix(1 0 0 1 -67.07143 -37.92028)"  d="M415.9018 583.1723C 412.10223 576.1373 411.5718 566.91693 416.23712 560.4237C 418.5445 568.8068 423.74277 576.10364 430.91217 581.023C 433.684 582.9102 436.9634 584.7206 437.91165 587.937C 438.41046 589.9874 438.10312 592.15106 437.053 593.98145C 436.00476 595.7884 434.72937 597.4536 433.25793 598.9364L433.25793 598.9364L433.1236 599.43964C 426.2452 595.36346 419.7014 590.20734 415.9018 583.1723z" stroke="none" fill="#CCCCCC" fill-rule="nonzero" />
	<g transform="matrix(1 0 0 1 -67.07143 -37.92028)">
	</g>
    <path transform="matrix(1 0 0 1 -67.07143 -37.92028)"  d="M421.5697 647.7041C 414.01907 645.0742 407.4074 638.6258 406.47086 630.6854C 413.82944 635.3171 422.58914 637.1966 431.2001 635.99146C 434.5193 635.51465 438.1614 634.63873 441.0312 636.3733C 442.78262 637.55035 444.01535 639.35486 444.47498 641.4144C 444.9202 643.4554 445.10208 645.545 445.0162 647.6322L445.0162 647.6322L445.25653 648.0943C 437.4292 649.7256 429.12036 650.334 421.5697 647.7041z" stroke="none" fill="#CCCCCC" fill-rule="nonzero" />
	<g transform="matrix(1 0 0 1 -67.07143 -37.92028)">
	</g>
    <path transform="matrix(1 0 0 1 -67.07143 -37.92028)"  d="M435.5697 622.7041C 428.01907 620.0742 421.4074 613.6258 420.47086 605.6854C 427.82944 610.3171 436.58914 612.1966 445.2001 610.99146C 448.5193 610.51465 452.1614 609.63873 455.0312 611.3733C 456.78262 612.55035 458.01535 614.35486 458.47498 616.4144C 458.9202 618.4554 459.10208 620.545 459.0162 622.6322L459.0162 622.6322L459.25653 623.0943C 451.4292 624.7256 443.12036 625.334 435.5697 622.7041z" stroke="none" fill="#CCCCCC" fill-rule="nonzero" />
	<g transform="matrix(1 0 0 1 -67.07143 -37.92028)">
	</g>
    <path transform="matrix(1 0 0 1 -67.07143 -37.92028)"  d="M407.5697 631.7041C 400.01907 629.0742 393.4074 622.6258 392.47086 614.6854C 399.82944 619.3171 408.58914 621.1966 417.2001 619.99146C 420.5193 619.51465 424.1614 618.63873 427.0312 620.3733C 428.78262 621.55035 430.01535 623.35486 430.47498 625.4144C 430.9202 627.4554 431.10208 629.545 431.0162 631.6322L431.0162 631.6322L431.25653 632.0943C 423.4292 633.7256 415.12036 634.334 407.5697 631.7041z" stroke="none" fill="#CCCCCC" fill-rule="nonzero" />
	<g transform="matrix(1 0 0 1 -67.07143 -37.92028)">
	</g>
    <path transform="matrix(1 0 0 1 -67.07143 -37.92028)"  d="M126.82521 382.5233C 126.59035 382.5233 126.35597 382.52127 126.12013 382.5184C 100.599304 382.14297 78.98915 363.59103 74.7538 338.42133C 70.51845 313.2516 84.8669 288.64883 108.85939 279.94174C 112.028854 278.82172 114.13549 275.81042 114.10109 272.44907L114.10109 272.44907L114.1006 272.26108C 114.099976 268.0375 114.604706 263.82907 115.60402 259.72543C 116.29475 257.03772 115.48807 254.18617 113.49172 252.25864C 95.55913 235.39409 85.53709 211.77124 85.87209 187.15665C 86.56252 139.63077 125.80959 100.96574 173.36038 100.96574L173.36038 100.96574L173.78665 100.966736C 197.68666 100.995026 220.51564 110.88498 236.88284 128.30121C 245.10663 136.98126 256.52536 141.91623 268.48245 141.95795L268.48245 141.95795L268.6514 142.45746L268.64993 141.95746L268.9971 141.95645C 302.79163 142.05643 333.53925 161.51334 348.09818 192.01114C 348.8865 193.69312 350.56693 194.77647 352.42435 194.8002L352.42435 194.8002L353.0269 194.81241C 396.30148 195.83676 432.32202 228.35214 437.75586 271.29645C 443.18973 314.24078 416.4033 354.70328 374.74768 366.47406C 333.0921 378.24487 289.09067 357.78522 271.2456 318.348C 270.8444 317.48297 269.97498 316.93195 269.02148 316.93832C 263.00812 316.9407 257.01022 316.32797 251.12158 315.1097C 229.70851 310.6152 207.43668 312.70428 187.23291 321.1024C 186.55322 321.38416 185.86653 321.65222 185.17285 321.9066C 181.9534 323.0729 179.79996 326.1197 179.7749 329.5438L179.7749 329.5438L179.7749 329.6468C 179.7746 358.84683 156.10535 382.51917 126.90527 382.52325L126.90527 382.52325L126.825195 382.52325L126.82521 382.5233z" stroke="none" fill="#CCCCCC" fill-rule="nonzero" />
	<g transform="matrix(1 0 0 1 -67.07143 -37.92028)">
	</g>
    <path transform="matrix(1 0 0 1 -67.07143 -37.92028)"  d="M261.93365 649.5082C 255.75699 649.52875 249.97174 646.4863 246.48834 641.3857C 242.64418 635.85425 242.03583 628.6945 244.8916 622.5939C 255.4408 599.679 259.2681 574.1631 256.26675 546.7559C 248.89058 479.38922 181.6186 374.24365 180.93988 373.18906L180.93988 373.18906L150.0555 333.89038C 143.02269 324.94016 146.47682 315.3352 152.66278 310.19803C 158.7491 305.14224 168.67073 303.54285 176.06914 311.97757C 178.20976 314.2375 179.86217 316.91397 180.92343 319.84033C 183.01166 306.1221 191.15244 244.13184 176.76299 193.09642C 172.26184 177.12984 182.26442 166.08871 193.46255 162.58698C 204.45743 159.14975 218.70494 162.47711 224.01155 177.90375C 227.08495 186.83664 228.06525 196.94907 226.9266 207.9595C 224.0031 236.21793 221.79477 262.5558 220.36261 286.24152C 220.02702 291.7961 223.32715 296.92844 228.52016 298.92804C 233.71317 300.92767 239.60316 299.3341 243.07956 294.98892L243.07956 294.98892L267.24155 264.8064C 281.77728 246.64929 303.64072 245.93587 318.85962 253.28401C 332.65262 259.94275 346.84006 276.1224 341.432 299.80627C 340.13684 305.47852 337.80487 309.9979 334.50107 313.2394C 333.81033 313.9168 333.10968 314.59552 332.39908 315.2756C 299.43262 346.74936 289.878 395.5818 308.5511 437.15945C 330.1423 484.83502 344.43076 525.72955 351.01965 558.70526C 360.07086 604.00665 354.09973 632.9162 333.2722 644.6316L333.2722 644.6316L333.08005 644.6894L263.264 649.4628L263.23288 649.00824L263.264 649.4628C 262.81876 649.493 262.37445 649.5082 261.93365 649.5082z" stroke="none" fill="#E6E6E6" fill-rule="nonzero" />
	<g transform="matrix(1 0 0 1 -67.07143 -37.92028)">
	</g>
    <path transform="matrix(1 0 0 1 -67.07143 -37.92028)"  d="M119.87355 319.47787C 119.63918 319.47787 119.40578 319.47586 119.17043 319.473C 93.649414 319.09787 72.03898 300.5459 67.80359 275.376C 63.568214 250.2061 77.916916 225.60324 101.90968 216.89633C 105.079155 215.77632 107.18579 212.76501 107.15138 209.40366L107.15138 209.40366L107.1509 209.21565C 107.149994 204.99223 107.654724 200.7839 108.65431 196.6805C 109.34486 193.99257 108.538 191.14088 106.54152 189.21321C 88.60924 172.34846 78.58742 148.72566 78.92238 124.11116C 79.61281 76.58528 118.85988 37.92025 166.41066 37.92025L166.41066 37.92025L166.83644 37.92125C 190.73659 37.94963 213.56564 47.83954 229.93312 65.25572C 238.15671 73.93576 249.57529 78.87073 261.53223 78.91246L261.53223 78.91246L261.70117 79.41197L261.6997 78.91197L262.04736 78.91097C 295.84174 79.01141 326.58914 98.46819 341.14844 128.96567C 341.93668 130.64752 343.61685 131.73085 345.47412 131.75473L345.47412 131.75473L346.07666 131.76694C 389.35123 132.79128 425.37173 165.30661 430.80563 208.25092C 436.2395 251.19522 409.45312 291.6577 367.79755 303.42856C 326.14197 315.1994 282.1405 294.7398 264.29544 255.3026C 263.89423 254.43759 263.02484 253.88657 262.07132 253.89293C 256.05795 253.89526 250.06009 253.28253 244.17142 252.06432C 222.75858 247.5688 200.48657 249.6579 180.28323 258.05698C 179.60306 258.33875 178.91621 258.6068 178.22269 258.86118C 175.0035 260.02783 172.85019 263.0744 172.82474 266.49838L172.82474 266.49838L172.82474 266.60138C 172.82443 295.80142 149.15518 319.47375 119.95511 319.47784L119.95511 319.47784L119.873566 319.47784L119.87355 319.47787z" stroke="none" fill="#CCCCCC" fill-rule="nonzero" />
	<g transform="matrix(1 0 0 1 -67.07143 -37.92028)">
	</g>
    <path transform="matrix(1 0 0 1 -67.07143 -37.92028)"  d="M341.95132 175.28061C 342.11377 175.25555 342.27576 175.23193 342.4392 175.20882C 360.16898 172.73991 377.13177 183.28828 382.75885 200.28171C 388.38596 217.27512 381.07098 235.86266 365.37164 244.46326C 363.29453 245.57849 362.15634 247.89102 362.53958 250.21725L362.53958 250.21725L362.56003 250.3475C 363.01227 253.27481 363.1124 256.24576 362.8583 259.1969C 362.66705 261.13388 363.53125 263.02423 365.12125 264.1469C 385.89282 278.37125 395.86813 303.84033 390.28207 328.38797C 384.696 352.9356 364.6822 371.58035 339.8009 375.4159L339.8009 375.4159L339.50568 375.46075C 322.93646 377.99667 306.0552 373.58264 292.848 363.2609C 286.21973 358.12375 277.77734 355.92407 269.48505 357.17368L269.48505 357.17368L269.31454 356.84552L269.36902 357.19193L269.12814 357.22977C 245.69315 360.7737 222.30038 350.57516 208.9477 330.99292C 208.2215 329.91144 206.94104 329.34018 205.65115 329.52225L205.65115 329.52225L205.23221 329.57825C 175.12727 333.49548 146.6832 314.80936 138.3248 285.62393C 129.96642 256.4385 144.2066 225.52808 171.82117 212.91508C 199.43573 200.3021 232.12265 209.7785 248.70874 235.20592C 249.07936 235.76257 249.74089 236.05154 250.40111 235.94519C 254.569 235.30057 258.79184 235.08394 263.00378 235.29868C 278.32657 236.12508 293.54083 232.29553 306.6465 224.31348C 307.08786 224.04549 307.53528 223.78622 307.98877 223.53572C 310.0954 222.38284 311.26218 220.0409 310.91367 217.66487L310.91367 217.66487L310.90268 217.59346C 307.78058 197.35365 321.65546 178.41449 341.8948 175.28937L341.8948 175.28937L341.95132 175.28061z" stroke="none" fill="#CCCCCC" fill-rule="nonzero" />
	<g transform="matrix(1 0 0 1 -67.07143 -37.92028)">
	</g>
    <path transform="matrix(1 0 0 1 -67.07143 -37.92028)"  d="M976.90967 346.55453C 962.7754 346.55453 940.6509 384.59262 940.4238 384.98666C 920.0381 411.00424 899.07275 476.88705 888.3867 513.848C 885.92975 522.3297 887.14026 531.4529 891.72406 539.0003C 896.30786 546.5478 903.8453 551.8285 912.5044 553.559C 934.8413 558.01904 953.83203 564.35785 968.94824 572.4008C 1004.7329 591.4408 1047.168 573.4399 1051.4658 571.52094L1051.4658 571.52094L1037.3818 498.74652C 1021.7412 446.80267 989.2007 348.1977 977.9375 346.62494C 977.5969 346.5778 977.2535 346.55426 976.90967 346.55453z" stroke="none" fill="#2F2E41" fill-rule="nonzero" />
	<g transform="matrix(1 0 0 1 -67.07143 -37.92028)">
	</g>
    <path transform="matrix(1 0 0 1 -67.07143 -37.92028)"  d="M1037.8678 498.62665C 1037.8678 498.62665 992.5657 348.16284 978.0068 346.12955C 963.4479 344.09625 945.94836 385.14923 945.94836 385.14923C 936.7668 423.1 913.84845 475.296 897.2087 510.54578C 893.0563 519.3368 893.1214 529.53796 897.38574 538.2752C 901.6501 547.01245 909.652 553.3399 919.137 555.4749C 934.9735 559.0255 953.0279 564.4967 968.7132 572.8419C 1006.9302 593.1749 1052.0316 571.8126 1052.0316 571.8126L1052.0316 571.8126L1037.8678 498.62665z" stroke="none" fill="#000000" fill-rule="nonzero" fill-opacity="0.09803922" />
	<g>
	</g>
    <path d="M941.95 470.799L868.95 461.799L883.95 395.799L941.95 397.799L941.95 470.799L941.95 470.799" stroke="none" fill="#9E616A" fill-rule="nonzero" />
	<g transform="matrix(1 0 0 1 -67.07143 -37.92028)">
	</g>
    <path transform="matrix(1 0 0 1 -67.07143 -37.92028)"  d="M968.3828 790.3166L953.7528 787.9436L955.9468 730.3856L977.53876 733.8856L968.3828 790.3166z" stroke="none" fill="#9E616A" fill-rule="nonzero" />
	<g transform="matrix(1 0 0 1 -67.07143 -37.92028)">
	</g>
    <path transform="matrix(1 0 0 1 -67.07143 -37.92028)"  d="M1041.296 759.80194L1028.064 766.47797L993.016 715.618L1012.545 705.76495L1041.296 759.80194z" stroke="none" fill="#9E616A" fill-rule="nonzero" />
	<g transform="matrix(1 0 0 1 -67.07143 -37.92028)">
	</g>
    <path transform="matrix(1 0 0 1 -67.07143 -37.92028)"  d="M999.533 741.3089L938.604 585.9449C 916.798 526.3799 936.281 485.3269 936.481 484.9199L936.481 484.9199L936.581 484.71988L936.789 484.6439C 939.29114 494.3819 996.02106 493.71912 1009.02106 478.71912C 1016.6091 485.0931 1026.708 500.1009 1028.872 518.03485C 1031.1327 537.27466 1029.4178 556.77386 1023.8339 575.32385L1023.8339 575.32385L999.8339 656.68384L1029.527 723.5748L999.533 741.3089z" stroke="none" fill="#2F2E41" fill-rule="nonzero" />
	<g transform="matrix(1 0 0 1 -67.07143 -37.92028)">
	</g>
    <path transform="matrix(1 0 0 1 -67.07143 -37.92028)"  d="M970.15173 644.93964L948.15173 756.4956L977.4517 762.0206L995.8867 665.4586L970.15173 644.93964z" stroke="none" fill="#2F2E41" fill-rule="nonzero" />
	<g transform="matrix(1 0 0 1 -67.07143 -37.92028)">
	</g>
    <path transform="matrix(1 0 0 1 -67.07143 -37.92028)"  d="M973.221 771.6391L971.431 771.5291L954.421 770.5091L952.021 770.3691L952.021 779.4591L931.861 793.3791C 929.8167 794.79016 928.92834 797.36725 929.669 799.73834C 930.40967 802.1094 932.607 803.7226 935.091 803.7191L935.091 803.7191L960.331 803.7191L964.68097 794.73914L966.381 803.7191L975.891 803.7191L973.221 771.6391z" stroke="none" fill="#2F2E41" fill-rule="nonzero" />
	<g transform="matrix(1 0 0 1 -67.07143 -37.92028)">
	</g>
    <path transform="matrix(1 0 0 1 -67.07143 -37.92028)"  d="M1060.221 781.4491L1040.5709 755.9491L1039.5609 756.5191L1026.341 763.9791L1022.08093 766.37915L1027.001 774.00916L1017.621 796.63916C 1016.6736 798.93274 1017.3258 801.5759 1019.2315 803.16547C 1021.13715 804.75507 1023.85443 804.9226 1025.9409 803.57916L1025.9409 803.57916L1047.1509 789.88916L1045.9309 779.9792L1052.231 786.6092L1060.221 781.4491z" stroke="none" fill="#2F2E41" fill-rule="nonzero" />
    <path d="M973.5779 258.4005C 973.5779 248.35684 970.0269 239.78401 962.9249 232.68205C 955.823 225.5801 947.2502 222.02911 937.2065 222.02911C 927.1628 222.02911 918.58997 225.5801 911.48804 232.68205C 904.3861 239.78401 900.83514 248.35684 900.8351 258.4005C 900.83514 268.4442 904.3861 277.01703 911.48804 284.11896C 918.58997 291.22095 927.1628 294.7719 937.2065 294.7719C 947.2502 294.7719 955.823 291.22095 962.9249 284.11896C 970.0269 277.01703 973.5779 268.4442 973.5779 258.4005" stroke="none" fill="#2F2E41" fill-rule="nonzero" />
	<g>
	</g>
	<g transform="matrix(1 0 0 1 -67.07143 -37.92028)">
	</g>
    <path transform="matrix(1 0 0 1 -67.07143 -37.92028)"  d="M820.1801 449.13928C 813.23517 446.30566 809.5072 438.72546 811.50256 431.49496C 813.498 424.26447 820.586 419.66913 828.0013 420.79843L828.0013 420.79843L874.6654 411.82556L892.17426 432.62714L840.20764 438.71777C 839.2681 442.97266 836.49225 446.59283 832.6269 448.60422C 828.76154 450.6156 824.2038 450.81152 820.1801 449.13928z" stroke="none" fill="#9E616A" fill-rule="nonzero" />
	<g>
	</g>
    <path d="M898.116 364.726L840.2 400.252L787.95 401.799L772.274 379.002L829.229 368.529L907.665 308.659L898.116 364.726L898.116 364.726" stroke="none" fill="#2F2E41" fill-rule="nonzero" />
	<g transform="matrix(1 0 0 1 -67.07143 -37.92028)">
	</g>
    <path transform="matrix(1 0 0 1 -67.07143 -37.92028)"  d="M955.02484 380.47983C 940.88043 394.62427 954.0145 409.779 954.0145 409.779L954.0145 409.779L937.8495 446.1504L1001.49945 463.32578L1023.7428 363.9326L1008.588 347.76755C 1005.36365 347.66006 1006.4821 337.55692 1003.9069 337.45837C 994.5143 337.099 989.1975 336.8011 986.1879 336.579C 982.2663 336.28964 978.2621 346.12906 978.2621 346.12906C 972.95166 351.326 955.02484 380.47983 955.02484 380.47983z" stroke="none" fill="#055052" fill-rule="nonzero" />
	<g transform="matrix(1 0 0 1 -67.07143 -37.92028)">
	</g>
    <path transform="matrix(1 0 0 1 -67.07143 -37.92028)"  d="M1067.271 533.5691C 1063.8854 530.7573 1060.7717 527.6336 1057.971 524.2391C 1052.8125 518.0676 1048.1954 511.4633 1044.1709 504.49908C 1038.7238 495.1434 1034.167 485.29678 1030.5609 475.08908C 1030.5509 475.0691 1030.5509 475.04907 1030.5409 475.02908C 1029.411 471.8391 1028.3643 468.55576 1027.4009 465.17908C 1027.392 465.14093 1027.3785 465.104 1027.3608 465.0691C 1025.7357 459.36435 1024.4205 453.57602 1023.42084 447.7291C 1019.38086 424.05908 1027.2208 402.49908 1034.5109 388.5791C 1035.1333 387.40482 1035.6649 386.18457 1036.1008 384.9291C 1040.1836 373.63687 1036.3406 361.00455 1026.6609 353.8991L1026.6609 353.8991L1026.3109 353.6391C 1020.4894 349.33627 1013.1903 347.537 1006.0359 348.64114C 998.8815 349.74527 992.4644 353.66138 988.21094 359.5191C 988.1845 359.54654 988.1611 359.57672 988.1409 359.6091C 975.6809 376.96912 963.9409 402.6291 969.0109 434.3391C 970.2201 441.80603 972.21796 449.1237 974.97095 456.1691C 975.81104 458.3391 976.731 460.5291 977.73096 462.73904C 988.40094 482.43906 998.16095 497.64905 1006.441 508.29904C 1016.021 520.59906 1023.621 526.809 1028.371 526.809C 1028.8564 526.81396 1029.3395 526.7397 1029.801 526.58905C 1029.821 526.57904 1029.831 526.57904 1029.8511 526.5691C 1033.551 525.3191 1038.1011 521.4691 1041.8911 516.57904C 1045.4011 512.02905 1048.2511 506.57904 1049.1511 501.46906C 1071.981 542.5091 1071.821 537.2091 1067.271 533.5691z" stroke="none" fill="#2F2E41" fill-rule="nonzero" />
    <path transform="matrix(0.8774541 -0.47966057 0.47966057 0.8774541 -91.94283 475.9828)"  d="M1020.07983 305.6265C 1020.07983 298.23322 1017.46594 291.9226 1012.23804 286.69476C 1007.01025 281.46692 1000.69965 278.85303 993.30634 278.853C 985.913 278.85303 979.6025 281.46692 974.37463 286.69476C 969.1468 291.9226 966.53284 298.23322 966.53284 305.6265C 966.53284 313.01984 969.1468 319.33038 974.37463 324.55823C 979.6025 329.78607 985.913 332.40002 993.30634 332.4C 1000.69965 332.40002 1007.01025 329.78607 1012.23804 324.55823C 1017.46594 319.33038 1020.07983 313.01984 1020.07983 305.6265" stroke="none" fill="#9E616A" fill-rule="nonzero" />
	<g transform="matrix(0.8774541 -0.47966057 0.47966057 0.8774541 -91.94283 475.9828)">
	</g>
	<g transform="matrix(1 0 0 1 -67.07143 -37.92028)">
	</g>
    <path transform="matrix(1 0 0 1 -67.07143 -37.92028)"  d="M958.6534 301.60223L997.3137 301.60223L997.71027 296.0518L999.69244 301.60223L1005.6453 301.60223L1006.4309 290.60138L1010.35956 301.60223L1021.87805 301.60223L1021.87805 301.05722C 1021.86017 285.11078 1008.93756 272.18808 992.99115 272.1701L992.99115 272.1701L987.54047 272.1701C 971.59406 272.18808 958.6713 285.11075 958.6533 301.05722L958.6533 301.05722L958.6534 301.60223z" stroke="none" fill="#2F2E41" fill-rule="nonzero" />
	<g transform="matrix(1 0 0 1 -67.07143 -37.92028)">
	</g>
    <path transform="matrix(1 0 0 1 -67.07143 -37.92028)"  d="M1083.2039 552.4136C 1080.7426 559.499 1073.3708 563.6238 1066.0447 562.0148C 1058.7185 560.40576 1053.7537 553.57153 1054.488 546.1068L1054.488 546.1068L1043.0524 499.98438L1062.8959 481.3967L1071.7346 532.96704C 1076.0333 533.6795 1079.7957 536.25946 1082.0093 540.01263C 1084.2229 543.76587 1084.6603 548.30676 1083.2039 552.4135L1083.2039 552.4135L1083.2039 552.4136z" stroke="none" fill="#9E616A" fill-rule="nonzero" />
	<g>
	</g>
    <path d="M964.573 331.406L1006.284 477.203L983.688 490.597L918.217 333.359L964.573 331.406L964.573 331.406" stroke="none" fill="#2F2E41" fill-rule="nonzero" />
	<g transform="matrix(1 0 0 1 -67.07143 -37.92028)">
	</g>
    <path transform="matrix(1 0 0 1 -67.07143 -37.92028)"  d="M1104.9056 317.6837C 1096.9319 312.15317 1091.9729 303.2237 1088.5623 294.13876C 1085.1516 285.05392 1083.0046 275.50742 1079.1396 266.6063C 1074.4606 255.85895 1067.3975 246.31718 1058.4851 238.70346C 1052.7783 233.83786 1046.1387 229.72916 1038.7368 228.5242C 1031.3347 227.3192 1023.08594 229.47006 1018.35205 235.28659C 1013.61816 241.10306 1013.6279 250.72739 1019.3613 255.56158C 1017.64966 253.76059 1014.33105 254.20697 1012.845 256.1983C 1011.4392 258.33533 1011.57996 261.1368 1013.1929 263.12213C 1013.765 263.83862 1014.46796 264.44 1015.2644 264.89435C 1017.05206 268.8907 1020.11127 272.1836 1023.96533 274.26007C 1028.6501 276.5699 1034.895 276.0877 1038.442 272.2536C 1041.989 268.4195 1041.4819 261.2591 1036.9121 258.7298C 1044.0212 257.36115 1051.3765 261.48907 1055.4988 267.44073C 1059.621 273.3924 1061.0076 280.8282 1061.3469 288.05988C 1061.6862 295.2918 1061.0825 302.55597 1061.6926 309.76987C 1062.3027 316.98398 1064.2754 324.36716 1069.0396 329.8187C 1076.8462 338.75204 1090.5725 340.4188 1101.9299 336.9896C 1113.2874 333.5606 1122.8511 325.97946 1132.105 318.5555C 1124.407 324.464 1112.8794 323.21423 1104.9056 317.6837z" stroke="none" fill="#2F2E41" fill-rule="nonzero" />
	<g transform="matrix(1 0 0 1 -67.07143 -37.92028)">
	</g>
    <path transform="matrix(1 0 0 1 -67.07143 -37.92028)"  d="M790.8193 429.20956C 785.66235 433.0138 784.3516 439.97458 786.12396 445.87943C 788.0046 452.467 793.51215 457.38162 800.27057 458.5029C 807.6968 459.9026 815.6449 456.9899 821.42114 452.37836C 827.93225 447.1801 831.7073 439.59836 835.4565 432.35388C 840.53503 422.54047 846.1095 412.9632 851.4746 403.30402C 857.4587 392.5307 863.4403 381.756 869.41943 370.98C 879.95026 351.015 890.37854 330.9778 900.1337 310.6198C 901.0924 308.6192 902.04236 306.61438 902.9834 304.6054C 903.55945 303.0583 902.7907 301.33475 901.2547 300.72974C 899.7082 300.17117 897.9967 300.93454 897.379 302.4584C 888.5011 321.41876 878.89557 340.0407 869.19525 358.5902C 857.0358 381.84222 844.6562 404.97748 832.0563 427.99603C 829.26733 433.02255 826.4386 438.02832 823.7986 443.13522C 820.3873 449.734 816.84064 456.64258 810.6538 461.07306C 805.39966 464.83563 797.9514 466.8275 791.86566 463.9194C 787.33264 461.7533 785.0203 456.34283 785.64264 451.66525C 785.89734 449.51132 787.05054 447.56537 788.8176 446.30765C 791.9315 444.01053 788.1063 439.3869 785.0051 441.67465L785.0051 441.67465L790.8193 429.20956z" stroke="none" fill="#2F2E41" fill-rule="nonzero" />
	<g transform="matrix(1 0 0 1 -67.07143 -37.92028)">
	</g>
    <path transform="matrix(1 0 0 1 -67.07143 -37.92028)"  d="M1115.3391 301.53113L1114.9852 301.4879C 1101.3566 299.81512 1087.8533 297.79642 1074.8505 295.48782C 1065.5978 293.84476 1056.5632 292.05707 1047.9987 290.17422C 1040.7758 288.5949 1033.6362 286.90347 1026.778 285.14667C 1019.1311 283.19943 1011.54297 281.1024 1004.22565 278.91342C 1001.1713 278.01428 998.06274 277.0623 994.98755 276.08505C 989.28906 274.27606 983.7967 272.43607 978.6634 270.61725C 973.681 268.8754 968.65704 267.01663 963.732 265.09344C 963.6268 265.0622 963.5236 265.02448 963.4231 264.98053C 953.44257 261.1038 943.64343 256.92038 934.30646 252.54984C 932.4974 251.71036 930.699 250.8583 928.91113 249.99371C 875.05334 223.96643 829.9611 188.65288 794.8884 145.03384L794.8884 145.03384L794.6893 144.78638L794.82886 144.50117C 833.6867 64.800476 926.9329 27.913116 1009.7995 59.460724C 1014.7256 61.342335 1019.5755 63.447613 1024.2146 65.71833L1024.2146 65.71833L1036.7028 71.82455C 1043.4518 75.12302 1049.9791 78.8571 1056.2433 83.00313C 1127.9325 130.5795 1153.2754 223.90968 1115.4954 301.21124L1115.4954 301.21124L1115.3391 301.53113z" stroke="none" fill="#055052" fill-rule="nonzero" />
	<g transform="matrix(1 0 0 1 -67.07143 -37.92028)">
	</g>
    <path transform="matrix(1 0 0 1 -67.07143 -37.92028)"  d="M819.8741 169.03493C 866.41876 134.53284 917.1699 106.102905 970.90216 84.43163C 985.9757 78.34886 1001.25366 72.81133 1016.73596 67.81906C 1018.5685 67.22778 1017.29974 64.507065 1015.4794 65.09438C 960.09784 82.9671 907.22363 107.835266 858.13873 139.0958C 844.42377 147.81998 831.03345 157.02753 817.96783 166.71841C 816.41364 167.87074 818.32587 170.18277 819.8741 169.03491L819.8741 169.03491L819.8741 169.03493z" stroke="none" fill="#3F3D56" fill-rule="nonzero" />
	<g transform="matrix(1 0 0 1 -67.07143 -37.92028)">
	</g>
    <path transform="matrix(1 0 0 1 -67.07143 -37.92028)"  d="M1046.6587 77.67263C 1046.296 78.194786 1046.3137 78.89184 1046.7024 79.39492C 1055.1752 91.14301 1062.3595 103.76847 1068.1316 117.053375C 1073.9058 130.33804 1078.3079 144.17783 1081.2694 158.35722C 1084.262 172.53767 1085.8341 186.98083 1085.9625 201.47302C 1086.0969 215.96259 1084.7723 230.42877 1082.0089 244.65302C 1079.6448 256.81665 1076.1696 268.73752 1071.6268 280.26602C 1070.8661 282.20154 1070.0732 284.12387 1069.248 286.03302C 1068.4341 287.79257 1071.245 288.8493 1072.0571 287.10968C 1073.05 284.9556 1074.0142 282.78867 1074.9204 280.596C 1079.6777 269.24683 1083.4084 257.49445 1086.0681 245.47935C 1089.2396 231.14871 1090.9391 216.53137 1091.1399 201.85535C 1091.3533 187.15814 1090.1143 172.4759 1087.4408 158.02234C 1084.7732 143.58478 1080.6523 129.45383 1075.1412 115.845474C 1069.6158 102.18403 1062.6354 89.15701 1054.3207 76.99025C 1053.943 76.43111 1053.5553 75.87101 1053.1666 75.32085L1053.1666 75.32085L1046.6587 77.67263z" stroke="none" fill="#3F3D56" fill-rule="nonzero" />
	<g transform="matrix(1 0 0 1 -67.07143 -37.92028)">
	</g>
    <path transform="matrix(1 0 0 1 -67.07143 -37.92028)"  d="M897.7799 231.87866L945.9171 173.8743L994.0543 115.869934L1021.1514 83.218475C 1022.38763 81.72887 1019.94696 79.98193 1018.71954 81.460945L1018.71954 81.460945L970.58234 139.4653L922.4451 197.46967L895.348 230.12112C 894.1118 231.61073 896.5525 233.35767 897.7799 231.87865L897.7799 231.87865L897.7799 231.87866z" stroke="none" fill="#3F3D56" fill-rule="nonzero" />
	<g transform="matrix(1 0 0 1 -67.07143 -37.92028)">
	</g>
    <path transform="matrix(1 0 0 1 -67.07143 -37.92028)"  d="M1003.12256 276.6517L1016.80536 205.62204L1030.441 134.8373L1038.1317 94.91373C 1038.4967 93.01887 1035.5084 92.740944 1035.1458 94.62366L1035.1458 94.62366L1021.46295 165.65332L1007.82733 236.43805L1000.13666 276.36163C 999.77167 278.2565 1002.75995 278.53442 1003.1226 276.6517L1003.1226 276.6517L1003.12256 276.6517z" stroke="none" fill="#3F3D56" fill-rule="nonzero" />
	<g transform="matrix(1 0 0 1 -67.07143 -37.92028)">
	</g>
    <path transform="matrix(1 0 0 1 -67.07143 -37.92028)"  d="M1055.9667 83.41956C 1049.9557 94.15308 1037.2451 99.20523 1025.5059 95.52697C 1013.76666 91.84871 1006.2117 80.44677 1007.4005 68.20233C 1007.67255 65.3395 1008.4231 62.542606 1009.6209 59.92824C 1014.4551 61.77431 1019.24646 63.85401 1023.99506 66.16734L1023.99506 66.16734L1036.4832 72.27343C 1043.2133 75.56094 1049.7216 79.284225 1055.9667 83.41956z" stroke="none" fill="#3F3D56" fill-rule="nonzero" />
	<g transform="matrix(1 0 0 1 -67.07143 -37.92028)">
	</g>
    <path transform="matrix(1 0 0 1 -67.07143 -37.92028)"  d="M448.41412 99.76066C 453.08014 116.06721 460.0661 131.61815 469.1578 145.93655C 471.74567 150.00565 474.49976 153.96146 477.42004 157.804C 478.57162 159.32292 481.17798 157.82977 480.01047 156.28984C 469.86356 142.93216 461.69946 128.17883 455.771 112.48675C 454.09872 108.04163 452.6107 103.53377 451.30692 98.963135C 451.06512 98.191124 450.25513 97.74952 449.47525 97.96452C 448.69534 98.17953 448.22607 98.973816 448.41406 99.76066L448.41406 99.76066L448.41412 99.76066z" stroke="none" fill="#F2F2F2" fill-rule="nonzero" />
	<g transform="matrix(1 0 0 1 -67.07143 -37.92028)">
	</g>
    <path transform="matrix(1 0 0 1 -67.07143 -37.92028)"  d="M537.25903 164.75279L555.4825 196.45386C 555.9145 197.13785 556.8108 197.35649 557.5092 196.94824C 558.20764 196.54 558.457 195.65173 558.0729 194.9397L558.0729 194.9397L539.8494 163.23863C 539.41736 162.5547 538.5211 162.33612 537.82275 162.74434C 537.1243 163.15256 536.87506 164.04076 537.25903 164.75278L537.25903 164.75278L537.25903 164.75279z" stroke="none" fill="#F2F2F2" fill-rule="nonzero" />
	<g transform="matrix(1 0 0 1 -67.07143 -37.92028)">
	</g>
    <path transform="matrix(1 0 0 1 -67.07143 -37.92028)"  d="M577.91943 119.44473L592.76086 151.14536C 593.5788 152.89246 596.16583 151.37103 595.35126 149.6312L595.35126 149.6312L580.5099 117.930565C 579.6919 116.18347 577.10486 117.7049 577.9195 119.444725L577.9195 119.444725L577.91943 119.44473z" stroke="none" fill="#F2F2F2" fill-rule="nonzero" />
	<g transform="matrix(1 0 0 1 -67.07143 -37.92028)">
	</g>
    <path transform="matrix(1 0 0 1 -67.07143 -37.92028)"  d="M725.4141 140.76067C 730.08014 157.06714 737.0662 172.61821 746.15784 186.93655C 748.7457 191.00565 751.4998 194.96147 754.4201 198.804C 755.57166 200.32292 758.17804 198.82977 757.0105 197.28984C 746.8635 183.93216 738.69946 169.17883 732.771 153.48676C 731.09875 149.04164 729.6107 144.53377 728.3069 139.96315C 728.0649 139.19139 727.25507 138.75002 726.47534 138.96498C 725.6956 139.17993 725.2263 139.97394 725.41406 140.76067L725.41406 140.76067L725.4141 140.76067z" stroke="none" fill="#F2F2F2" fill-rule="nonzero" />
	<g transform="matrix(1 0 0 1 -67.07143 -37.92028)">
	</g>
    <path transform="matrix(1 0 0 1 -67.07143 -37.92028)"  d="M814.25903 205.75279L832.4825 237.45386C 832.9145 238.13785 833.8108 238.35649 834.5092 237.94824C 835.20764 237.54 835.457 236.65173 835.0729 235.9397L835.0729 235.9397L816.8494 204.23863C 816.41736 203.5547 815.5211 203.33612 814.82275 203.74434C 814.1243 204.15256 813.87506 205.04076 814.25903 205.75278L814.25903 205.75278L814.25903 205.75279z" stroke="none" fill="#F2F2F2" fill-rule="nonzero" />
	<g transform="matrix(1 0 0 1 -67.07143 -37.92028)">
	</g>
    <path transform="matrix(1 0 0 1 -67.07143 -37.92028)"  d="M854.91943 160.44473L869.76086 192.14536C 870.5788 193.89246 873.16583 192.37103 872.35126 190.6312L872.35126 190.6312L857.5099 158.93057C 856.6919 157.18349 854.10486 158.70491 854.9195 160.44473L854.9195 160.44473L854.91943 160.44473z" stroke="none" fill="#F2F2F2" fill-rule="nonzero" />
	<g transform="matrix(1 0 0 1 -67.07143 -37.92028)">
	</g>
    <path transform="matrix(1 0 0 1 -67.07143 -37.92028)"  d="M680.4141 334.76065C 685.08014 351.06714 692.06616 366.61823 701.15784 380.93655C 703.7457 385.00565 706.4998 388.9615 709.4201 392.80402C 710.57166 394.32294 713.17804 392.82977 712.0105 391.28986C 701.8636 377.93222 693.6994 363.1788 687.771 347.48676C 686.09875 343.04163 684.6107 338.53375 683.3069 333.96313C 683.0649 333.19135 682.25507 332.75 681.47534 332.96494C 680.6956 333.1799 680.2263 333.9739 680.41406 334.76065L680.41406 334.76065L680.4141 334.76065z" stroke="none" fill="#F2F2F2" fill-rule="nonzero" />
	<g transform="matrix(1 0 0 1 -67.07143 -37.92028)">
	</g>
    <path transform="matrix(1 0 0 1 -67.07143 -37.92028)"  d="M769.25903 399.75278L787.4825 431.45386C 787.9145 432.13785 788.8108 432.35648 789.5092 431.94824C 790.20764 431.54 790.457 430.65173 790.0729 429.9397L790.0729 429.9397L771.8494 398.23865C 771.4174 397.55466 770.5211 397.33603 769.8227 397.74426C 769.12427 398.1525 768.87494 399.04077 769.25903 399.7528L769.25903 399.7528L769.25903 399.75278z" stroke="none" fill="#F2F2F2" fill-rule="nonzero" />
	<g transform="matrix(1 0 0 1 -67.07143 -37.92028)">
	</g>
    <path transform="matrix(1 0 0 1 -67.07143 -37.92028)"  d="M809.91943 354.44473L824.76086 386.14536C 825.5788 387.89246 828.16583 386.37103 827.35126 384.6312L827.35126 384.6312L812.5099 352.93057C 811.6919 351.18347 809.10486 352.70493 809.9195 354.44473L809.9195 354.44473L809.91943 354.44473z" stroke="none" fill="#F2F2F2" fill-rule="nonzero" />
	<g transform="matrix(1 0 0 1 -67.07143 -37.92028)">
	</g>
    <path transform="matrix(1 0 0 1 -67.07143 -37.92028)"  d="M377.41412 415.76065C 382.08014 432.0672 389.0661 447.61816 398.1578 461.93655C 400.74567 466.00565 403.49976 469.9615 406.42004 473.80402C 407.57162 475.32294 410.17798 473.82977 409.01047 472.28986C 398.8636 458.93225 390.6994 444.17877 384.771 428.48676C 383.0987 424.04163 381.6107 419.53375 380.30692 414.96313C 380.0651 414.19113 379.25513 413.74954 378.47525 413.96454C 377.69537 414.17953 377.22607 414.97382 377.41406 415.76065L377.41406 415.76065L377.41412 415.76065z" stroke="none" fill="#F2F2F2" fill-rule="nonzero" />
	<g transform="matrix(1 0 0 1 -67.07143 -37.92028)">
	</g>
    <path transform="matrix(1 0 0 1 -67.07143 -37.92028)"  d="M466.25906 480.75278L484.4825 512.45386C 484.9144 513.1381 485.81085 513.3569 486.5094 512.9486C 487.20795 512.5403 487.45718 511.65176 487.07294 510.9397L487.07294 510.9397L468.8495 479.23865C 468.41757 478.5544 467.52112 478.3356 466.82257 478.74393C 466.12402 479.15225 465.8748 480.04074 466.25906 480.7528L466.25906 480.7528L466.25906 480.75278z" stroke="none" fill="#F2F2F2" fill-rule="nonzero" />
	<g transform="matrix(1 0 0 1 -67.07143 -37.92028)">
	</g>
    <path transform="matrix(1 0 0 1 -67.07143 -37.92028)"  d="M506.91943 435.44473L521.76086 467.14536C 522.5788 468.89246 525.16583 467.37103 524.35126 465.6312L524.35126 465.6312L509.50986 433.93057C 508.6919 432.18347 506.10486 433.70493 506.91943 435.44473z" stroke="none" fill="#F2F2F2" fill-rule="nonzero" />
	<g transform="matrix(1 0 0 1 -67.07143 -37.92028)">
	</g>
    <path transform="matrix(1 0 0 1 -67.07143 -37.92028)"  d="M761.4141 516.7607C 766.08014 533.0672 773.06616 548.6183 782.15784 562.9366C 784.7457 567.00574 787.4998 570.96155 790.4201 574.804C 791.57166 576.32294 794.17804 574.8298 793.0105 573.28986C 782.8636 559.93225 774.6994 545.17883 768.771 529.48676C 767.09875 525.0417 765.6107 520.5338 764.3069 515.96313C 764.06494 515.19135 763.25507 514.74994 762.47534 514.9649C 761.69556 515.1799 761.22626 515.97394 761.41406 516.7607L761.41406 516.7607L761.4141 516.7607z" stroke="none" fill="#F2F2F2" fill-rule="nonzero" />
	<g transform="matrix(1 0 0 1 -67.07143 -37.92028)">
	</g>
    <path transform="matrix(1 0 0 1 -67.07143 -37.92028)"  d="M850.25903 581.7528L868.4825 613.45386C 868.9145 614.1379 869.8108 614.3565 870.5092 613.94824C 871.20764 613.54 871.457 612.65173 871.0729 611.9397L871.0729 611.9397L852.8494 580.23865C 852.4174 579.5546 851.5211 579.336 850.8227 579.74426C 850.12427 580.1525 849.87494 581.0408 850.25903 581.7528z" stroke="none" fill="#F2F2F2" fill-rule="nonzero" />
	<g transform="matrix(1 0 0 1 -67.07143 -37.92028)">
	</g>
    <path transform="matrix(1 0 0 1 -67.07143 -37.92028)"  d="M890.91943 536.4447L905.76086 568.1453C 906.5788 569.8924 909.16583 568.371 908.35126 566.63116L908.35126 566.63116L893.5099 534.93054C 892.6919 533.1835 890.10486 534.7049 890.9195 536.4447L890.9195 536.4447L890.91943 536.4447z" stroke="none" fill="#F2F2F2" fill-rule="nonzero" />
	<g transform="matrix(1 0 0 1 -67.07143 -37.92028)">
	</g>
    <path transform="matrix(1 0 0 1 -67.07143 -37.92028)"  d="M926.4141 409.76065C 931.08014 426.06714 938.06616 441.61823 947.15784 455.93655C 949.7457 460.00565 952.4998 463.9615 955.4201 467.80402C 956.57166 469.32294 959.17804 467.82977 958.0105 466.28986C 947.86365 452.93222 939.69946 438.1788 933.771 422.48676C 932.09875 418.04163 930.6107 413.53375 929.3069 408.96313C 929.0649 408.19135 928.25507 407.75 927.47534 407.96494C 926.6956 408.1799 926.2263 408.9739 926.41406 409.76065L926.41406 409.76065L926.4141 409.76065z" stroke="none" fill="#F2F2F2" fill-rule="nonzero" />
	<g transform="matrix(1 0 0 1 -67.07143 -37.92028)">
	</g>
    <path transform="matrix(1 0 0 1 -67.07143 -37.92028)"  d="M1015.25903 474.75278L1033.4824 506.45386C 1033.9142 507.13834 1034.8108 507.3573 1035.5095 506.9489C 1036.2081 506.54053 1036.4573 505.6518 1036.0729 504.9397L1036.0729 504.9397L1017.8494 473.23865C 1017.4174 472.55466 1016.5211 472.33603 1015.8227 472.74426C 1015.12427 473.1525 1014.87494 474.04077 1015.25903 474.7528L1015.25903 474.7528L1015.25903 474.75278z" stroke="none" fill="#F2F2F2" fill-rule="nonzero" />
	<g transform="matrix(1 0 0 1 -67.07143 -37.92028)">
	</g>
    <path transform="matrix(1 0 0 1 -67.07143 -37.92028)"  d="M1055.9194 429.44473L1070.7609 461.14536C 1071.5789 462.89246 1074.1659 461.37103 1073.3513 459.6312L1073.3513 459.6312L1058.5099 427.93057C 1057.6919 426.18347 1055.1049 427.70493 1055.9194 429.44473z" stroke="none" fill="#F2F2F2" fill-rule="nonzero" />
	<g transform="matrix(1 0 0 1 -67.07143 -37.92028)">
	</g>
    <path transform="matrix(1 0 0 1 -67.07143 -37.92028)"  d="M964.4141 183.76067C 969.08014 200.06714 976.0662 215.61821 985.15784 229.93655C 987.7457 234.00566 990.49976 237.96147 993.4201 241.804C 994.57166 243.32292 997.17804 241.82977 996.0105 240.28984C 985.86365 226.93216 977.6995 212.17883 971.771 196.48676C 970.09875 192.04164 968.6107 187.53377 967.3069 182.96315C 967.0649 182.19139 966.25507 181.75002 965.47534 181.96498C 964.6956 182.17993 964.2263 182.97394 964.41406 183.76067L964.41406 183.76067L964.4141 183.76067z" stroke="none" fill="#F2F2F2" fill-rule="nonzero" />
	<g transform="matrix(1 0 0 1 -67.07143 -37.92028)">
	</g>
    <path transform="matrix(1 0 0 1 -67.07143 -37.92028)"  d="M1053.259 248.75279L1071.4824 280.45386C 1071.9142 281.13834 1072.8108 281.3573 1073.5095 280.9489C 1074.2081 280.54053 1074.4573 279.6518 1074.0729 278.9397L1074.0729 278.9397L1055.8495 247.23863C 1055.4176 246.55423 1054.521 246.3353 1053.8223 246.74365C 1053.1237 247.15202 1052.8745 248.04068 1053.259 248.75278L1053.259 248.75278L1053.259 248.75279z" stroke="none" fill="#F2F2F2" fill-rule="nonzero" />
	<g transform="matrix(1 0 0 1 -67.07143 -37.92028)">
	</g>
    <path transform="matrix(1 0 0 1 -67.07143 -37.92028)"  d="M1093.9194 203.44473L1108.7609 235.14536C 1109.5789 236.89246 1112.1659 235.37103 1111.3513 233.6312L1111.3513 233.6312L1096.5099 201.93057C 1095.6919 200.18349 1093.1049 201.70491 1093.9194 203.44473z" stroke="none" fill="#F2F2F2" fill-rule="nonzero" />
	<g transform="matrix(1 0 0 1 -67.07143 -37.92028)">
	</g>
    <path transform="matrix(1 0 0 1 -67.07143 -37.92028)"  d="M154.41411 103.76066C 159.08014 120.06717 166.06615 135.61818 175.1578 149.93655C 177.74565 154.00565 180.49973 157.96146 183.42004 161.804C 184.57162 163.32292 187.17796 161.82977 186.01045 160.28984C 175.86356 146.93219 167.69942 132.1788 161.771 116.48675C 160.09872 112.04163 158.61069 107.53376 157.3069 102.963135C 157.06503 102.19124 156.2551 101.74975 155.4753 101.96473C 154.6955 102.17972 154.22621 102.97387 154.41406 103.76066L154.41406 103.76066L154.41411 103.76066z" stroke="none" fill="#F2F2F2" fill-rule="nonzero" />
	<g transform="matrix(1 0 0 1 -67.07143 -37.92028)">
	</g>
    <path transform="matrix(1 0 0 1 -67.07143 -37.92028)"  d="M243.25905 168.75279L261.48248 200.45386C 261.9144 201.13808 262.81085 201.35689 263.5094 200.94856C 264.20795 200.54025 264.45718 199.65175 264.0729 198.9397L264.0729 198.9397L245.84947 167.23863C 245.4175 166.55458 244.52116 166.3359 243.82271 166.74417C 243.12427 167.15242 242.87498 168.04074 243.25906 168.75278L243.25906 168.75278L243.25905 168.75279z" stroke="none" fill="#F2F2F2" fill-rule="nonzero" />
	<g transform="matrix(1 0 0 1 -67.07143 -37.92028)">
	</g>
    <path transform="matrix(1 0 0 1 -67.07143 -37.92028)"  d="M283.91943 123.44473L298.76083 155.14536C 299.5788 156.89246 302.16577 155.37103 301.35126 153.6312L301.35126 153.6312L286.50986 121.930565C 285.6919 120.18347 283.10486 121.7049 283.91943 123.444725L283.91943 123.444725L283.91943 123.44473z" stroke="none" fill="#F2F2F2" fill-rule="nonzero" />
	<g transform="matrix(1 0 0 1 -67.07143 -37.92028)">
	</g>
    <path transform="matrix(1 0 0 1 -67.07143 -37.92028)"  d="M217.41411 230.76067C 222.08011 247.06714 229.06615 262.6182 238.1578 276.93655C 240.74565 281.00565 243.49973 284.9615 246.42004 288.80402C 247.57162 290.32294 250.17796 288.82977 249.01045 287.28986C 238.86356 273.9322 230.6994 259.1788 224.771 243.48676C 223.09872 239.04166 221.61069 234.53378 220.3069 229.96315C 220.06502 229.19127 219.2551 228.7498 218.4753 228.96478C 217.69551 229.17975 217.22623 229.97389 217.41406 230.76067L217.41406 230.76067L217.41411 230.76067z" stroke="none" fill="#F2F2F2" fill-rule="nonzero" />
	<g transform="matrix(1 0 0 1 -67.07143 -37.92028)">
	</g>
    <path transform="matrix(1 0 0 1 -67.07143 -37.92028)"  d="M306.25906 295.75278L324.4825 327.45386C 324.9144 328.1381 325.81085 328.3569 326.5094 327.94858C 327.20795 327.54025 327.45718 326.65176 327.07294 325.9397L327.07294 325.9397L308.8495 294.23865C 308.41757 293.5544 307.52112 293.3356 306.82257 293.74393C 306.12402 294.15225 305.8748 295.04074 306.25906 295.7528L306.25906 295.7528L306.25906 295.75278z" stroke="none" fill="#F2F2F2" fill-rule="nonzero" />
	<g transform="matrix(1 0 0 1 -67.07143 -37.92028)">
	</g>
    <path transform="matrix(1 0 0 1 -67.07143 -37.92028)"  d="M346.91943 250.44473L361.76083 282.14536C 362.5788 283.89246 365.16577 282.37103 364.35126 280.6312L364.35126 280.6312L349.50986 248.93057C 348.6919 247.18349 346.10486 248.70491 346.91943 250.44473z" stroke="none" fill="#F2F2F2" fill-rule="nonzero" />
	<g transform="matrix(1 0 0 1 -67.07143 -37.92028)">
	</g>
    <path transform="matrix(1 0 0 1 -67.07143 -37.92028)"  d="M72.41411 459.76065C 77.080124 476.0672 84.06612 491.61816 93.1578 505.93655C 95.745636 510.00568 98.49972 513.96155 101.42004 517.804C 102.57162 519.32294 105.177956 517.8298 104.010445 516.28986C 93.86357 502.93222 85.69942 488.17877 79.771 472.48676C 78.09871 468.04163 76.61069 463.53375 75.306915 458.96313C 75.06504 458.19122 74.25512 457.74976 73.47533 457.96472C 72.695526 458.17972 72.22625 458.97385 72.41408 459.76065L72.41408 459.76065L72.41411 459.76065z" stroke="none" fill="#F2F2F2" fill-rule="nonzero" />
	<g transform="matrix(1 0 0 1 -67.07143 -37.92028)">
	</g>
    <path transform="matrix(1 0 0 1 -67.07143 -37.92028)"  d="M161.25905 524.7528L179.48248 556.45386C 179.91441 557.138 180.8108 557.3567 181.5093 556.9484C 182.20778 556.54016 182.45703 555.65173 182.07289 554.9397L182.07289 554.9397L163.84946 523.23865C 163.41753 522.5545 162.52113 522.3358 161.82265 522.7441C 161.12416 523.15234 160.87491 524.0408 161.25905 524.7528z" stroke="none" fill="#F2F2F2" fill-rule="nonzero" />
	<g transform="matrix(1 0 0 1 -67.07143 -37.92028)">
	</g>
    <path transform="matrix(1 0 0 1 -67.07143 -37.92028)"  d="M201.91942 479.44473L216.76082 511.14536C 217.57877 512.89246 220.16582 511.37103 219.35123 509.6312L219.35123 509.6312L204.50984 477.93057C 203.6919 476.18347 201.10484 477.70493 201.91942 479.44473z" stroke="none" fill="#F2F2F2" fill-rule="nonzero" />
	<g transform="matrix(1 0 0 1 -67.07143 -37.92028)">
	</g>
    <path transform="matrix(1 0 0 1 -67.07143 -37.92028)"  d="M474.41412 280.76065C 479.08014 297.0672 486.0661 312.61816 495.1578 326.93655C 497.74567 331.00565 500.49976 334.9615 503.42004 338.80402C 504.57162 340.32294 507.17798 338.82977 506.01047 337.28986C 495.8636 323.93225 487.6994 309.17877 481.771 293.48676C 480.0987 289.04163 478.61066 284.53375 477.30692 279.96313C 477.0651 279.19113 476.25513 278.74954 475.47525 278.96454C 474.69537 279.17953 474.22607 279.97382 474.41406 280.76065L474.41406 280.76065L474.41412 280.76065z" stroke="none" fill="#F2F2F2" fill-rule="nonzero" />
	<g transform="matrix(1 0 0 1 -67.07143 -37.92028)">
	</g>
    <path transform="matrix(1 0 0 1 -67.07143 -37.92028)"  d="M563.25903 345.75278L581.4825 377.45386C 581.9145 378.13785 582.8108 378.35648 583.5092 377.94824C 584.20764 377.54 584.457 376.65173 584.0729 375.9397L584.0729 375.9397L565.8494 344.23865C 565.4174 343.55466 564.5211 343.33603 563.8227 343.74426C 563.12427 344.1525 562.87494 345.04077 563.25903 345.7528L563.25903 345.7528L563.25903 345.75278z" stroke="none" fill="#F2F2F2" fill-rule="nonzero" />
	<g transform="matrix(1 0 0 1 -67.07143 -37.92028)">
	</g>
    <path transform="matrix(1 0 0 1 -67.07143 -37.92028)"  d="M603.91943 300.44473L618.76086 332.14536C 619.5788 333.89246 622.16583 332.37103 621.35126 330.6312L621.35126 330.6312L606.5099 298.93057C 605.6919 297.18347 603.10486 298.70493 603.9195 300.44473L603.9195 300.44473L603.91943 300.44473z" stroke="none" fill="#F2F2F2" fill-rule="nonzero" />
	<g transform="matrix(0.9779114 -0.20901954 0.20901954 0.9779114 -153.80882 28.73852)">
	</g>
    <path transform="matrix(0.9779114 -0.20901954 0.20901954 0.9779114 -153.80882 28.73852)"  d="M251.021 443.7191C 251.021 422.73227 260.423 405.7191 272.021 405.7191C 283.619 405.7191 293.021 422.73227 293.021 443.7191C 293.021 464.7059 283.619 481.7191 272.021 481.7191C 260.423 481.7191 251.021 464.7059 251.021 443.7191" stroke="none" fill="#CCCCCC" fill-rule="nonzero" />
	<g transform="matrix(1 0 0 1 -67.07143 -37.92028)">
	</g>
    <path transform="matrix(1 0 0 1 -67.07143 -37.92028)"  d="M291.021 461.7191C 291.021 470.00336 290.30527 486.7191 282.021 486.7191C 273.73672 486.7191 261.021 470.00336 261.021 461.7191C 261.021 453.4348 267.73672 446.7191 276.021 446.7191C 284.30527 446.7191 291.021 453.4348 291.021 461.7191z" stroke="none" fill="#E6E6E6" fill-rule="nonzero" />
	<g transform="matrix(1 0 0 1 -67.07143 -37.92028)">
	</g>
    <path transform="matrix(1 0 0 1 -67.07143 -37.92028)"  d="M279.37323 469.55423C 278.44565 470.05063 277.2913 469.7025 276.79282 468.7761C 276.72314 468.64377 276.77322 468.48004 276.905 468.40933C 277.03677 468.33862 277.2009 468.38742 277.2726 468.51865C 277.6281 469.18112 278.4533 469.43 279.11578 469.0745C 279.77823 468.719 280.0271 467.8938 279.6716 467.23132C 279.60193 467.099 279.652 466.93527 279.78378 466.86456C 279.91556 466.79385 280.07968 466.84265 280.1514 466.97388C 280.64777 467.9014 280.29965 469.05573 279.37323 469.55423z" stroke="none" fill="#FFFFFF" fill-rule="nonzero" />
	<g transform="matrix(0.881149 -0.4728387 0.4728387 0.881149 -253.93275 148.29129)">
	</g>
    <path transform="matrix(0.881149 -0.4728387 0.4728387 0.881149 -253.93275 148.29129)"  d="M274.80484 464.81183C 274.80484 464.34918 275.77997 463.97412 276.98288 463.97412C 278.1858 463.97412 279.16092 464.34918 279.16092 464.81183C 279.16092 465.27448 278.1858 465.64954 276.98288 465.64954C 275.77997 465.64954 274.80484 465.27448 274.80484 464.81183" stroke="none" fill="#FFFFFF" fill-rule="nonzero" />
	<g transform="matrix(1 0 0 1 -67.07143 -37.92028)">
	</g>
    <path transform="matrix(1 0 0 1 -67.07143 -37.92028)"  d="M266.1128 466.24057C 266.40298 464.83347 267.30237 463.6276 268.56833 462.94827C 269.83426 462.26895 271.33633 462.18616 272.66925 462.72226C 273.59424 459.894 272.05136 456.85144 269.22314 455.92642C 266.3949 455.00143 263.35233 456.5443 262.4273 459.37253C 261.50232 462.20074 263.04517 465.24335 265.8734 466.16837C 265.95264 466.19434 266.0324 466.21838 266.1128 466.24057z" stroke="none" fill="#FFFFFF" fill-rule="nonzero" />
    <path d="M202.50455 424.51093C 202.50455 423.99915 202.32361 423.5623 201.9617 423.20038C 201.59981 422.8385 201.16296 422.65753 200.65115 422.65753C 200.13937 422.65753 199.70251 422.8385 199.3406 423.20038C 198.97871 423.5623 198.79776 423.99915 198.79776 424.51093C 198.79776 425.02277 198.97871 425.4596 199.3406 425.82147C 199.70251 426.18338 200.13937 426.36432 200.65115 426.36432C 201.16296 426.36432 201.59981 426.18338 201.9617 425.82147C 202.32361 425.4596 202.50455 425.02277 202.50455 424.51093" stroke="none" fill="#3F3D56" fill-rule="nonzero" />
	<g>
	</g>
	<g transform="matrix(1 0 0 1 -67.07143 -37.92028)">
	</g>
    <path transform="matrix(1 0 0 1 -67.07143 -37.92028)"  d="M278.942 459.5708C 279.23215 458.1637 280.13156 456.95782 281.3975 456.2785C 282.66345 455.59915 284.1655 455.5164 285.49844 456.0525C 286.42343 453.22424 284.88055 450.18167 282.05234 449.25665C 279.2241 448.33167 276.18152 449.87454 275.2565 452.70276C 274.3315 455.53098 275.87436 458.57358 278.7026 459.4986C 278.78183 459.52454 278.86163 459.5486 278.942 459.5708z" stroke="none" fill="#FFFFFF" fill-rule="nonzero" />
    <path d="M216.01399 417.73776C 216.014 417.22595 215.83305 416.78912 215.47115 416.42722C 215.10925 416.06534 214.67241 415.8844 214.1606 415.88437C 213.6488 415.8844 213.21194 416.06534 212.85005 416.42722C 212.48816 416.78912 212.30722 417.22595 212.3072 417.73776C 212.30722 418.24957 212.48816 418.68643 212.85005 419.0483C 213.21194 419.41022 213.6488 419.5912 214.1606 419.59116C 214.67241 419.5912 215.10925 419.41022 215.47115 419.0483C 215.83305 418.68643 216.014 418.24957 216.01399 417.73776" stroke="none" fill="#3F3D56" fill-rule="nonzero" />
	<g>
	</g>
	<g transform="matrix(0.70041883 -0.71373206 0.71373206 0.70041883 -308.53656 304.93997)">
	</g>
    <path d="M217.13342 424.05792L223.46155 417.60953L224.10028 418.23633L217.7721 424.68475z" stroke="none" fill="#FFFFFF" fill-rule="nonzero" />
	<g transform="matrix(0.8462604 -0.5327694 0.5327694 0.8462604 -268.48563 186.9692)">
	</g>
    <path d="M217.82645 425.54315L225.47226 420.72968L225.94904 421.487L218.30325 426.30048z" stroke="none" fill="#FFFFFF" fill-rule="nonzero" />
	<g transform="matrix(0.98196507 -0.18906221 0.18906221 0.98196507 -151.2336 20.9092)">
	</g>
    <path d="M194.68578 433.051L203.55763 431.34286L203.72682 432.22162L194.85497 433.92975z" stroke="none" fill="#FFFFFF" fill-rule="nonzero" />
	<g transform="matrix(0.9118002 -0.41063407 0.41063407 0.9118002 -237.67278 113.65602)">
	</g>
    <path d="M196.17409 436.45154L204.41206 432.74152L204.77956 433.5575L196.54158 437.26752z" stroke="none" fill="#FFFFFF" fill-rule="nonzero" />
    <path d="M227.20093 433.95667C 227.20093 432.73978 226.77069 431.7011 225.91022 430.8406C 225.04974 429.9801 224.01105 429.54987 222.79414 429.54987C 221.57724 429.54987 220.53856 429.9801 219.67807 430.8406C 218.81761 431.7011 218.38737 432.73978 218.38736 433.95667C 218.38737 435.17358 218.81761 436.21228 219.67807 437.07272C 220.53856 437.93323 221.57724 438.36346 222.79414 438.36346C 224.01105 438.36346 225.04974 437.93323 225.91022 437.07272C 226.77069 436.21228 227.20093 435.17358 227.20093 433.95667" stroke="none" fill="#CCCCCC" fill-rule="nonzero" />
	<g>
	</g>
    <path d="M214.07872 441.83C 214.07872 440.6131 213.64848 439.5744 212.78801 438.71393C 211.92754 437.85345 210.88885 437.42322 209.67194 437.4232C 208.45505 437.42322 207.41635 437.85345 206.55586 438.71393C 205.6954 439.5744 205.26517 440.6131 205.26515 441.83C 205.26517 443.0469 205.6954 444.08557 206.55586 444.94604C 207.41635 445.80658 208.45505 446.23682 209.67194 446.2368C 210.88885 446.23682 211.92754 445.80658 212.78801 444.94604C 213.64848 444.08557 214.07872 443.0469 214.07872 441.83" stroke="none" fill="#CCCCCC" fill-rule="nonzero" />
	<g>
	</g>
	<g transform="matrix(1 0 0 1 -67.07143 -37.92028)">
	</g>
    <path transform="matrix(1 0 0 1 -67.07143 -37.92028)"  d="M276.021 441.7191C 274.021 440.7191 272.93762 448.16 272.93762 448.16L272.93762 448.16L277.651 448.16C 277.651 448.16 278.021 442.7191 276.021 441.7191z" stroke="none" fill="#E6E6E6" fill-rule="nonzero" />
	<g transform="matrix(1 0 0 1 -67.07143 -37.92028)">
	</g>
    <path transform="matrix(1 0 0 1 -67.07143 -37.92028)"  d="M260.10822 448.49615C 258.1457 449.5678 263.63763 454.70392 263.63763 454.70392L263.63763 454.70392L266.3275 450.8335C 266.3275 450.8335 262.07077 447.4245 260.10822 448.49615z" stroke="none" fill="#E6E6E6" fill-rule="nonzero" />
</g>
</svg>