<?xml version="1.0" standalone="no"?>
<!DOCTYPE svg PUBLIC "-//W3C//DTD SVG 1.0//EN" "http://www.w3.org/TR/2001/REC-SVG-20010904/DTD/svg10.dtd">
<svg xmlns="http://www.w3.org/2000/svg" xmlns:xlink="http://www.w3.org/1999/xlink" id="body_1" width="440" height="297">

<g transform="matrix(0.39954114 0 0 0.39954114 0.4323892 -0)">
	<g transform="matrix(1 0 0 1 -50.45058 -78.32365)">
	</g>
    <path transform="matrix(1 0 0 1 -50.45058 -78.32365)"  d="M801.80524 220.42654C 789.3075 207.04572 771.9165 199.30669 753.60986 198.97949C 735.3032 198.65228 717.6468 205.76488 704.67883 218.69055L704.67883 218.69055L362.6544 560.71747C 343.843 579.4858 313.40344 579.53143 294.53577 560.8197L294.53577 560.8197L243.88063 510.26617C 231.2328 497.6131 214.07555 490.50424 196.18512 490.50424C 178.2947 490.50424 161.13744 497.6131 148.48962 510.26617L148.48962 510.26617L50.450623 608.4112L1149.5494 608.4112L1149.5494 594.4196L801.80524 220.42654z" stroke="none" fill="#F0F0F0" fill-rule="nonzero" />
	<g transform="matrix(1 0 0 1 -50.45058 -78.32365)">
	</g>
    <path transform="matrix(1 0 0 1 -50.45058 -78.32365)"  d="M401.2491 790.65894C 343.452 772.46606 286.62012 772.4636 232.33249 790.65356L232.33249 790.65356L231.69699 788.7571C 286.39377 770.42993 343.6412 770.428 401.8497 788.7512L401.8497 788.7512L401.2491 790.65894z" stroke="none" fill="#E4E4E4" fill-rule="nonzero" />
	<g transform="matrix(1 0 0 1 -50.45058 -78.32365)">
	</g>
    <path transform="matrix(1 0 0 1 -50.45058 -78.32365)"  d="M1004.24915 745.65894C 946.4523 727.4656 889.6205 727.46313 835.3324 745.65356L835.3324 745.65356L834.69714 743.7571C 889.39343 725.42993 946.64124 725.428 1004.84973 743.7512L1004.84973 743.7512L1004.24915 745.65894z" stroke="none" fill="#E4E4E4" fill-rule="nonzero" />
	<g transform="matrix(0.35966572 -0.93308127 0.93308127 0.35966572 264.35953 954.11743)">
	</g>
    <path transform="matrix(0.35966572 -0.93308127 0.93308127 0.35966572 264.35953 954.11743)"  d="M692.8663 286.8533C 692.8663 209.22795 789.91486 146.30017 909.63043 146.30017C 1029.346 146.30017 1126.3947 209.22795 1126.3947 286.8533C 1126.3947 364.47864 1029.346 427.40643 909.63043 427.40643C 789.91486 427.40643 692.8663 364.47864 692.8663 286.8533" stroke="none" fill="#055052" fill-rule="nonzero" />
	<g transform="matrix(1 0 0 1 -50.45058 -78.32365)">
	</g>
    <path transform="matrix(1 0 0 1 -50.45058 -78.32365)"  d="M825.7741 649.63654C 824.84204 649.63544 824.0524 648.94946 823.9211 648.0267C 823.8415 647.4673 816.04285 591.22284 823.0469 516.4717C 829.51514 447.43713 850.2873 348.0031 912.5126 266.33954C 912.91785 265.80557 913.5775 265.52875 914.24255 265.6136C 914.90753 265.69846 915.47656 266.13208 915.7348 266.75073C 915.99304 267.36942 915.9011 268.0789 915.49384 268.61133C 853.806 349.5697 833.2013 448.2741 826.7787 516.8212C 819.81537 591.13745 827.55286 646.9433 827.63184 647.4984C 827.70795 648.0364 827.547 648.58093 827.1906 648.9911C 826.8342 649.4013 826.3175 649.6367 825.7741 649.6366L825.7741 649.6366L825.7741 649.63654z" stroke="none" fill="#3F3D56" fill-rule="nonzero" />
	<g transform="matrix(1 0 0 1 -50.45058 -78.32365)">
	</g>
    <path transform="matrix(1 0 0 1 -50.45058 -78.32365)"  d="M856.8803 374.32138C 856.0682 374.3221 855.348 373.79962 855.0967 373.02734C 854.84534 372.25507 855.12006 371.40878 855.77704 370.93137C 856.0029 370.76727 878.76666 354.3651 912.7982 341.90445C 944.2578 330.3869 992.0968 319.94543 1041.3462 335.6198C 1041.9861 335.8212 1042.4696 336.34933 1042.6138 337.00458C 1042.7579 337.6598 1042.5408 338.3421 1042.0444 338.7935C 1041.5481 339.24487 1040.8484 339.39648 1040.2097 339.19098C 991.9693 323.8387 944.99744 334.1075 914.0869 345.42435C 880.54114 357.70688 858.2023 373.80215 857.98047 373.96323C 857.66095 374.1961 857.27576 374.32153 856.8803 374.32138z" stroke="none" fill="#3F3D56" fill-rule="nonzero" />
	<g transform="matrix(0.93308115 -0.35966578 0.35966578 0.93308115 -152.5033 48.86177)">
	</g>
    <path transform="matrix(0.93308115 -0.35966578 0.35966578 0.93308115 -152.5033 48.86177)"  d="M150.20972 337.84207C 150.20972 218.12653 213.1375 121.077896 290.76285 121.077896C 368.38818 121.077896 431.31598 218.12653 431.31598 337.84207C 431.31598 457.55762 368.38818 554.60626 290.76285 554.60626C 213.1375 554.60626 150.20972 457.55762 150.20972 337.84207" stroke="none" fill="#055052" fill-rule="nonzero" />
	<g transform="matrix(1 0 0 1 -50.45058 -78.32365)">
	</g>
    <path transform="matrix(1 0 0 1 -50.45058 -78.32365)"  d="M374.61923 700.6253C 375.5513 700.6242 376.34088 699.93823 376.47223 699.01544C 376.55185 698.45605 384.35043 642.2116 377.3464 567.4604C 370.87814 498.42584 350.10602 398.99182 287.88074 317.32825C 287.47543 316.79428 286.81573 316.51746 286.15076 316.6023C 285.48575 316.68716 284.91672 317.1208 284.65848 317.73944C 284.40024 318.35812 284.49216 319.0676 284.89948 319.60004C 346.58728 400.5584 367.192 499.26282 373.61465 567.80994C 380.57794 642.1262 372.8405 697.932 372.7615 698.4871C 372.68546 699.0251 372.8464 699.56964 373.2028 699.9798C 373.55914 700.39 374.0759 700.6254 374.61923 700.6253z" stroke="none" fill="#3F3D56" fill-rule="nonzero" />
	<g transform="matrix(1 0 0 1 -50.45058 -78.32365)">
	</g>
    <path transform="matrix(1 0 0 1 -50.45058 -78.32365)"  d="M343.513 425.31015C 344.32513 425.31088 345.04532 424.7884 345.29666 424.0161C 345.54797 423.24384 345.2733 422.39755 344.61627 421.92014C 344.3904 421.75604 321.62662 405.35388 287.5951 392.89322C 256.1355 381.37567 208.2965 370.9342 159.04709 386.60858C 158.40768 386.81042 157.92487 387.33853 157.78098 387.9934C 157.6371 388.6483 157.8541 389.33014 158.35 389.7814C 158.84592 390.23267 159.54515 390.38458 160.1836 390.17975C 208.42401 374.82748 255.39584 385.09628 286.3064 396.41315C 319.85217 408.69568 342.19107 424.79095 342.4128 424.95203C 342.73233 425.18494 343.11758 425.31033 343.513 425.31015z" stroke="none" fill="#3F3D56" fill-rule="nonzero" />
	<g transform="matrix(1 0 0 1 -50.45058 -78.32365)">
	</g>
    <path transform="matrix(1 0 0 1 -50.45058 -78.32365)"  d="M277.1794 780.263C 277.08334 779.9749 267.76547 751.14435 284.2564 725.4183L284.2564 725.4183L285.94025 726.4974C 269.977 751.4007 278.98407 779.35187 279.07697 779.63116L279.07697 779.63116L277.1794 780.263z" stroke="none" fill="#E4E4E4" fill-rule="nonzero" />
	<g transform="matrix(1 0 0 1 -50.45058 -78.32365)">
	</g>
    <path transform="matrix(1 0 0 1 -50.45058 -78.32365)"  d="M295.38547 729.85693C 293.42114 736.8276 286.1779 740.88605 279.20718 738.92175C 272.23648 736.9574 268.178 729.7141 270.14233 722.74347C 272.10666 715.77277 284.00082 698.4797 290.97153 700.444C 297.94223 702.40826 297.3498 722.8862 295.38547 729.85693z" stroke="none" fill="#E4E4E4" fill-rule="nonzero" />
	<g transform="matrix(1 0 0 1 -50.45058 -78.32365)">
	</g>
    <path transform="matrix(1 0 0 1 -50.45058 -78.32365)"  d="M293.65964 762.261C 287.33536 769.0951 276.02136 768.90967 276.02136 768.90967C 276.02136 768.90967 274.96106 757.644 281.28537 750.8098C 287.60968 743.97565 298.9236 744.16113 298.9236 744.16113C 298.9236 744.16113 299.98392 755.4269 293.65964 762.261z" stroke="none" fill="#E4E4E4" fill-rule="nonzero" />
	<g transform="matrix(1 0 0 1 -50.45058 -78.32365)">
	</g>
    <path transform="matrix(1 0 0 1 -50.45058 -78.32365)"  d="M936.1793 731.263C 936.0833 730.9749 926.7655 702.14435 943.2567 676.4183L943.2567 676.4183L944.9403 677.4974C 928.9769 702.4007 937.984 730.35187 938.0768 730.63116L938.0768 730.63116L936.1793 731.263z" stroke="none" fill="#E4E4E4" fill-rule="nonzero" />
	<g transform="matrix(1 0 0 1 -50.45058 -78.32365)">
	</g>
    <path transform="matrix(1 0 0 1 -50.45058 -78.32365)"  d="M955.049 680.11786C 954.0842 684.70386 950.74536 688.4264 946.2909 689.8824C 941.83636 691.3384 936.9435 690.3065 933.45636 687.1757C 929.9692 684.04486 928.4179 679.2911 929.3872 674.706C 930.88165 667.6197 943.5514 649.9836 950.63776 651.478C 957.7241 652.9725 956.5434 673.03156 955.049 680.11786z" stroke="none" fill="#E4E4E4" fill-rule="nonzero" />
	<g transform="matrix(1 0 0 1 -50.45058 -78.32365)">
	</g>
    <path transform="matrix(1 0 0 1 -50.45058 -78.32365)"  d="M952.65967 713.261C 946.3354 720.0951 935.0214 719.90967 935.0214 719.90967C 935.0214 719.90967 933.9611 708.644 940.2854 701.8098C 946.6097 694.97565 957.92365 695.16113 957.92365 695.16113C 957.92365 695.16113 958.98395 706.4269 952.65967 713.261z" stroke="none" fill="#E4E4E4" fill-rule="nonzero" />
	<g transform="matrix(1 0 0 1 -50.45058 -78.32365)">
	</g>
    <path transform="matrix(1 0 0 1 -50.45058 -78.32365)"  d="M376.5494 698.94946C 376.5494 698.94946 501.5494 432.94946 640.54944 473.94946C 779.54944 514.94946 683.54944 727.94946 683.54944 727.94946L683.54944 727.94946L376.5494 698.94946z" stroke="none" fill="#CACACA" fill-rule="nonzero" />
	<g>
	</g>
    <path d="M323.889 627.22L340.889 604.22L512.889 548.22L802.099 576.626L802.818 587.72L710.889 683.22L323.889 627.22L323.889 627.22" stroke="none" fill="#3F3D56" fill-rule="nonzero" />
	<g>
	</g>
    <path d="M507.088 698.2L516.184 698.2L520.512 663.114L507.087 663.114L507.088 698.2L507.088 698.2" stroke="none" fill="#A0616A" fill-rule="nonzero" />
	<g transform="matrix(1 0 0 1 -50.45058 -78.32365)">
	</g>
    <path transform="matrix(1 0 0 1 -50.45058 -78.32365)"  d="M555.2183 773.5541L573.1324 773.55334L573.1331 773.55334C 579.4379 773.5537 584.54895 778.6646 584.5494 784.9694L584.5494 784.9694L584.5494 785.3404L555.2188 785.3415L555.2183 773.5541z" stroke="none" fill="#2F2E41" fill-rule="nonzero" />
	<g>
	</g>
    <path d="M471.876 679.566L464.507 684.898L440.433 659.01L451.309 651.14L471.876 679.566L471.876 679.566" stroke="none" fill="#A0616A" fill-rule="nonzero" />
	<g transform="matrix(1 0 0 1 -50.45058 -78.32365)">
	</g>
    <path transform="matrix(1 0 0 1 -50.45058 -78.32365)"  d="M529.3755 763.67316L505.61285 780.86664L505.3954 780.5661C 501.6997 775.458 502.84418 768.3212 507.95178 764.6249L507.95178 764.6249L507.95236 764.62445L522.4658 754.1233L529.3755 763.67316z" stroke="none" fill="#2F2E41" fill-rule="nonzero" />
	<g transform="matrix(1 0 0 1 -50.45058 -78.32365)">
	</g>
    <path transform="matrix(1 0 0 1 -50.45058 -78.32365)"  d="M532.2829 621.5026C 532.2829 621.5026 522.73914 614.3542 512.4198 621.5026L512.4198 621.5026L505.2776 681.0731L526.723 681.0731L529.9001 662.01056L537.0485 633.41675L532.2829 621.5026z" stroke="none" fill="#2F2E41" fill-rule="nonzero" />
	<g transform="matrix(1 0 0 1 -50.45058 -78.32365)">
	</g>
    <path transform="matrix(1 0 0 1 -50.45058 -78.32365)"  d="M553.76733 713.50476L515.27856 700.9369L496.9301 715.49713L516.42224 745.2965L506.22723 758.667L505.93564 758.33496C 504.67084 756.8944 474.95886 722.9401 475.0449 713.3098C 475.26538 706.7759 476.36914 700.3018 478.3262 694.064L478.3262 694.064L487.97784 680.3643L501.6763 676.3359L547.0273 682.70074L547.10126 682.71136L565.4246 693.86414C 569.09717 696.2238 571.5005 700.12256 571.9587 704.46375C 572.74554 711.5457 574.32776 768.2584 574.3437 768.8307L574.3437 768.8307L574.3541 769.20233L554.563 769.20233L553.76733 713.50476z" stroke="none" fill="#2F2E41" fill-rule="nonzero" />
	<g transform="matrix(1 0 0 1 -50.45058 -78.32365)">
	</g>
    <path transform="matrix(1 0 0 1 -50.45058 -78.32365)"  d="M529.356 699.27515C 522.66656 696.3022 514.1234 684.6937 512.71533 682.736C 509.9628 684.2345 489.88943 694.9627 484.23056 692.2045C 483.40857 692.6581 479.69324 694.87506 479.02402 698.22034L479.02402 698.22034L478.85623 699.05963L478.37125 698.35455C 478.28186 698.22455 469.5635 685.26105 480.84204 677.2041C 491.12582 669.859 493.8925 662.4383 494.1823 661.5891L494.1823 661.5891L488.6024 632.0963L488.7488 631.9603C 489.20645 631.53534 500.06903 621.5409 509.9805 620.35223L509.9805 620.35223L516.0945 619.2745L516.3619 642.5508L516.3619 672.3491C 521.30206 671.72815 529.11755 619.66187 529.11755 619.66187L529.11755 619.66187L533.2016 621.1583C 534.25696 621.3607 546.1162 623.7296 549.2635 628.45044L549.2635 628.45044L549.3657 628.60376L538.5792 657.76733L535.42456 662.51715L535.42456 668.5969L553.85443 684.6231L553.59265 684.8972C 552.9646 685.555 539.3745 699.6899 531.4579 699.68774C 530.7361 699.6996 530.01984 699.55896 529.356 699.27515z" stroke="none" fill="#2F2E41" fill-rule="nonzero" />
    <path d="M489.6491 517.2336C 489.6491 512.3269 487.91434 508.13873 484.44476 504.66916C 480.97522 501.19962 476.78708 499.46484 471.88034 499.4648C 466.97363 499.46484 462.7855 501.19962 459.31592 504.66916C 455.84637 508.13873 454.11157 512.3269 454.11157 517.2336C 454.11157 522.14026 455.84637 526.3284 459.31592 529.79803C 462.7855 533.26764 466.97363 535.00244 471.88034 535.0024C 476.78708 535.00244 480.97522 533.26764 484.44476 529.79803C 487.91434 526.3284 489.6491 522.14026 489.6491 517.2336" stroke="none" fill="#A0616A" fill-rule="nonzero" />
	<g>
	</g>
	<g transform="matrix(1 0 0 1 -50.45058 -78.32365)">
	</g>
    <path transform="matrix(1 0 0 1 -50.45058 -78.32365)"  d="M517.8569 704.567C 518.1145 702.5242 519.26373 700.7004 520.99536 699.5864C 522.727 698.4724 524.8631 698.1826 526.8289 698.79504L526.8289 698.79504L537.01337 686.58636L545.942 690.9659L531.3175 708.0049C 530.04175 711.31177 526.49426 713.14185 523.0601 712.2647C 519.6259 711.38763 517.39056 708.08057 517.8569 704.56696L517.8569 704.56696L517.8569 704.567z" stroke="none" fill="#A0616A" fill-rule="nonzero" />
	<g transform="matrix(1 0 0 1 -50.45058 -78.32365)">
	</g>
    <path transform="matrix(1 0 0 1 -50.45058 -78.32365)"  d="M525.05524 694.2138L541.0327 672.6444L537.0751 651.27356L543.4957 627.1965L543.65735 627.12726C 543.7868 627.0714 546.8599 625.7768 549.1989 626.74713C 550.16614 627.1464 550.92224 627.9321 551.2841 628.91394C 552.8737 632.888 556.706 673.36084 556.8681 675.1518C 556.83545 675.4789 556.04877 683.1981 554.44885 686.39777C 552.8564 689.58264 538.33136 705.65265 537.71387 706.3359L537.71387 706.3359L537.4586 706.61774L525.05524 694.2138z" stroke="none" fill="#2F2E41" fill-rule="nonzero" />
	<g transform="matrix(1 0 0 1 -50.45058 -78.32365)">
	</g>
    <path transform="matrix(1 0 0 1 -50.45058 -78.32365)"  d="M537.5947 590.9838C 531.68005 598.4226 521.5427 597.0595 513.4316 594.3374C 513.90344 600.2925 512.28644 606.22595 508.8584 611.1181C 509.90585 606.8987 505.49323 606.05896 502.9184 604.4898C 501.92706 603.235 502.75064 601.36206 502.34378 599.81573C 497.7204 594.3951 494.65677 590.3055 500.59152 583.9445C 504.0656 579.29407 508.23544 573.4878 514.8547 574.70935C 520.0922 568.5994 528.6753 570.1885 534.5316 574.46234C 537.1644 576.41046 539.5594 578.661 541.66724 581.1678C 540.9933 584.46643 539.7382 587.619 537.9607 590.47833" stroke="none" fill="#2F2E41" fill-rule="nonzero" />
	<g transform="matrix(1 0 0 1 -50.45058 -78.32365)">
	</g>
    <path transform="matrix(1 0 0 1 -50.45058 -78.32365)"  d="M602.54944 716.94946L756.83936 740.0439L851.83936 655.0439C 851.83936 655.0439 806.83936 470.04388 644.83936 457.04388C 482.83936 444.04388 365.83936 706.0439 365.83936 706.0439L365.83936 706.0439L382.8055 706.769C 382.8055 706.769 470.83936 503.04388 590.83936 497.04388C 710.83936 491.04388 602.54944 716.94946 602.54944 716.94946z" stroke="none" fill="#E4E4E4" fill-rule="nonzero" />
	<g transform="matrix(1 0 0 1 -50.45058 -78.32365)">
	</g>
    <path transform="matrix(1 0 0 1 -50.45058 -78.32365)"  d="M633.04944 527.44946L531.04944 527.44946C 519.4515 527.44946 510.04944 518.0474 510.04944 506.44946C 510.04944 494.85147 519.4515 485.44946 531.04944 485.44946L531.04944 485.44946L633.04944 485.44946C 644.6474 485.44946 654.04944 494.85147 654.04944 506.44946C 654.04944 518.0474 644.6474 527.44946 633.04944 527.44946z" stroke="none" fill="#CACACA" fill-rule="nonzero" />
	<g transform="matrix(1 0 0 1 -50.45058 -78.32365)">
	</g>
    <path transform="matrix(1 0 0 1 -50.45058 -78.32365)"  d="M730.3984 653.9605C 728.6555 652.9129 727.4662 651.1472 727.1503 649.1385C 726.83453 647.1297 727.42474 645.0842 728.7621 643.5525L728.7621 643.5525L719.83307 553.9514L734.7426 554.9408L738.873 643.17053C 741.3518 645.6421 741.59033 649.57697 739.4282 652.3298C 737.2661 655.0826 733.3867 655.7832 730.3983 653.9605L730.3983 653.9605L730.3984 653.9605z" stroke="none" fill="#FFB8B8" fill-rule="nonzero" />
	<g transform="matrix(1 0 0 1 -50.45058 -78.32365)">
	</g>
    <path transform="matrix(1 0 0 1 -50.45058 -78.32365)"  d="M740.7829 550.6326L736.874 580.34143L737.4166 598.54944L721.01855 600.05084L717.732 584.907L715.9213 544.815C 715.63806 538.5413 720.25366 533.11633 726.4917 532.391C 732.9821 531.63635 738.87756 536.2286 739.7344 542.7063L739.7344 542.7063L740.7829 550.6326z" stroke="none" fill="#2F2E41" fill-rule="nonzero" />
	<g>
	</g>
    <path d="M627.534 733.711L617.587 733.71L612.855 695.342L627.536 695.343L627.534 733.711L627.534 733.711" stroke="none" fill="#FFB7B7" fill-rule="nonzero" />
	<g transform="matrix(1 0 0 1 -50.45058 -78.32365)">
	</g>
    <path transform="matrix(1 0 0 1 -50.45058 -78.32365)"  d="M680.52124 821.67633L648.4476 821.6752L648.4476 821.2695C 648.448 814.37494 654.03705 808.786 660.9316 808.7857L660.9316 808.7857L660.9324 808.7857L680.5219 808.7865L680.52124 821.67633z" stroke="none" fill="#2F2E41" fill-rule="nonzero" />
	<g>
	</g>
    <path d="M709.669 733.711L699.722 733.71L694.99 695.342L709.671 695.343L709.669 733.711L709.669 733.711" stroke="none" fill="#FFB7B7" fill-rule="nonzero" />
	<g transform="matrix(1 0 0 1 -50.45058 -78.32365)">
	</g>
    <path transform="matrix(1 0 0 1 -50.45058 -78.32365)"  d="M762.6567 821.67633L730.583 821.6752L730.583 821.2695C 730.5835 814.37494 736.1725 808.786 743.067 808.7857L743.067 808.7857L743.0678 808.7857L762.65735 808.7865L762.6567 821.67633z" stroke="none" fill="#2F2E41" fill-rule="nonzero" />
    <path d="M692.555 418.3789C 692.555 412.42352 690.44946 407.3403 686.23834 403.1292C 682.0272 398.91815 676.94403 396.81262 670.98865 396.8126C 665.0333 396.81262 659.9501 398.91815 655.73895 403.1292C 651.52783 407.3403 649.4223 412.42352 649.4223 418.3789C 649.4223 424.3343 651.52783 429.41754 655.73895 433.6286C 659.9501 437.8397 665.0333 439.94522 670.98865 439.94522C 676.94403 439.94522 682.0272 437.8397 686.23834 433.6286C 690.44946 429.41754 692.555 424.3343 692.555 418.3789" stroke="none" fill="#FFB8B8" fill-rule="nonzero" />
	<g>
	</g>
	<g transform="matrix(1 0 0 1 -50.45058 -78.32365)">
	</g>
    <path transform="matrix(1 0 0 1 -50.45058 -78.32365)"  d="M718.6526 527.0244L733.61914 528.73486C 741.0024 539.2056 742.8975 552.58905 738.71173 564.6981L738.71173 564.6981L727.4187 597.3671C 727.4187 597.3671 743.09534 628.7945 743.09534 657.97327C 743.09534 687.15204 772.95056 791.3052 772.95056 791.3052L772.95056 791.3052L730.9264 795.6888L712.5898 684.736L687.32117 795.24164L658.4747 790.5457L674.3627 645.661L684.86145 597.973L685.3087 574.7169C 685.3087 574.7169 680.8447 557.2666 692.0172 546.09406L692.0172 546.09406L705.6578 527.0867L718.6526 527.0244z" stroke="none" fill="#2F2E41" fill-rule="nonzero" />
	<g transform="matrix(1 0 0 1 -50.45058 -78.32365)">
	</g>
    <path transform="matrix(1 0 0 1 -50.45058 -78.32365)"  d="M696.2993 489.00055L727.9903 489.00055L727.9903 475.18655C 721.0345 472.42313 714.22784 470.073 710.1133 475.18655C 702.4841 475.1866 696.2994 481.3713 696.29926 489.00055L696.29926 489.00055L696.2993 489.00055z" stroke="none" fill="#2F2E41" fill-rule="nonzero" />
	<g transform="matrix(1 0 0 1 -50.45058 -78.32365)">
	</g>
    <path transform="matrix(1 0 0 1 -50.45058 -78.32365)"  d="M729.7449 472.74878C 748.69037 472.74878 753.9932 496.4962 753.9932 509.8933C 753.9932 517.36475 750.6143 520.037 745.3047 520.94116L745.3047 520.94116L743.42957 510.94046L739.03766 521.37146C 737.5462 521.3789 735.9793 521.35004 734.355 521.3199L734.355 521.3199L732.8659 518.2537L729.54535 521.2649C 716.2459 521.28467 705.49695 523.2233 705.49695 509.89325C 705.4969 496.4962 710.14746 472.74878 729.7449 472.74878z" stroke="none" fill="#2F2E41" fill-rule="nonzero" />
	<g>
	</g>
    <path d="M651.277 525.592L650.476 490.806L648.351 475.362L643.098 490.66L651.277 525.592L651.277 525.592" stroke="none" fill="#000000" fill-rule="nonzero" fill-opacity="0.2" />
	<g transform="matrix(1 0 0 1 -50.45058 -78.32365)">
	</g>
    <path transform="matrix(1 0 0 1 -50.45058 -78.32365)"  d="M762.84644 628.0318L728.54944 625.1005L727.1055 527.691L743.8267 528.7645C 745.98 528.91016 747.9053 530.15765 748.91815 532.06335L748.91815 532.06335L770.8594 573.6895L769.5771 622.0143C 769.48773 625.3696 766.74677 628.0459 763.39026 628.055C 763.20996 628.055 763.0287 628.04724 762.84644 628.0318z" stroke="none" fill="#055052" fill-rule="nonzero" />
	<g transform="matrix(1 0 0 1 -50.45058 -78.32365)">
	</g>
    <path transform="matrix(1 0 0 1 -50.45058 -78.32365)"  d="M685.7707 562.98846C 685.7707 541.4211 698.8998 523.87476 715.0376 523.87476C 731.1754 523.87476 744.3045 541.4211 744.3045 562.98846C 744.3045 584.55585 731.1754 602.1022 715.0376 602.1022C 698.8998 602.1022 685.7707 584.5559 685.7707 562.98846zM689.6 562.98846C 689.6 582.44434 701.0112 598.2728 715.03754 598.2728C 729.06384 598.2728 740.4751 582.44434 740.4751 562.98846C 740.4751 543.5326 729.06384 527.7041 715.03754 527.7041C 701.0112 527.7041 689.6 543.5326 689.6 562.98846z" stroke="none" fill="#055052" fill-rule="nonzero" />
	<g>
	</g>
    <path d="M711.359 544.591L713.614 495.412L690.512 450.251L689.537 450.749L712.508 495.651L710.266 544.541L711.359 544.591L711.359 544.591" stroke="none" fill="#3F3D56" fill-rule="nonzero" />
	<g transform="matrix(1 0 0 1 -50.45058 -78.32365)">
	</g>
    <path transform="matrix(1 0 0 1 -50.45058 -78.32365)"  d="M705.58746 657.58105C 703.743 656.33136 702.54675 654.3289 702.3206 652.1124C 702.09454 649.89594 702.8618 647.6932 704.416 646.0968L704.416 646.0968L699.9739 547.5373L716.227 549.50604L715.50073 646.28C 718.06573 649.13135 718.0928 653.45056 715.56366 656.33374C 713.0345 659.217 708.7486 659.7528 705.58746 657.58105z" stroke="none" fill="#FFB8B8" fill-rule="nonzero" />
	<g transform="matrix(1 0 0 1 -50.45058 -78.32365)">
	</g>
    <path transform="matrix(1 0 0 1 -50.45058 -78.32365)"  d="M723.0914 545.1518L717.04865 577.42255L716.5599 597.3754L698.53015 598.0432L695.8348 581.2796L696.23724 537.30896C 696.30023 530.42834 701.67255 524.76746 708.54047 524.3448C 715.68616 523.9051 721.8631 529.2797 722.41547 536.4176L722.41547 536.4176L723.0914 545.1518z" stroke="none" fill="#2F2E41" fill-rule="nonzero" />
	<g transform="matrix(1 0 0 1 -50.45058 -78.32365)">
	</g>
    <path transform="matrix(1 0 0 1 -50.45058 -78.32365)"  d="M461.3515 692.055C 459.20557 692.0492 457.45316 690.3382 457.39606 688.193L457.39606 688.193L456.57626 657.2975L470.604 630.6847C 471.2516 629.4663 472.48248 628.66876 473.8591 628.5757L473.8591 628.5757L484.54947 627.88934L483.62634 690.16614L461.69925 692.0402C 461.58286 692.0503 461.46695 692.0552 461.3515 692.055z" stroke="none" fill="#055052" fill-rule="nonzero" />
	<g transform="matrix(1 0 0 1 -50.45058 -78.32365)">
	</g>
    <path transform="matrix(1 0 0 1 -50.45058 -78.32365)"  d="M492.26483 675.4626C 481.94745 675.4626 473.55362 664.2447 473.55362 650.456C 473.55362 636.6673 481.94742 625.44946 492.26483 625.44946C 502.58224 625.44946 510.976 636.66736 510.976 650.456C 510.976 664.2446 502.58224 675.4626 492.26483 675.4626zM492.26483 627.89764C 483.2974 627.89764 476.00183 638.0173 476.00183 650.456C 476.00183 662.8947 483.29742 673.01434 492.26483 673.01434C 501.23224 673.01434 508.52783 662.8947 508.52783 650.456C 508.52783 638.0173 501.23227 627.89764 492.26483 627.89764z" stroke="none" fill="#055052" fill-rule="nonzero" />
	<g>
	</g>
    <path d="M411.912 610.445L410.47 579.003L425.24 550.13L425.863 550.449L411.177 579.156L412.61 610.413L411.912 610.445L411.912 610.445" stroke="none" fill="#3F3D56" fill-rule="nonzero" />
	<g transform="matrix(1 0 0 1 -50.45058 -78.32365)">
	</g>
    <path transform="matrix(1 0 0 1 -50.45058 -78.32365)"  d="M536.5812 712.8669C 536.46625 712.9111 536.3467 712.94196 536.22473 712.9588L536.22473 712.9588L521.2544 715.0485C 520.5085 715.1553 519.78815 714.7307 519.52026 714.0264L519.52026 714.0264L506.63434 680.4961C 506.46548 680.0568 506.49625 679.5658 506.7186 679.15106C 506.94098 678.7363 507.3329 678.4389 507.7922 678.3364L507.7922 678.3364L507.7923 678.3364L521.87036 675.1948C 521.97906 675.1705 522.0841 675.132 522.18286 675.0805L522.18286 675.0805L535.8758 667.9214C 535.98157 667.8659 536.0932 667.82245 536.2087 667.7918L536.2087 667.7918L551.27783 663.77454C 552.0772 663.5599 552.9094 663.9843 553.205 664.75745L553.205 664.75745L564.4408 693.9938C 564.64136 694.51154 564.56104 695.0962 564.2282 695.5406L564.2282 695.5406L560.34247 700.7587C 560.15967 701.0043 559.9109 701.1929 559.62506 701.3026L559.62506 701.3026L551.13306 704.56616C 551.07214 704.58954 551.0132 704.61755 550.9566 704.65L550.9566 704.65L536.8059 712.76013C 536.7338 712.8014 536.6587 712.8371 536.5812 712.8669z" stroke="none" fill="#FFFFFF" fill-rule="nonzero" />
	<g transform="matrix(1 0 0 1 -50.45058 -78.32365)">
	</g>
    <path transform="matrix(1 0 0 1 -50.45058 -78.32365)"  d="M543.54614 668.2444L541.63257 668.75476L536.5616 670.10724L536.55255 670.1093L529.6099 673.73944L527.03345 675.08685L527.0323 675.08734L523.1627 677.11035L523.0566 677.1343L519.03674 678.0307L517.09393 678.4651L509.16992 680.2333L521.60956 712.6023L529.77515 711.4628L531.7773 711.1828L536.0447 710.5864L536.0942 710.5801L549.8069 702.7208L558.15 699.51447L561.9593 694.3993L551.1308 666.2227L543.54614 668.2444z" stroke="none" fill="#E4E4E4" fill-rule="nonzero" />
	<g transform="matrix(0.93344176 -0.35872886 0.35872886 0.93344176 -258.83075 157.99062)">
	</g>
    <path d="M461.21167 608.39484L502.4643 592.54114L503.17072 594.37933L461.9181 610.23303z" stroke="none" fill="#FFFFFF" fill-rule="nonzero" />
	<g transform="matrix(0.93344176 -0.35872886 0.35872886 0.93344176 -260.87213 159.2432)">
	</g>
    <path d="M463.56647 614.52234L504.8191 598.6686L505.52557 600.50684L464.2729 616.3605z" stroke="none" fill="#FFFFFF" fill-rule="nonzero" />
	<g transform="matrix(0.93344176 -0.35872886 0.35872886 0.93344176 -264.9957 161.7734)">
	</g>
    <path d="M468.32327 626.8998L509.57584 611.046L510.28232 612.8843L469.0297 628.73804z" stroke="none" fill="#FFFFFF" fill-rule="nonzero" />
	<g>
	</g>
    <path d="M493.095 589.921L505.446 622.057L503.608 622.763L491.182 590.431L493.095 589.921L493.095 589.921" stroke="none" fill="#FFFFFF" fill-rule="nonzero" />
	<g>
	</g>
    <path d="M479.16 595.416L476.623 602.472L475.744 604.919L473.693 610.631L473.253 611.851L472.813 613.078L472.234 614.689L468.077 626.259L466.996 623.447L470.386 614.011L471.153 611.875L471.265 611.564L472.172 609.038L473.316 605.853L474.196 603.405L476.581 596.764L476.583 596.763L479.16 595.416L479.16 595.416" stroke="none" fill="#FFFFFF" fill-rule="nonzero" />
	<g>
	</g>
    <path d="M468.586 599.707L481.326 632.859L479.324 633.139L466.643 600.141L468.586 599.707L468.586 599.707" stroke="none" fill="#FFFFFF" fill-rule="nonzero" />
	<g transform="matrix(1 0 0 1 -50.45058 -78.32365)">
	</g>
    <path transform="matrix(1 0 0 1 -50.45058 -78.32365)"  d="M524.0062 709.76074C 523.74854 707.7179 522.5993 705.8941 520.8677 704.7801C 519.13605 703.66614 516.9999 703.37634 515.0341 703.9888L515.0341 703.9888L504.8497 691.7801L495.92102 696.1596L510.54556 713.1986C 511.82132 716.50543 515.3687 718.33545 518.80286 717.4583C 522.237 716.58124 524.4724 713.27423 524.00616 709.7607L524.00616 709.7607L524.0062 709.76074z" stroke="none" fill="#A0616A" fill-rule="nonzero" />
	<g transform="matrix(1 0 0 1 -50.45058 -78.32365)">
	</g>
    <path transform="matrix(1 0 0 1 -50.45058 -78.32365)"  d="M504.26633 707.57367C 503.35547 706.8905 481.9309 690.7873 479.53732 686.00073C 477.14017 681.20575 477.7343 667.00757 477.7654 666.3619C 477.80267 666.1386 481.53265 643.94995 484.68768 636.0626C 487.96124 627.8789 496.19513 631.062 496.27795 631.0952L496.27795 631.0952L496.52682 631.1948L492.94153 673.02344L512.49774 698.9657L504.5302 707.7715L504.26633 707.57367z" stroke="none" fill="#2F2E41" fill-rule="nonzero" />
</g>
</svg>